<svg width="13" height="13" viewBox="0 0 13 13" fill="none" xmlns="http://www.w3.org/2000/svg">
<path d="M1.3398 9.56095C0.594062 8.30381 0.332897 6.81768 0.605349 5.38161C0.877801 3.94554 1.66513 2.65832 2.81949 1.76167C3.97384 0.865023 5.41583 0.420618 6.87466 0.511908C8.33349 0.603198 9.70882 1.2239 10.7424 2.25747C11.776 3.29103 12.3967 4.66636 12.488 6.12519C12.5793 7.58402 12.1349 9.02601 11.2382 10.1804C10.3416 11.3347 9.05436 12.1221 7.6183 12.3945C6.18223 12.667 4.69609 12.4058 3.43895 11.6601L3.43896 11.66L1.3659 12.2523C1.28013 12.2768 1.18937 12.278 1.10302 12.2556C1.01667 12.2332 0.937873 12.1882 0.874797 12.1251C0.811722 12.062 0.766662 11.9832 0.744287 11.8969C0.721912 11.8105 0.723036 11.7197 0.747542 11.634L1.33985 9.56091L1.3398 9.56095Z" stroke="black" stroke-linecap="round" stroke-linejoin="round"/>
<path d="M4.50169 5.49718H8.50319" stroke="black" stroke-linecap="round" stroke-linejoin="round"/>
<path d="M4.50169 7.49793H8.50319" stroke="black" stroke-linecap="round" stroke-linejoin="round"/>
</svg>
