<svg width="24" height="24" viewBox="0 0 24 24" fill="none" xmlns="http://www.w3.org/2000/svg">
<g clip-path="url(#clip0_1329_18965)">
<path d="M0 2.55775V21.444C0.00220802 21.996 0.22128 22.525 0.609965 22.9168C0.99865 23.3087 1.5258 23.5321 2.07771 23.5389H2.91429C3.46928 23.538 4.00124 23.3169 4.39336 22.9241C4.78548 22.5313 5.00572 21.999 5.00571 21.444V2.55775C5.00572 2.00275 4.78548 1.47043 4.39336 1.07767C4.00124 0.684907 3.46928 0.463799 2.91429 0.462891H2.076C1.52438 0.47008 0.997671 0.693687 0.609354 1.08553C0.221037 1.47738 0.00220117 2.00609 0 2.55775H0Z" fill="#1F2937"/>
<path d="M9.49365 13.5716V21.4436C9.49586 21.9956 9.71493 22.5246 10.1036 22.9164C10.4923 23.3083 11.0195 23.5318 11.5714 23.5385H12.4148C12.9698 23.5376 13.5017 23.3165 13.8939 22.9237C14.286 22.531 14.5062 21.9986 14.5062 21.4436V13.5716C14.504 13.0181 14.2827 12.488 13.8908 12.0971C13.499 11.7062 12.9683 11.4863 12.4148 11.4854H11.5697C11.0195 11.4925 10.4941 11.7149 10.106 12.1049C9.71791 12.4949 9.49809 13.0215 9.49365 13.5716Z" fill="#1F2937"/>
<path d="M18.9874 7.59119V21.4443C18.9896 21.9963 19.2087 22.5253 19.5974 22.9171C19.9861 23.309 20.5132 23.5324 21.0651 23.5392H21.9086C22.4636 23.5383 22.9955 23.3172 23.3876 22.9244C23.7798 22.5316 24 21.9993 24 21.4443V7.59119C23.9995 7.03649 23.7791 6.50461 23.387 6.11222C22.995 5.71983 22.4633 5.49895 21.9086 5.49805H21.0634C20.512 5.50479 19.9853 5.72802 19.5969 6.11959C19.2085 6.51116 18.9896 7.03969 18.9874 7.59119Z" fill="#1F2937"/>
</g>
<defs>
<clipPath id="clip0_1329_18965">
<rect width="24" height="24" fill="white"/>
</clipPath>
</defs>
</svg>
