<svg width="71" height="29" viewBox="0 0 71 29" fill="none" xmlns="http://www.w3.org/2000/svg">
<path d="M30.8291 3.02374C30.6567 2.86634 30.5197 2.6734 30.4271 2.4579C30.3345 2.2424 30.2886 2.00935 30.2925 1.77439C30.287 1.53655 30.3321 1.3003 30.4247 1.08163C30.5173 0.862958 30.6552 0.666973 30.8291 0.50694C31.2076 0.162196 31.7042 -0.019151 32.213 0.00160385C32.7161 -0.0173686 33.2065 0.164056 33.579 0.50694C33.7529 0.666973 33.8908 0.862958 33.9834 1.08163C34.076 1.3003 34.1211 1.53655 34.1157 1.77439C34.1195 2.00935 34.0736 2.2424 33.981 2.4579C33.8885 2.6734 33.7514 2.86634 33.579 3.02374C33.2065 3.36663 32.7161 3.54805 32.213 3.52908C31.7042 3.54983 31.2076 3.36849 30.8291 3.02374ZM33.8148 4.63522V15.2736H30.5933V4.63522H33.8148Z" fill="#111827"/>
<path d="M36.123 7.05799C36.4908 6.27682 37.0685 5.61625 37.7899 5.15187C38.4953 4.70525 39.3126 4.47328 40.1446 4.48357C40.8009 4.47609 41.4495 4.62613 42.0375 4.92142C42.5806 5.19027 43.0448 5.59828 43.384 6.10493V1.16679H46.6055V15.275H43.384V13.7508C43.0724 14.2691 42.6264 14.691 42.0944 14.9705C41.4919 15.2858 40.821 15.4431 40.143 15.4281C39.3099 15.4379 38.492 15.2029 37.7882 14.7516C37.0661 14.2794 36.4888 13.6124 36.1214 12.8257C35.6979 11.9241 35.488 10.935 35.5083 9.93692C35.4878 8.9418 35.6983 7.95571 36.123 7.05799ZM42.7156 8.0308C42.5053 7.80933 42.2532 7.63296 41.9741 7.51218C41.6951 7.3914 41.3949 7.32868 41.0915 7.32776C40.788 7.32683 40.4875 7.38773 40.2077 7.50681C39.928 7.6259 39.6748 7.80074 39.4632 8.02092C39.0176 8.48511 38.7948 9.12377 38.7948 9.93692C38.7948 10.7501 39.0176 11.3953 39.4632 11.8727C39.6727 12.096 39.9249 12.2738 40.2045 12.3954C40.4841 12.5169 40.7851 12.5796 41.0894 12.5796C41.3937 12.5796 41.6947 12.5169 41.9743 12.3954C42.2539 12.2738 42.5061 12.096 42.7156 11.8727C43.1612 11.4041 43.384 10.7627 43.384 9.94844C43.384 9.1342 43.1612 8.49498 42.7156 8.0308Z" fill="#111827"/>
<path d="M58.7915 10.7363H51.5013C51.5512 11.3948 51.7615 11.9001 52.1322 12.2523C52.5017 12.6022 52.9924 12.7909 53.4982 12.7774C54.3016 12.7774 54.8605 12.434 55.1749 11.747H58.6029C58.4301 12.4407 58.1049 13.0861 57.6515 13.635C57.1843 14.202 56.5945 14.6525 55.9278 14.9519C55.1991 15.2788 54.409 15.4417 53.6121 15.4292C52.6537 15.4472 51.7066 15.2172 50.8606 14.7609C50.0639 14.3233 49.4098 13.6612 48.9774 12.8548C48.509 11.9636 48.2749 10.9654 48.2977 9.95611C48.2745 8.9482 48.5045 7.95084 48.966 7.05742C49.3934 6.25013 50.0453 5.58741 50.841 5.1513C51.6899 4.71529 52.6278 4.48641 53.5797 4.48298C54.5316 4.47955 55.471 4.70166 56.3229 5.13155C57.1037 5.55494 57.7478 6.19659 58.1784 6.98006C58.6374 7.83831 58.8677 8.80267 58.8468 9.77833C58.8465 10.0985 58.8281 10.4183 58.7915 10.7363ZM55.5521 8.92568C55.5628 8.67445 55.5175 8.424 55.4195 8.19291C55.3215 7.96182 55.1735 7.75601 54.9862 7.59074C54.592 7.2544 54.0883 7.0784 53.5731 7.09693C53.0759 7.08203 52.5906 7.25183 52.2087 7.57428C51.8215 7.9233 51.5763 8.40555 51.5208 8.92733L55.5521 8.92568Z" fill="#111827"/>
<path d="M60.5159 7.05635C60.8837 6.27519 61.4613 5.61462 62.1827 5.15023C62.8881 4.70362 63.7055 4.47165 64.5374 4.48194C65.2155 4.46692 65.8864 4.62425 66.4889 4.93954C67.017 5.21634 67.4623 5.63125 67.7784 6.14115V4.63502H70.9999V15.2734H67.7768V13.7673C67.4524 14.2743 67.0043 14.6882 66.4759 14.9689C65.8735 15.2843 65.2025 15.4417 64.5244 15.4265C63.6977 15.4344 62.8865 15.1994 62.1892 14.75C61.4671 14.2778 60.8898 13.6108 60.5224 12.8241C60.0989 11.9225 59.889 10.9334 59.9093 9.93529C59.8862 8.94083 60.094 7.95476 60.5159 7.05635ZM67.1084 8.02917C66.8982 7.8077 66.646 7.63133 66.367 7.51055C66.088 7.38976 65.7878 7.32705 65.4843 7.32612C65.1809 7.3252 64.8803 7.3861 64.6006 7.50518C64.3208 7.62427 64.0677 7.79911 63.8561 8.01929C63.4105 8.48348 63.1877 9.12214 63.1877 9.93529C63.1877 10.7484 63.4105 11.3937 63.8561 11.871C64.0656 12.0944 64.3178 12.2722 64.5973 12.3937C64.8769 12.5153 65.178 12.5779 65.4823 12.5779C65.7865 12.5779 66.0876 12.5153 66.3672 12.3937C66.6467 12.2722 66.8989 12.0944 67.1084 11.871C67.554 11.4025 67.7768 10.7611 67.7768 9.94681C67.7768 9.13257 67.554 8.49335 67.1084 8.02917Z" fill="#111827"/>
<path d="M35.1149 17.9131C35.7132 17.5969 36.3802 17.4373 37.055 17.4489C37.8859 17.4367 38.7029 17.6651 39.4097 18.1073C40.1304 18.5733 40.7078 19.2342 41.0766 20.0151C41.5009 20.9129 41.7109 21.899 41.6896 22.894C41.7101 23.8916 41.5002 24.8802 41.0766 25.7812C40.7086 26.5675 40.1314 27.2344 39.4097 27.7071C38.7064 28.1594 37.8883 28.395 37.055 28.3852C36.3814 28.4012 35.7146 28.2467 35.1149 27.9359C34.5858 27.6606 34.1372 27.2497 33.814 26.7441V28.2256H30.5941V16.7115H33.8156V19.1147C34.1329 18.6022 34.5821 18.1868 35.1149 17.9131ZM37.7429 20.9912C37.5317 20.7668 37.2769 20.5893 36.9944 20.4697C36.712 20.3501 36.4081 20.2912 36.102 20.2966C35.7974 20.2922 35.4952 20.3526 35.215 20.474C34.9349 20.5954 34.6831 20.7749 34.4758 21.0011C34.0303 21.4718 33.8075 22.1138 33.8075 22.9269C33.8075 23.7401 34.0303 24.3837 34.4758 24.8528C34.687 25.0768 34.9409 25.255 35.2223 25.3764C35.5036 25.4978 35.8064 25.5599 36.1123 25.559C36.4181 25.5581 36.7206 25.4941 37.0012 25.371C37.2818 25.2479 37.5347 25.0682 37.7445 24.8429C38.1966 24.3678 38.4226 23.7231 38.4226 22.9088C38.4112 22.094 38.1884 21.457 37.7429 20.9912Z" fill="#111827"/>
<path d="M45.3904 27.7327C44.5769 27.2975 43.9033 26.6362 43.4487 25.8265C42.9636 24.9408 42.72 23.9403 42.7429 22.9279C42.7224 21.9175 42.9695 20.9201 43.4584 20.039C43.9186 19.225 44.5983 18.5604 45.418 18.123C46.2833 17.6846 47.2376 17.4563 48.2053 17.4563C49.173 17.4563 50.1273 17.6846 50.9926 18.123C51.8127 18.5598 52.4926 19.2245 52.9522 20.039C53.4419 20.9198 53.689 21.9174 53.6677 22.9279C53.6889 23.9395 53.4382 24.938 52.9424 25.8167C52.4769 26.6329 51.7909 27.2976 50.965 27.7327C50.1013 28.1853 49.1404 28.4149 48.1679 28.4009C47.2014 28.4167 46.2465 28.1869 45.3904 27.7327ZM49.7404 24.8916C50.1741 24.434 50.3909 23.7794 50.3909 22.9279C50.3909 22.0763 50.1811 21.4217 49.7616 20.9641C49.562 20.7484 49.321 20.5763 49.0533 20.4583C48.7856 20.3403 48.4969 20.279 48.205 20.278C47.913 20.2771 47.624 20.3366 47.3555 20.4529C47.0871 20.5692 46.8451 20.7398 46.6442 20.9542C46.23 21.4053 46.0224 22.0637 46.0213 22.9295C46.0202 23.7953 46.2246 24.4499 46.6344 24.8932C46.8251 25.1143 47.0614 25.2904 47.3267 25.409C47.5919 25.5276 47.8796 25.5858 48.1695 25.5796C48.4644 25.5832 48.7568 25.5237 49.0275 25.4052C49.2981 25.2866 49.5411 25.1116 49.7404 24.8916Z" fill="#111827"/>
<path d="M61.598 28.2482L59.5815 25.2936L57.8919 28.2482H54.4021L57.8675 22.8163L54.3143 17.6148H57.9244L59.9409 20.5513L61.6321 17.6148H65.1171L61.5947 22.9727L65.2098 28.2482H61.598Z" fill="#111827"/>
<path d="M24.271 0.108953H3.67845C2.70326 0.11026 1.76838 0.50296 1.07882 1.20094C0.389255 1.89892 0.00129079 2.84521 0 3.83231L0 24.6762C0.000860489 25.6635 0.388635 26.6103 1.07825 27.3086C1.76786 28.0069 2.70298 28.3999 3.67845 28.4012H24.271C25.2467 28.4003 26.1822 28.0076 26.8722 27.3092C27.5622 26.6108 27.9502 25.6638 27.951 24.6762V3.83231C27.9497 2.84493 27.5615 1.89839 26.8716 1.20036C26.1817 0.502332 25.2464 0.109824 24.271 0.108953ZM24.271 2.62411C24.5877 2.62411 24.8914 2.75135 25.1155 2.97788C25.3397 3.20442 25.4658 3.51172 25.4662 3.83231V23.0318L25.4499 23.0202C23.7213 25.0564 20.651 26.2399 18.0621 25.407C17.0132 25.0696 15.992 24.3305 14.8423 24.4885C14.1446 24.584 13.5413 25.012 12.9266 25.3593C12.0273 25.8679 10.6581 26.1971 10.0174 25.1222C9.80145 24.7167 9.70708 24.2562 9.74578 23.7972C9.79782 22.5396 10.3686 21.3594 11.0646 20.3158C12.5737 18.0525 14.5447 16.0789 15.7481 13.6147C15.857 13.3909 15.9709 12.9991 15.6359 12.9563C15.4196 12.9234 15.1334 13.0847 14.9512 13.1868C14.3625 13.516 13.8129 13.9933 13.2632 14.3867C11.9981 15.2855 10.7426 16.1974 9.44006 17.0369C8.21228 17.8303 6.91295 18.5776 5.48841 18.9315C4.92249 19.073 4.20859 19.1487 3.71911 18.757C3.39387 18.5002 3.24751 18.0788 3.19222 17.6673C3.14221 17.3281 3.15601 16.9824 3.23287 16.6484C3.44265 15.776 4.12403 15.0847 4.37121 14.2205C4.71434 12.9909 3.9549 12.1712 3.49307 11.1276C3.00219 9.99185 2.71846 8.77557 2.65558 7.53755C2.56126 5.90632 2.81819 4.30472 3.21661 2.72946C3.36462 2.66532 3.52396 2.63227 3.68496 2.63234L24.271 2.62411ZM2.95317 2.87431C3.03109 2.81321 3.11633 2.76233 3.20686 2.72287L2.95317 2.87431Z" fill="#7C4BFF"/>
<path d="M25.4094 3.48552C25.4456 3.59713 25.4648 3.7137 25.4663 3.83119V23.0306L25.45 23.0191C23.7214 25.0553 20.6511 26.2388 18.0622 25.4059C17.0133 25.0685 15.9921 24.3294 14.8423 24.4874C14.1447 24.5829 13.5414 25.0108 12.9267 25.3582C12.0274 25.8668 10.6581 26.196 10.0174 25.1211C9.80152 24.7156 9.70715 24.2551 9.74585 23.7961C9.79789 22.5385 10.3687 21.3583 11.0647 20.3147C12.5738 18.0514 14.5448 16.0794 15.7481 13.6136C15.8343 13.4359 15.9205 13.1544 15.7855 13.0194L1.22622 27.4421C1.89804 28.0581 2.77202 28.3995 3.67852 28.4H24.271C25.2468 28.3992 26.1823 28.0064 26.8723 27.3081C27.5622 26.6097 27.9502 25.6627 27.9511 24.675V3.83119C27.9502 3.05117 27.7061 2.29135 27.2535 1.66005L25.4094 3.48552Z" fill="#5C43D6"/>
<path d="M19.2833 15.4354C20.8998 12.8478 21.7226 9.88161 21.9356 7.00432C21.9483 6.93896 21.9438 6.87139 21.9227 6.80831C21.9015 6.74524 21.8645 6.68886 21.8152 6.64476C21.7658 6.60067 21.706 6.5704 21.6415 6.55695C21.5771 6.54351 21.5103 6.54736 21.4478 6.56812C18.6475 7.09979 15.8244 8.25202 13.4599 10.1614C12.3769 11.0371 13.9201 11.1902 14.5234 11.3137C15.3577 11.4931 16.2407 11.6429 16.8717 12.219C17.4994 12.7918 17.7498 13.6642 18.01 14.4823C18.2214 15.0848 18.5385 16.6271 19.2833 15.4354Z" fill="#FF5C1B"/>
<path d="M16.6293 11.9231C16.7159 11.972 16.7991 12.027 16.8781 12.0877C17.5058 12.6589 17.7562 13.5313 18.0245 14.3494C18.2181 14.942 18.5368 16.4794 19.2783 15.2942C20.8948 12.705 21.7176 9.73883 21.9307 6.86319C21.9363 6.79941 21.9297 6.73511 21.9111 6.67389L16.6293 11.9231Z" fill="#E05828"/>
</svg>
