<svg width="12" height="12" viewBox="0 0 12 12" fill="none" xmlns="http://www.w3.org/2000/svg">
<g clip-path="url(#clip0_2770_72671)">
<path fill-rule="evenodd" clip-rule="evenodd" d="M7.18735 9.03417L11.6445 4.74846C11.8235 4.55069 11.9412 4.30523 11.9835 4.04186C12.0257 3.77849 11.9906 3.50852 11.8825 3.26469C11.7743 3.02087 11.5977 2.81367 11.3741 2.66823C11.1505 2.52279 10.8895 2.44535 10.6228 2.44531H1.38106C1.11515 2.4461 0.855133 2.52379 0.632375 2.66902C0.409618 2.81425 0.233629 3.02082 0.125629 3.26382C0.0176291 3.50682 -0.0177699 3.77587 0.0237002 4.03854C0.0651704 4.3012 0.181739 4.54626 0.35935 4.74417L4.81649 9.03417C4.96671 9.19923 5.14975 9.3311 5.35388 9.42134C5.55801 9.51157 5.77874 9.55818 6.00192 9.55818C6.22511 9.55818 6.44583 9.51157 6.64996 9.42134C6.85409 9.3311 7.03713 9.19923 7.18735 9.03417Z" fill="#7C4BFF"/>
</g>
<defs>
<clipPath id="clip0_2770_72671">
<rect width="12" height="12" fill="white"/>
</clipPath>
</defs>
</svg>
