<svg width="71" height="29" viewBox="0 0 71 29" fill="none" xmlns="http://www.w3.org/2000/svg">
<path d="M30.8296 3.02376C30.6572 2.86636 30.5201 2.67342 30.4276 2.45792C30.335 2.24242 30.2891 2.00936 30.2929 1.77441C30.2875 1.53656 30.3326 1.30031 30.4252 1.08164C30.5177 0.862964 30.6557 0.666978 30.8296 0.506943C31.2081 0.162197 31.7047 -0.0191512 32.2135 0.00160386C32.7166 -0.0173687 33.207 0.164057 33.5795 0.506943C33.7534 0.666978 33.8913 0.862964 33.9839 1.08164C34.0765 1.30031 34.1216 1.53656 34.1161 1.77441C34.12 2.00936 34.0741 2.24242 33.9815 2.45792C33.8889 2.67342 33.7519 2.86636 33.5795 3.02376C33.207 3.36665 32.7166 3.54807 32.2135 3.5291C31.7047 3.54986 31.2081 3.36851 30.8296 3.02376ZM33.8153 4.63525V15.2737H30.5938V4.63525H33.8153Z" fill="#111827"/>
<path d="M36.1229 7.05655C36.4907 6.27538 37.0684 5.6148 37.7897 5.15042C38.4952 4.7038 39.3125 4.47182 40.1445 4.48212C40.8008 4.47463 41.4495 4.62468 42.0374 4.91997C42.5805 5.18882 43.0447 5.59684 43.3839 6.10348V1.16531H46.6054V15.2737H43.3839V13.7494C43.0723 14.2677 42.6263 14.6896 42.0943 14.9691C41.4919 15.2844 40.8209 15.4418 40.1429 15.4267C39.3098 15.4365 38.4919 15.2015 37.7881 14.7502C37.066 14.278 36.4887 13.611 36.1213 12.8243C35.6978 11.9227 35.4878 10.9336 35.5082 9.9355C35.4877 8.94038 35.6982 7.95428 36.1229 7.05655ZM42.7155 8.02937C42.5052 7.8079 42.2531 7.63153 41.9741 7.51074C41.695 7.38996 41.3948 7.32724 41.0914 7.32632C40.7879 7.3254 40.4874 7.38629 40.2076 7.50538C39.9279 7.62446 39.6747 7.79931 39.4631 8.01949C39.0175 8.48368 38.7947 9.12235 38.7947 9.9355C38.7947 10.7487 39.0175 11.3939 39.4631 11.8713C39.6726 12.0946 39.9248 12.2724 40.2044 12.394C40.484 12.5155 40.7851 12.5782 41.0893 12.5782C41.3936 12.5782 41.6947 12.5155 41.9742 12.394C42.2538 12.2724 42.506 12.0946 42.7155 11.8713C43.1611 11.4027 43.3839 10.7613 43.3839 9.94702C43.3839 9.13278 43.1611 8.49356 42.7155 8.02937Z" fill="#111827"/>
<path d="M58.7922 10.7355H51.5019C51.5518 11.394 51.7621 11.8993 52.1329 12.2516C52.5023 12.6015 52.9931 12.7901 53.4989 12.7767C54.3022 12.7767 54.8611 12.4332 55.1755 11.7462H58.6035C58.4307 12.44 58.1055 13.0853 57.6522 13.6342C57.185 14.2012 56.5952 14.6518 55.9284 14.9511C55.1998 15.2781 54.4096 15.441 53.6127 15.4284C52.6543 15.4464 51.7072 15.2164 50.8612 14.7601C50.0645 14.3225 49.4103 13.6604 48.978 12.854C48.5096 11.9628 48.2755 10.9646 48.2983 9.95531C48.2751 8.94739 48.5051 7.95002 48.9666 7.05661C49.394 6.2493 50.0459 5.58658 50.8416 5.15047C51.6905 4.71445 52.6284 4.48557 53.5803 4.48214C54.5322 4.47871 55.4717 4.70083 56.3236 5.13072C57.1044 5.55411 57.7484 6.19577 58.1791 6.97924C58.638 7.83749 58.8683 8.80187 58.8475 9.77754C58.8472 10.0977 58.8287 10.4175 58.7922 10.7355ZM55.5528 8.92488C55.5634 8.67364 55.5181 8.4232 55.4201 8.1921C55.3222 7.96101 55.1741 7.7552 54.9868 7.58993C54.5926 7.25359 54.0889 7.07759 53.5737 7.09611C53.0765 7.08121 52.5912 7.25101 52.2093 7.57347C51.8221 7.92249 51.5769 8.40475 51.5214 8.92653L55.5528 8.92488Z" fill="#111827"/>
<path d="M60.5159 7.05665C60.8837 6.27548 61.4614 5.61491 62.1828 5.15052C62.8882 4.7039 63.7055 4.47193 64.5375 4.48222C65.2156 4.4672 65.8865 4.62453 66.489 4.93982C67.0171 5.21663 67.4624 5.63154 67.7785 6.14144V4.6353H71.0001V15.2738H67.7769V13.7676C67.4525 14.2747 67.0044 14.6885 66.4759 14.9692C65.8735 15.2847 65.2026 15.442 64.5245 15.4268C63.6978 15.4348 62.8866 15.1998 62.1893 14.7503C61.4672 14.2782 60.8898 13.6111 60.5224 12.8244C60.0989 11.9228 59.889 10.9337 59.9093 9.9356C59.8863 8.94114 60.094 7.95507 60.5159 7.05665ZM67.1085 8.02947C66.8983 7.808 66.6461 7.63163 66.3671 7.51085C66.0881 7.39006 65.7879 7.32734 65.4844 7.32642C65.1809 7.3255 64.8804 7.3864 64.6007 7.50548C64.3209 7.62457 64.0677 7.79941 63.8561 8.01959C63.4106 8.48378 63.1878 9.12245 63.1878 9.9356C63.1878 10.7488 63.4106 11.394 63.8561 11.8714C64.0656 12.0947 64.3179 12.2725 64.5974 12.3941C64.877 12.5156 65.1781 12.5783 65.4823 12.5783C65.7866 12.5783 66.0877 12.5156 66.3672 12.3941C66.6468 12.2725 66.899 12.0947 67.1085 11.8714C67.5541 11.4028 67.7769 10.7614 67.7769 9.94713C67.7769 9.13288 67.5541 8.49366 67.1085 8.02947Z" fill="#111827"/>
<path d="M35.1147 17.9141C35.713 17.5979 36.3799 17.4383 37.0548 17.4499C37.8856 17.4377 38.7026 17.6661 39.4095 18.1083C40.1301 18.5743 40.7075 19.2352 41.0764 20.0161C41.5007 20.9139 41.7107 21.9 41.6894 22.895C41.7099 23.8926 41.5 24.8813 41.0764 25.7822C40.7084 26.5686 40.1312 27.2355 39.4095 27.7081C38.7061 28.1605 37.888 28.3961 37.0548 28.3863C36.3812 28.4023 35.7144 28.2478 35.1147 27.9369C34.5855 27.6616 34.137 27.2507 33.8137 26.7452V28.2266H30.5938V16.7125H33.8154V19.1157C34.1327 18.6032 34.5819 18.1878 35.1147 17.9141ZM37.7426 20.9922C37.5315 20.7679 37.2766 20.5903 36.9942 20.4707C36.7118 20.3512 36.4079 20.2922 36.1018 20.2976C35.7971 20.2932 35.4949 20.3536 35.2148 20.475C34.9346 20.5964 34.6828 20.7759 34.4756 21.0021C34.03 21.4729 33.8072 22.1148 33.8072 22.928C33.8072 23.7411 34.03 24.3847 34.4756 24.8539C34.6867 25.0779 34.9407 25.256 35.222 25.3774C35.5034 25.4988 35.8062 25.5609 36.112 25.56C36.4179 25.5591 36.7203 25.4951 37.0009 25.372C37.2816 25.2489 37.5345 25.0693 37.7443 24.844C38.1964 24.3688 38.4224 23.7241 38.4224 22.9099C38.411 22.0951 38.1882 21.458 37.7426 20.9922Z" fill="#111827"/>
<path d="M45.3907 27.7327C44.5773 27.2976 43.9036 26.6363 43.449 25.8266C42.9639 24.9408 42.7203 23.9404 42.7432 22.9279C42.7227 21.9176 42.9698 20.9201 43.4588 20.0391C43.9189 19.225 44.5986 18.5604 45.4183 18.123C46.2836 17.6846 47.238 17.4563 48.2056 17.4563C49.1733 17.4563 50.1277 17.6846 50.993 18.123C51.8131 18.5598 52.4929 19.2245 52.9525 20.0391C53.4423 20.9198 53.6894 21.9175 53.6681 22.9279C53.6893 23.9396 53.4386 24.9381 52.9428 25.8167C52.4773 26.6329 51.7912 27.2976 50.9653 27.7327C50.1016 28.1854 49.1408 28.415 48.1682 28.401C47.2018 28.4167 46.2468 28.187 45.3907 27.7327ZM49.7408 24.8916C50.1744 24.434 50.3913 23.7794 50.3913 22.9279C50.3913 22.0763 50.1815 21.4217 49.7619 20.9641C49.5624 20.7484 49.3213 20.5763 49.0537 20.4583C48.786 20.3403 48.4973 20.279 48.2053 20.2781C47.9134 20.2771 47.6243 20.3366 47.3559 20.4529C47.0875 20.5692 46.8454 20.7398 46.6445 20.9543C46.2303 21.4053 46.0227 22.0637 46.0217 22.9295C46.0206 23.7954 46.2249 24.4499 46.6347 24.8933C46.8254 25.1144 47.0618 25.2904 47.327 25.409C47.5922 25.5276 47.88 25.5859 48.1699 25.5797C48.4648 25.5832 48.7571 25.5238 49.0278 25.4052C49.2985 25.2867 49.5414 25.1117 49.7408 24.8916Z" fill="#111827"/>
<path d="M61.599 28.248L59.5826 25.2933L57.8929 28.248H54.4031L57.8685 22.816L54.3153 17.6144H57.9254L59.9419 20.551L61.6332 17.6144H65.1181L61.5958 22.9723L65.2108 28.248H61.599Z" fill="#111827"/>
<path d="M24.2711 0.108583H3.67848C2.70328 0.109889 1.7684 0.502592 1.07883 1.20058C0.389258 1.89856 0.0012908 2.84486 0 3.83196L0 24.676C0.000860495 25.6634 0.388638 26.6101 1.07825 27.3084C1.76787 28.0068 2.703 28.3997 3.67848 28.401H24.2711C25.2469 28.4001 26.1824 28.0074 26.8724 27.309C27.5624 26.6106 27.9504 25.6636 27.9512 24.676V3.83196C27.9499 2.84458 27.5617 1.89803 26.8718 1.2C26.1819 0.501964 25.2466 0.109454 24.2711 0.108583ZM24.2711 2.62376C24.5878 2.62376 24.8916 2.751 25.1157 2.97753C25.3398 3.20407 25.4659 3.51137 25.4664 3.83196V23.0316L25.4501 23.02C23.7215 25.0562 20.6512 26.2397 18.0623 25.4068C17.0134 25.0694 15.9921 24.3303 14.8424 24.4883C14.1447 24.5838 13.5414 25.0118 12.9267 25.3591C12.0274 25.8677 10.6582 26.1969 10.0174 25.122C9.80152 24.7165 9.70714 24.256 9.74585 23.797C9.79789 22.5394 10.3687 21.3592 11.0647 20.3156C12.5738 18.0522 14.5448 16.0786 15.7482 13.6145C15.8571 13.3906 15.971 12.9988 15.636 12.956C15.4197 12.9231 15.1335 13.0844 14.9513 13.1865C14.3626 13.5157 13.813 13.9931 13.2633 14.3865C11.9981 15.2852 10.7427 16.1971 9.44012 17.0366C8.21234 17.83 6.913 18.5773 5.48844 18.9312C4.92252 19.0728 4.20862 19.1485 3.71913 18.7568C3.39389 18.5 3.24753 18.0786 3.19224 17.6671C3.14223 17.3279 3.15603 16.9822 3.2329 16.6482C3.44268 15.7757 4.12406 15.0844 4.37124 14.2202C4.71437 12.9906 3.95493 12.1709 3.49309 11.1273C3.00221 9.99155 2.71848 8.77526 2.65559 7.53723C2.56127 5.90599 2.81821 4.30438 3.21663 2.7291C3.36464 2.66496 3.52398 2.63192 3.68498 2.63199L24.2711 2.62376ZM2.95319 2.87396C3.03111 2.81286 3.11635 2.76197 3.20688 2.72252L2.95319 2.87396Z" fill="#7C4BFF"/>
<path d="M25.4094 3.48628C25.4457 3.5979 25.4649 3.71447 25.4663 3.83196V23.0316L25.4501 23.02C23.7214 25.0562 20.6511 26.2397 18.0622 25.4068C17.0133 25.0694 15.9921 24.3303 14.8423 24.4883C14.1447 24.5838 13.5414 25.0118 12.9267 25.3591C12.0274 25.8677 10.6581 26.1969 10.0174 25.122C9.80147 24.7165 9.70709 24.256 9.7458 23.797C9.79784 22.5394 10.3686 21.3592 11.0647 20.3156C12.5738 18.0522 14.5447 16.0803 15.7481 13.6145C15.8343 13.4367 15.9205 13.1552 15.7855 13.0202L1.22611 27.443C1.89793 28.059 2.77191 28.4005 3.67842 28.401H24.2711C25.2468 28.4001 26.1824 28.0074 26.8723 27.309C27.5623 26.6106 27.9503 25.6636 27.9512 24.676V3.83196C27.9503 3.05194 27.7062 2.29211 27.2535 1.66081L25.4094 3.48628Z" fill="#5C43D6"/>
<path d="M19.2836 15.435C20.9 12.8474 21.7229 9.88118 21.9359 7.00388C21.9486 6.93851 21.9441 6.87094 21.9229 6.80787C21.9018 6.74479 21.8647 6.68841 21.8154 6.64431C21.7661 6.60022 21.7063 6.56995 21.6418 6.5565C21.5774 6.54306 21.5106 6.54691 21.4481 6.56767C18.6477 7.09935 15.8246 8.25159 13.4601 10.161C12.3771 11.0367 13.9203 11.1898 14.5237 11.3133C15.3579 11.4927 16.2409 11.6425 16.8719 12.2186C17.4996 12.7914 17.7501 13.6638 18.0103 14.4819C18.2217 15.0844 18.5388 16.6267 19.2836 15.435Z" fill="#FF5C1B"/>
<path d="M16.6296 11.9241C16.7163 11.9729 16.7995 12.0279 16.8784 12.0887C17.5062 12.6599 17.7566 13.5323 18.0249 14.3504C18.2184 14.9429 18.5372 16.4804 19.2787 15.2952C20.8952 12.706 21.718 9.73976 21.9311 6.8641C21.9367 6.80032 21.9301 6.73603 21.9115 6.67481L16.6296 11.9241Z" fill="#E05828"/>
</svg>
