<svg width="16" height="16" viewBox="0 0 16 16" fill="none" xmlns="http://www.w3.org/2000/svg">
<path d="M8.35356 13.2426L13.4181 8.17813C14.6625 6.93373 14.8461 4.88651 13.6684 3.57874C13.3735 3.25022 13.0146 2.98524 12.6139 2.79998C12.2131 2.61471 11.7788 2.51304 11.3374 2.50117C10.8961 2.48931 10.4569 2.56749 10.0468 2.73095C9.63665 2.8944 9.26411 3.13971 8.95191 3.45191L8 4.40381L7.17813 3.58194C5.93374 2.33753 3.88651 2.15394 2.57874 3.33157C2.25022 3.62654 1.98524 3.98536 1.79998 4.38613C1.61471 4.78689 1.51304 5.2212 1.50117 5.66256C1.48931 6.10392 1.56749 6.54307 1.73094 6.95321C1.8944 7.36335 2.13971 7.73589 2.45191 8.0481L7.64645 13.2426C7.74022 13.3364 7.86739 13.3891 8 13.3891C8.13261 13.3891 8.25979 13.3364 8.35356 13.2426V13.2426Z" stroke="black" stroke-linecap="round" stroke-linejoin="round"/>
</svg>
