<svg width="20" height="20" viewBox="0 0 20 20" fill="none" xmlns="http://www.w3.org/2000/svg">
<g clip-path="url(#clip0_0_151)">
<path fill-rule="evenodd" clip-rule="evenodd" d="M8.71432 0.376994C7.05676 0.641886 5.4958 1.33066 4.18283 2.37651C2.86987 3.42236 1.84948 4.78978 1.22065 6.34614C0.591811 7.90249 0.375871 9.59495 0.593775 11.2593C0.811678 12.9237 1.45603 14.5035 2.46432 15.8456L0.242895 18.2299C0.123419 18.358 0.0439937 18.5182 0.0143897 18.6909C-0.0152143 18.8635 0.00629399 19.0411 0.0762688 19.2016C0.146244 19.3622 0.261633 19.4989 0.408243 19.5948C0.554854 19.6906 0.726291 19.7416 0.901466 19.7413H9.85718C12.4168 19.7802 14.8939 18.836 16.7782 17.1032C18.6625 15.3704 19.8105 12.9809 19.9858 10.427C20.0484 8.98293 19.7892 7.543 19.2268 6.21147C18.6644 4.87994 17.8129 3.69013 16.7341 2.72819C15.6552 1.76625 14.376 1.05625 12.9889 0.649604C11.6019 0.242958 10.1418 0.149841 8.71432 0.376994Z" fill="#9CA3AF"/>
</g>
<defs>
<clipPath id="clip0_0_151">
<rect width="20" height="20" fill="white"/>
</clipPath>
</defs>
</svg>
