<svg width="20" height="18" viewBox="0 0 20 18" fill="none" xmlns="http://www.w3.org/2000/svg">
<path d="M14.3699 0.00142795C13.5057 0.0210675 12.6586 0.245841 11.8985 0.657213C11.1383 1.06859 10.4868 1.65477 9.99768 2.36743C9.50947 1.65511 8.85897 1.069 8.09981 0.657395C7.34065 0.245788 6.49454 0.0204672 5.63121 0C4.09711 0.0842494 2.65498 0.758388 1.60647 1.88142C0.557949 3.00445 -0.0157512 4.48939 0.00535572 6.02567V6.12562C-0.00178524 6.20637 -0.00178524 6.2876 0.00535572 6.36836C0.276653 14.4645 10.0005 17.7914 10.0005 17.7914C10.0005 17.7914 19.7201 14.4645 19.9957 6.36836C20.0014 6.28754 20.0014 6.20643 19.9957 6.12562V6.02567C20.0161 4.48974 19.4421 3.00535 18.3937 1.88271C17.3453 0.76006 15.9036 0.0860157 14.3699 0.00142795Z" fill="#9CA3AF"/>
</svg>
