<svg width="32" height="32" viewBox="0 0 32 32" fill="none" xmlns="http://www.w3.org/2000/svg">
<path fill-rule="evenodd" clip-rule="evenodd" d="M15.9998 2.16663C8.37735 2.16663 2.1665 8.36349 2.1665 16C2.1665 23.6228 8.37703 29.8333 15.9998 29.8333C23.6363 29.8333 29.8332 23.6224 29.8332 16C29.8332 8.49315 23.8443 2.37713 16.3866 2.17194L16.3866 2.17189L16.3797 2.1718L16.0067 2.16667L16.0067 2.16663H15.9998ZM3.1665 16C3.1665 8.91756 8.92714 3.16847 15.9964 3.16663L16.3625 3.17166C23.2788 3.36376 28.8332 9.03741 28.8332 16C28.8332 23.0708 23.0834 28.8333 15.9998 28.8333C8.92931 28.8333 3.1665 23.0705 3.1665 16ZM18.6398 21.3335C19.0265 20.9335 19.0265 20.3068 18.6265 19.9202L14.6931 16.0002L18.6265 12.0802C19.0265 11.6935 19.0265 11.0535 18.6398 10.6668C18.2398 10.2668 17.6131 10.2668 17.2265 10.6668L12.5731 15.2935C12.3865 15.4802 12.2798 15.7335 12.2798 16.0002C12.2798 16.2668 12.3865 16.5202 12.5731 16.7068L17.2265 21.3335C17.4131 21.5335 17.6665 21.6268 17.9198 21.6268C18.1865 21.6268 18.4398 21.5335 18.6398 21.3335Z" fill="#7C4BFF"/>
</svg>
