<svg width="71" height="29" viewBox="0 0 71 29" fill="none" xmlns="http://www.w3.org/2000/svg">
<path d="M30.8298 3.02376C30.6575 2.86636 30.5204 2.67342 30.4278 2.45792C30.3352 2.24242 30.2893 2.00936 30.2932 1.77441C30.2877 1.53656 30.3328 1.30031 30.4254 1.08164C30.518 0.862964 30.6559 0.666978 30.8298 0.506943C31.2083 0.162197 31.705 -0.0191512 32.2137 0.00160386C32.7168 -0.0173687 33.2073 0.164057 33.5797 0.506943C33.7537 0.666978 33.8916 0.862964 33.9842 1.08164C34.0767 1.30031 34.1218 1.53656 34.1164 1.77441C34.1202 2.00936 34.0743 2.24242 33.9817 2.45792C33.8892 2.67342 33.7521 2.86636 33.5797 3.02376C33.2073 3.36665 32.7168 3.54807 32.2137 3.5291C31.705 3.54986 31.2083 3.36851 30.8298 3.02376ZM33.8155 4.63525V15.2737H30.594V4.63525H33.8155Z" fill="#111827"/>
<path d="M36.1228 7.05804C36.4906 6.27687 37.0682 5.61629 37.7896 5.1519C38.495 4.70529 39.3124 4.47331 40.1444 4.4836C40.8006 4.47612 41.4493 4.62617 42.0373 4.92145C42.5804 5.19031 43.0446 5.59832 43.3838 6.10497V1.1668H46.6053V15.2751H43.3838V13.7509C43.0722 14.2692 42.6262 14.6911 42.0942 14.9706C41.4917 15.2859 40.8208 15.4433 40.1427 15.4282C39.3097 15.438 38.4917 15.203 37.788 14.7517C37.0659 14.2795 36.4886 13.6125 36.1211 12.8258C35.6976 11.9242 35.4877 10.9351 35.5081 9.93699C35.4875 8.94187 35.6981 7.95576 36.1228 7.05804ZM42.7154 8.03086C42.5051 7.80939 42.253 7.63301 41.9739 7.51223C41.6949 7.39145 41.3947 7.32873 41.0913 7.32781C40.7878 7.32689 40.4872 7.38778 40.2075 7.50687C39.9278 7.62595 39.6746 7.80079 39.463 8.02098C39.0174 8.48517 38.7946 9.12384 38.7946 9.93699C38.7946 10.7501 39.0174 11.3954 39.463 11.8728C39.6725 12.0961 39.9247 12.2739 40.2043 12.3955C40.4839 12.517 40.7849 12.5797 41.0892 12.5797C41.3935 12.5797 41.6945 12.517 41.9741 12.3955C42.2537 12.2739 42.5059 12.0961 42.7154 11.8728C43.161 11.4042 43.3838 10.7628 43.3838 9.94851C43.3838 9.13426 43.161 8.49504 42.7154 8.03086Z" fill="#111827"/>
<path d="M58.7924 10.7364H51.5021C51.552 11.3948 51.7623 11.9002 52.1331 12.2524C52.5026 12.6023 52.9933 12.791 53.4991 12.7775C54.3025 12.7775 54.8613 12.434 55.1757 11.7471H58.6038C58.431 12.4408 58.1058 13.0862 57.6524 13.6351C57.1852 14.2021 56.5954 14.6526 55.9287 14.952C55.2 15.2789 54.4099 15.4418 53.6129 15.4293C52.6545 15.4473 51.7074 15.2173 50.8614 14.761C50.0647 14.3234 49.4106 13.6613 48.9783 12.8549C48.5099 11.9636 48.2758 10.9654 48.2985 9.95618C48.2754 8.94826 48.5053 7.95089 48.9669 7.05747C49.3943 6.25017 50.0462 5.58745 50.8419 5.15134C51.6908 4.71532 52.6287 4.48644 53.5806 4.48301C54.5324 4.47958 55.4719 4.70169 56.3238 5.13159C57.1046 5.55498 57.7487 6.19663 58.1793 6.98011C58.6383 7.83836 58.8686 8.80273 58.8477 9.7784C58.8474 10.0985 58.829 10.4184 58.7924 10.7364ZM55.553 8.92575C55.5637 8.67451 55.5184 8.42406 55.4204 8.19297C55.3224 7.96188 55.1743 7.75607 54.9871 7.59079C54.5929 7.25446 54.0892 7.07845 53.5739 7.09698C53.0768 7.08208 52.5915 7.25188 52.2095 7.57433C51.8223 7.92336 51.5772 8.40561 51.5216 8.92739L55.553 8.92575Z" fill="#111827"/>
<path d="M60.5158 7.0564C60.8836 6.27523 61.4613 5.61466 62.1826 5.15027C62.888 4.70365 63.7054 4.47168 64.5374 4.48197C65.2154 4.46695 65.8864 4.62429 66.4888 4.93958C67.017 5.21638 67.4623 5.63129 67.7784 6.1412V4.63505H70.9999V15.2735H67.7768V13.7674C67.4524 14.2744 67.0043 14.6883 66.4758 14.969C65.8734 15.2844 65.2024 15.4418 64.5244 15.4266C63.6977 15.4346 62.8865 15.1995 62.1891 14.7501C61.4671 14.2779 60.8897 13.6108 60.5223 12.8242C60.0988 11.9226 59.8889 10.9335 59.9092 9.93536C59.8861 8.94089 60.0939 7.95482 60.5158 7.0564ZM67.1084 8.02922C66.8981 7.80776 66.646 7.63138 66.3669 7.5106C66.0879 7.38982 65.7877 7.3271 65.4843 7.32618C65.1808 7.32525 64.8803 7.38615 64.6005 7.50523C64.3208 7.62432 64.0676 7.79916 63.856 8.01935C63.4104 8.48353 63.1876 9.1222 63.1876 9.93536C63.1876 10.7485 63.4104 11.3938 63.856 11.8711C64.0655 12.0945 64.3177 12.2723 64.5973 12.3938C64.8769 12.5153 65.178 12.578 65.4822 12.578C65.7865 12.578 66.0876 12.5153 66.3671 12.3938C66.6467 12.2723 66.8989 12.0945 67.1084 11.8711C67.554 11.4025 67.7768 10.7611 67.7768 9.94688C67.7768 9.13263 67.554 8.49341 67.1084 8.02922Z" fill="#111827"/>
<path d="M35.1147 17.9132C35.713 17.597 36.3799 17.4374 37.0548 17.449C37.8856 17.4368 38.7026 17.6652 39.4095 18.1074C40.1301 18.5734 40.7075 19.2343 41.0764 20.0152C41.5007 20.913 41.7107 21.8992 41.6894 22.8942C41.7099 23.8918 41.5 24.8804 41.0764 25.7814C40.7084 26.5677 40.1312 27.2346 39.4095 27.7072C38.7061 28.1596 37.888 28.3952 37.0548 28.3854C36.3812 28.4014 35.7144 28.2469 35.1147 27.9361C34.5855 27.6608 34.137 27.2499 33.8137 26.7443V28.2258H30.5938V16.7116H33.8154V19.1148C34.1327 18.6023 34.5819 18.1869 35.1147 17.9132ZM37.7426 20.9913C37.5315 20.767 37.2766 20.5894 36.9942 20.4698C36.7118 20.3503 36.4079 20.2913 36.1018 20.2967C35.7971 20.2923 35.4949 20.3528 35.2148 20.4741C34.9346 20.5955 34.6828 20.7751 34.4756 21.0012C34.03 21.472 33.8072 22.1139 33.8072 22.9271C33.8072 23.7403 34.03 24.3839 34.4756 24.853C34.6867 25.077 34.9407 25.2551 35.222 25.3765C35.5034 25.4979 35.8062 25.5601 36.112 25.5592C36.4179 25.5582 36.7203 25.4943 37.0009 25.3712C37.2816 25.2481 37.5345 25.0684 37.7443 24.8431C38.1964 24.3679 38.4224 23.7232 38.4224 22.909C38.411 22.0942 38.1882 21.4572 37.7426 20.9913Z" fill="#111827"/>
<path d="M45.3907 27.7328C44.5773 27.2977 43.9036 26.6364 43.449 25.8267C42.9639 24.941 42.7203 23.9405 42.7432 22.928C42.7227 21.9177 42.9698 20.9202 43.4588 20.0392C43.9189 19.2251 44.5986 18.5605 45.4183 18.1232C46.2836 17.6847 47.238 17.4564 48.2056 17.4564C49.1733 17.4564 50.1277 17.6847 50.993 18.1232C51.8131 18.5599 52.4929 19.2247 52.9525 20.0392C53.4423 20.9199 53.6894 21.9176 53.6681 22.928C53.6893 23.9397 53.4386 24.9382 52.9428 25.8168C52.4773 26.633 51.7912 27.2978 50.9653 27.7328C50.1016 28.1855 49.1408 28.4151 48.1682 28.4011C47.2018 28.4169 46.2468 28.1871 45.3907 27.7328ZM49.7408 24.8918C50.1744 24.4342 50.3913 23.7796 50.3913 22.928C50.3913 22.0765 50.1815 21.4219 49.7619 20.9643C49.5624 20.7486 49.3213 20.5764 49.0537 20.4584C48.786 20.3404 48.4973 20.2791 48.2053 20.2782C47.9134 20.2773 47.6243 20.3368 47.3559 20.4531C47.0875 20.5693 46.8454 20.7399 46.6445 20.9544C46.2303 21.4054 46.0227 22.0638 46.0217 22.9297C46.0206 23.7955 46.2249 24.4501 46.6347 24.8934C46.8254 25.1145 47.0618 25.2906 47.327 25.4092C47.5922 25.5278 47.88 25.586 48.1699 25.5798C48.4648 25.5833 48.7571 25.5239 49.0278 25.4053C49.2985 25.2868 49.5414 25.1118 49.7408 24.8918Z" fill="#111827"/>
<path d="M61.5989 28.2484L59.5824 25.2938L57.8928 28.2484H54.403L57.8684 22.8165L54.3152 17.6149H57.9253L59.9418 20.5515L61.6331 17.6149H65.118L61.5957 22.9728L65.2107 28.2484H61.5989Z" fill="#111827"/>
<path d="M24.2711 0.108954H3.67848C2.70328 0.110261 1.7684 0.502964 1.07883 1.20095C0.389258 1.89894 0.0012908 2.84523 0 3.83233L0 24.6763C0.000860495 25.6637 0.388638 26.6104 1.07825 27.3088C1.76787 28.0071 2.703 28.4001 3.67848 28.4014H24.2711C25.2469 28.4005 26.1824 28.0078 26.8724 27.3094C27.5624 26.611 27.9504 25.664 27.9512 24.6763V3.83233C27.9499 2.84495 27.5617 1.8984 26.8718 1.20037C26.1819 0.502336 25.2466 0.109825 24.2711 0.108954ZM24.2711 2.62413C24.5878 2.62413 24.8916 2.75137 25.1157 2.9779C25.3398 3.20444 25.4659 3.51175 25.4664 3.83233V23.0319L25.4501 23.0204C23.7215 25.0566 20.6512 26.2401 18.0623 25.4072C17.0134 25.0697 15.9921 24.3307 14.8424 24.4887C14.1447 24.5842 13.5414 25.0121 12.9267 25.3595C12.0274 25.8681 10.6582 26.1973 10.0174 25.1224C9.80152 24.7169 9.70714 24.2564 9.74585 23.7973C9.79789 22.5398 10.3687 21.3595 11.0647 20.3159C12.5738 18.0526 14.5448 16.079 15.7482 13.6148C15.8571 13.391 15.971 12.9992 15.636 12.9564C15.4197 12.9235 15.1335 13.0848 14.9513 13.1869C14.3626 13.5161 13.813 13.9934 13.2633 14.3868C11.9981 15.2856 10.7427 16.1975 9.44012 17.037C8.21234 17.8304 6.913 18.5777 5.48844 18.9316C4.92252 19.0732 4.20862 19.1489 3.71913 18.7571C3.39389 18.5003 3.24753 18.0789 3.19224 17.6674C3.14223 17.3282 3.15603 16.9825 3.2329 16.6485C3.44268 15.7761 4.12406 15.0848 4.37124 14.2206C4.71437 12.991 3.95493 12.1713 3.49309 11.1277C3.00221 9.99192 2.71848 8.77563 2.65559 7.5376C2.56127 5.90636 2.81821 4.30475 3.21663 2.72948C3.36464 2.66533 3.52398 2.63229 3.68498 2.63236L24.2711 2.62413ZM2.95319 2.87433C3.03111 2.81323 3.11635 2.76235 3.20688 2.72289L2.95319 2.87433Z" fill="#7C4BFF"/>
<path d="M25.4095 3.48554C25.4458 3.59715 25.465 3.71373 25.4665 3.83121V23.0308L25.4502 23.0193C23.7215 25.0555 20.6513 26.239 18.0623 25.4061C17.0134 25.0686 15.9922 24.3295 14.8425 24.4876C14.1448 24.583 13.5415 25.011 12.9268 25.3583C12.0275 25.867 10.6582 26.1962 10.0175 25.1213C9.80159 24.7157 9.70722 24.2553 9.74592 23.7962C9.79796 22.5386 10.3688 21.3584 11.0648 20.3148C12.5739 18.0515 14.5449 16.0795 15.7482 13.6137C15.8344 13.4359 15.9206 13.1545 15.7857 13.0195L1.22623 27.4422C1.89805 28.0583 2.77204 28.3997 3.67855 28.4002H24.2712C25.247 28.3994 26.1825 28.0066 26.8725 27.3082C27.5624 26.6099 27.9504 25.6629 27.9513 24.6752V3.83121C27.9504 3.05119 27.7063 2.29136 27.2537 1.66007L25.4095 3.48554Z" fill="#5C43D6"/>
<path d="M19.2835 15.4355C20.8999 12.8479 21.7228 9.88168 21.9358 7.00437C21.9484 6.93901 21.944 6.87143 21.9228 6.80836C21.9017 6.74529 21.8646 6.6889 21.8153 6.64481C21.766 6.60072 21.7061 6.57044 21.6417 6.557C21.5773 6.54355 21.5105 6.5474 21.4479 6.56817C18.6476 7.09984 15.8245 8.25208 13.46 10.1615C12.377 11.0372 13.9202 11.1903 14.5235 11.3137C15.3578 11.4932 16.2408 11.643 16.8718 12.2191C17.4995 12.7919 17.7499 13.6643 18.0101 14.4824C18.2215 15.0849 18.5386 16.6272 19.2835 15.4355Z" fill="#FF5C1B"/>
<path d="M16.6294 11.9232C16.7161 11.9721 16.7992 12.0271 16.8782 12.0878C17.5059 12.659 17.7563 13.5314 18.0247 14.3495C18.2182 14.9421 18.5369 16.4795 19.2785 15.2943C20.8949 12.7051 21.7178 9.73889 21.9308 6.86324C21.9365 6.79945 21.9299 6.73516 21.9113 6.67394L16.6294 11.9232Z" fill="#E05828"/>
</svg>
