<svg width="22" height="22" viewBox="0 0 22 22" fill="none" xmlns="http://www.w3.org/2000/svg">
<path d="M3.90404 15.2107C2.87903 13.4828 2.52006 11.4401 2.89454 9.46627C3.26902 7.49241 4.35119 5.72316 5.93784 4.49073C7.52448 3.2583 9.50646 2.64747 11.5116 2.77294C13.5167 2.89842 15.4071 3.75157 16.8277 5.17219C18.2484 6.59281 19.1015 8.48317 19.227 10.4883C19.3525 12.4935 18.7417 14.4754 17.5093 16.0621C16.2768 17.6487 14.5076 18.7309 12.5337 19.1054C10.5599 19.4799 8.5172 19.1209 6.78928 18.0959L6.7893 18.0959L3.93991 18.91C3.82202 18.9436 3.69727 18.9452 3.57858 18.9144C3.45989 18.8837 3.35159 18.8217 3.26489 18.7351C3.1782 18.6484 3.11626 18.5401 3.08551 18.4214C3.05476 18.3027 3.0563 18.1779 3.08998 18.06L3.9041 15.2106L3.90404 15.2107Z" stroke="#374151" stroke-width="2" stroke-linecap="round" stroke-linejoin="round"/>
</svg>
