<svg width="20" height="20" viewBox="0 0 20 20" fill="none" xmlns="http://www.w3.org/2000/svg">
<g clip-path="url(#clip0_0_561)">
<path d="M0 2.13146V17.87C0.00184001 18.33 0.1844 18.7708 0.508304 19.0974C0.832208 19.4239 1.2715 19.6101 1.73143 19.6157H2.42857C2.89107 19.615 3.33436 19.4307 3.66113 19.1034C3.9879 18.7761 4.17143 18.3325 4.17143 17.87V2.13146C4.17143 1.66896 3.9879 1.22536 3.66113 0.898059C3.33436 0.570756 2.89107 0.386499 2.42857 0.385742H1.73C1.27032 0.391733 0.831392 0.578073 0.507795 0.90461C0.184198 1.23115 0.00183431 1.67174 0 2.13146H0Z" fill="#6B7280"/>
<path d="M7.91113 11.3099V17.8699C7.91297 18.3298 8.09553 18.7706 8.41944 19.0972C8.74334 19.4238 9.18263 19.61 9.64256 19.6156H10.3454C10.8079 19.6148 11.2512 19.4306 11.578 19.1033C11.9047 18.776 12.0883 18.3324 12.0883 17.8699V11.3099C12.0864 10.8486 11.902 10.4068 11.5755 10.0811C11.2489 9.75532 10.8067 9.57204 10.3454 9.57129H9.64113C9.18268 9.57725 8.74482 9.76261 8.42142 10.0876C8.09802 10.4126 7.91483 10.8514 7.91113 11.3099Z" fill="#6B7280"/>
<path d="M15.8232 6.32534V17.8696C15.8251 18.3296 16.0076 18.7704 16.3315 19.097C16.6555 19.4235 17.0947 19.6097 17.5547 19.6153H18.2575C18.72 19.6146 19.1633 19.4303 19.4901 19.103C19.8169 18.7757 20.0004 18.3321 20.0004 17.8696V6.32534C20 5.86309 19.8163 5.41986 19.4896 5.09287C19.1629 4.76587 18.7198 4.58181 18.2575 4.58105H17.5532C17.0937 4.58667 16.6548 4.7727 16.3311 5.09901C16.0075 5.42532 15.8251 5.86576 15.8232 6.32534Z" fill="#6B7280"/>
</g>
<defs>
<clipPath id="clip0_0_561">
<rect width="20" height="20" fill="white"/>
</clipPath>
</defs>
</svg>
