<svg width="70" height="29" viewBox="0 0 70 29" fill="none" xmlns="http://www.w3.org/2000/svg">
<path d="M30.3967 2.98124C30.2268 2.82604 30.0916 2.63582 30.0004 2.42335C29.9091 2.21088 29.8638 1.9811 29.8676 1.74945C29.8622 1.51495 29.9067 1.28202 29.998 1.06642C30.0893 0.850828 30.2253 0.657598 30.3967 0.499814C30.7699 0.159916 31.2596 -0.0188818 31.7612 0.00158131C32.2572 -0.0171245 32.7407 0.16175 33.108 0.499814C33.2794 0.657598 33.4154 0.850828 33.5067 1.06642C33.598 1.28202 33.6424 1.51495 33.6371 1.74945C33.6408 1.9811 33.5956 2.21088 33.5043 2.42335C33.4131 2.63582 33.2779 2.82604 33.108 2.98124C32.7407 3.3193 32.2572 3.49818 31.7612 3.47947C31.2596 3.49993 30.7699 3.32114 30.3967 2.98124ZM33.3405 4.57006V15.0589H30.1642V4.57006H33.3405Z" fill="#111827"/>
<path d="M35.6152 6.95682C35.9779 6.18664 36.5474 5.53535 37.2586 5.07749C37.9541 4.63716 38.76 4.40844 39.5803 4.41859C40.2273 4.41121 40.8669 4.55915 41.4466 4.85029C41.9821 5.11536 42.4397 5.51764 42.7741 6.01716V1.14844H45.9503V15.0584H42.7741V13.5556C42.4669 14.0666 42.0272 14.4825 41.5027 14.7581C40.9087 15.069 40.2472 15.2241 39.5787 15.2093C38.7573 15.219 37.9509 14.9873 37.257 14.5423C36.5451 14.0768 35.9759 13.4191 35.6136 12.6435C35.1961 11.7546 34.9891 10.7793 35.0092 9.79528C34.9889 8.81416 35.1965 7.84192 35.6152 6.95682ZM42.1151 7.91596C41.9078 7.6976 41.6592 7.52371 41.3841 7.40463C41.109 7.28554 40.813 7.22371 40.5138 7.2228C40.2146 7.22189 39.9183 7.28193 39.6425 7.39934C39.3667 7.51675 39.1171 7.68913 38.9085 7.90622C38.4692 8.36388 38.2495 8.99357 38.2495 9.79528C38.2495 10.597 38.4692 11.2332 38.9085 11.7038C39.115 11.924 39.3637 12.0994 39.6393 12.2192C39.915 12.339 40.2118 12.4008 40.5118 12.4008C40.8118 12.4008 41.1086 12.339 41.3843 12.2192C41.6599 12.0994 41.9086 11.924 42.1151 11.7038C42.5545 11.2418 42.7741 10.6094 42.7741 9.80664C42.7741 9.00384 42.5545 8.37362 42.1151 7.91596Z" fill="#111827"/>
<path d="M57.9651 10.5854H50.7773C50.8265 11.2346 51.0339 11.7328 51.3994 12.0801C51.7637 12.4251 52.2475 12.6111 52.7462 12.5978C53.5383 12.5978 54.0893 12.2592 54.3993 11.5819H57.7791C57.6087 12.2659 57.2881 12.9021 56.8411 13.4433C56.3805 14.0023 55.799 14.4466 55.1416 14.7417C54.4232 15.0641 53.6442 15.2246 52.8585 15.2123C51.9135 15.23 50.9797 15.0032 50.1456 14.5534C49.3602 14.122 48.7152 13.4691 48.2889 12.6741C47.8271 11.7954 47.5963 10.8112 47.6188 9.81615C47.5959 8.82241 47.8227 7.83907 48.2777 6.95822C48.6991 6.16227 49.3419 5.50887 50.1264 5.07889C50.9633 4.649 51.888 4.42334 52.8265 4.41996C53.765 4.41658 54.6913 4.63557 55.5312 5.05942C56.301 5.47686 56.936 6.10948 57.3606 6.88194C57.8131 7.72812 58.0402 8.67893 58.0196 9.64088C58.0193 9.95652 58.0011 10.2719 57.9651 10.5854ZM54.7712 8.80022C54.7818 8.55251 54.7371 8.30559 54.6405 8.07775C54.5439 7.8499 54.3979 7.64699 54.2133 7.48404C53.8246 7.15243 53.328 6.9789 52.82 6.99717C52.3298 6.98248 51.8513 7.14989 51.4748 7.46781C51.093 7.81193 50.8513 8.2874 50.7966 8.80184L54.7712 8.80022Z" fill="#111827"/>
<path d="M59.6642 6.95716C60.0268 6.18698 60.5964 5.53569 61.3076 5.07784C62.0031 4.6375 62.809 4.40879 63.6293 4.41894C64.2978 4.40413 64.9593 4.55925 65.5533 4.87011C66.074 5.14302 66.513 5.55209 66.8247 6.05483V4.56987H70.0009V15.0587H66.8231V13.5738C66.5032 14.0737 66.0615 14.4817 65.5404 14.7585C64.9465 15.0695 64.285 15.2246 63.6164 15.2096C62.8014 15.2175 62.0016 14.9858 61.314 14.5426C60.6021 14.0771 60.0329 13.4194 59.6706 12.6438C59.2531 11.7549 59.0461 10.7797 59.0662 9.79563C59.0434 8.81515 59.2483 7.84294 59.6642 6.95716ZM66.1641 7.9163C65.9568 7.69795 65.7082 7.52405 65.4331 7.40497C65.158 7.28589 64.862 7.22405 64.5628 7.22314C64.2636 7.22223 63.9673 7.28227 63.6915 7.39968C63.4157 7.51709 63.1661 7.68947 62.9575 7.90656C62.5181 8.36422 62.2985 8.99391 62.2985 9.79563C62.2985 10.5973 62.5181 11.2335 62.9575 11.7042C63.164 11.9244 63.4127 12.0997 63.6883 12.2195C63.964 12.3393 64.2608 12.4011 64.5608 12.4011C64.8608 12.4011 65.1576 12.3393 65.4333 12.2195C65.7089 12.0997 65.9576 11.9244 66.1641 11.7042C66.6034 11.2422 66.8231 10.6098 66.8231 9.80699C66.8231 9.00419 66.6034 8.37396 66.1641 7.9163Z" fill="#111827"/>
<path d="M34.6213 17.6613C35.2112 17.3495 35.8688 17.1922 36.5341 17.2036C37.3533 17.1916 38.1588 17.4168 38.8557 17.8528C39.5662 18.3122 40.1355 18.9638 40.4992 19.7337C40.9175 20.6189 41.1245 21.5912 41.1036 22.5722C41.1238 23.5558 40.9168 24.5305 40.4992 25.4188C40.1364 26.194 39.5673 26.8516 38.8557 27.3176C38.1623 27.7636 37.3557 27.9959 36.5341 27.9862C35.87 28.002 35.2126 27.8497 34.6213 27.5432C34.0996 27.2718 33.6574 26.8666 33.3387 26.3682V27.8288H30.1641V16.4766H33.3403V18.846C33.6531 18.3407 34.096 17.9312 34.6213 17.6613ZM37.2123 20.6961C37.0041 20.4749 36.7529 20.2998 36.4744 20.182C36.1959 20.0641 35.8963 20.006 35.5946 20.0113C35.2942 20.0069 34.9962 20.0665 34.72 20.1862C34.4438 20.3059 34.1955 20.4829 33.9912 20.7059C33.5519 21.17 33.3323 21.8029 33.3323 22.6047C33.3323 23.4064 33.5519 24.0409 33.9912 24.5035C34.1994 24.7243 34.4498 24.8999 34.7271 25.0196C35.0045 25.1393 35.3031 25.2006 35.6046 25.1997C35.9062 25.1988 36.2044 25.1357 36.4811 25.0143C36.7577 24.893 37.0071 24.7158 37.2139 24.4937C37.6597 24.0252 37.8825 23.3896 37.8825 22.5868C37.8713 21.7835 37.6516 21.1554 37.2123 20.6961Z" fill="#111827"/>
<path d="M44.7523 27.3428C43.9503 26.9138 43.2861 26.2618 42.8379 25.4635C42.3596 24.5902 42.1195 23.6038 42.1421 22.6056C42.1219 21.6094 42.3655 20.626 42.8476 19.7574C43.3013 18.9547 43.9714 18.2995 44.7796 17.8683C45.6327 17.436 46.5736 17.2109 47.5277 17.2109C48.4817 17.2109 49.4227 17.436 50.2758 17.8683C51.0844 18.2989 51.7547 18.9543 52.2078 19.7574C52.6907 20.6257 52.9343 21.6093 52.9133 22.6056C52.9342 23.603 52.6871 24.5875 52.1982 25.4538C51.7392 26.2585 51.0629 26.9138 50.2485 27.3428C49.397 27.7891 48.4497 28.0155 47.4908 28.0017C46.5379 28.0172 45.5964 27.7907 44.7523 27.3428ZM49.0412 24.5417C49.4688 24.0905 49.6826 23.4451 49.6826 22.6056C49.6826 21.766 49.4757 21.1206 49.0621 20.6694C48.8653 20.4567 48.6277 20.287 48.3638 20.1707C48.0998 20.0544 47.8152 19.9939 47.5274 19.993C47.2395 19.9921 46.9545 20.0508 46.6899 20.1654C46.4252 20.2801 46.1866 20.4483 45.9885 20.6597C45.5802 21.1044 45.3755 21.7535 45.3744 22.6072C45.3733 23.4608 45.5748 24.1062 45.9789 24.5433C46.1669 24.7613 46.3999 24.9349 46.6614 25.0518C46.9229 25.1687 47.2066 25.2262 47.4924 25.2201C47.7832 25.2235 48.0714 25.1649 48.3383 25.048C48.6052 24.9311 48.8447 24.7586 49.0412 24.5417Z" fill="#111827"/>
<path d="M60.7321 27.8512L58.744 24.938L57.0781 27.8512H53.6374L57.0541 22.4956L53.5508 17.3672H57.1102L59.0983 20.2625L60.7658 17.3672H64.2017L60.7289 22.6497L64.2931 27.8512H60.7321Z" fill="#111827"/>
<path d="M23.9298 0.107422H3.62674C2.66526 0.10871 1.74352 0.49589 1.06365 1.18406C0.383784 1.87223 0.00127264 2.80522 0 3.77844L0 24.3293C0.000848393 25.3028 0.383172 26.2362 1.06309 26.9247C1.74301 27.6132 2.66498 28.0006 3.62674 28.0019H23.9298C24.8918 28.0011 25.8142 27.6139 26.4945 26.9253C27.1747 26.2367 27.5573 25.3031 27.5581 24.3293V3.77844C27.5568 2.80494 27.1741 1.8717 26.4939 1.18349C25.8137 0.495271 24.8915 0.108281 23.9298 0.107422ZM23.9298 2.58722C24.242 2.58722 24.5415 2.71267 24.7625 2.93602C24.9835 3.15937 25.1078 3.46236 25.1082 3.77844V22.708L25.0922 22.6967C23.3878 24.7042 20.3607 25.8711 17.8082 25.0499C16.7741 24.7172 15.7672 23.9885 14.6336 24.1443C13.9458 24.2384 13.351 24.6604 12.7449 25.0028C11.8583 25.5043 10.5083 25.8289 9.87654 24.7691C9.66367 24.3692 9.57062 23.9152 9.60879 23.4627C9.66009 22.2228 10.2229 21.0591 10.9091 20.0302C12.397 17.7987 14.3402 15.8529 15.5267 13.4234C15.6341 13.2027 15.7464 12.8164 15.4161 12.7742C15.2028 12.7417 14.9206 12.9008 14.7411 13.0014C14.1607 13.326 13.6187 13.7966 13.0768 14.1845C11.8294 15.0706 10.5916 15.9697 9.30736 16.7974C8.09684 17.5796 6.81578 18.3164 5.41125 18.6654C4.85329 18.8049 4.14943 18.8796 3.66683 18.4933C3.34616 18.2402 3.20186 17.8247 3.14735 17.419C3.09804 17.0845 3.11164 16.7437 3.18743 16.4144C3.39426 15.5542 4.06606 14.8726 4.30976 14.0206C4.64807 12.8083 3.89931 12.0001 3.44396 10.9712C2.95999 9.85139 2.68024 8.65221 2.61825 7.4316C2.52525 5.8233 2.77858 4.24421 3.1714 2.69109C3.31732 2.62785 3.47442 2.59527 3.63316 2.59534L23.9298 2.58722ZM2.91166 2.8339C2.98848 2.77366 3.07252 2.7235 3.16178 2.6846L2.91166 2.8339Z" fill="#7C4BFF"/>
<path d="M25.0522 3.43652C25.0879 3.54656 25.1069 3.6615 25.1083 3.77733V22.7069L25.0923 22.6955C23.3879 24.7031 20.3608 25.87 17.8083 25.0488C16.7742 24.7161 15.7673 23.9874 14.6337 24.1432C13.9459 24.2373 13.351 24.6593 12.745 25.0017C11.8583 25.5032 10.5083 25.8278 9.87661 24.768C9.66374 24.3681 9.57069 23.9141 9.60886 23.4616C9.66016 22.2217 10.2229 21.058 10.9092 20.0291C12.3971 17.7976 14.3403 15.8534 15.5268 13.4223C15.6117 13.247 15.6967 12.9695 15.5636 12.8364L1.20898 27.0563C1.87136 27.6637 2.73305 28.0003 3.62681 28.0008H23.9298C24.8919 28 25.8143 27.6128 26.4945 26.9242C27.1748 26.2356 27.5573 25.302 27.5582 24.3282V3.77733C27.5573 3.00828 27.3166 2.25914 26.8704 1.63672L25.0522 3.43652Z" fill="#5C43D6"/>
<path d="M19.0123 15.2184C20.606 12.6672 21.4173 9.7427 21.6273 6.90586C21.6398 6.84142 21.6353 6.7748 21.6145 6.71261C21.5937 6.65042 21.5571 6.59483 21.5085 6.55136C21.4599 6.50788 21.4009 6.47804 21.3373 6.46478C21.2738 6.45153 21.2079 6.45532 21.1463 6.47579C18.3853 6.99999 15.602 8.13602 13.2707 10.0186C12.2029 10.882 13.7245 11.0329 14.3193 11.1546C15.1418 11.3315 16.0124 11.4792 16.6345 12.0472C17.2534 12.612 17.5003 13.4721 17.7568 14.2787C17.9653 14.8727 18.2779 16.3934 19.0123 15.2184Z" fill="#FF5C1B"/>
<path d="M16.3965 11.7555C16.4819 11.8037 16.5639 11.8579 16.6418 11.9178C17.2607 12.481 17.5076 13.3411 17.7721 14.1477C17.9629 14.7319 18.2772 16.2477 19.0083 15.0792C20.602 12.5264 21.4133 9.60193 21.6234 6.76671C21.629 6.70383 21.6224 6.64044 21.6041 6.58008L16.3965 11.7555Z" fill="#E05828"/>
</svg>
