<svg width="14" height="14" viewBox="0 0 14 14" fill="none" xmlns="http://www.w3.org/2000/svg">
<g clip-path="url(#clip0_3092_81291)">
<path fill-rule="evenodd" clip-rule="evenodd" d="M3.49919 3.47028C3.6151 3.47028 3.72987 3.44743 3.83695 3.40305C3.94402 3.35866 4.0413 3.2936 4.12321 3.2116C4.20512 3.12959 4.27007 3.03224 4.31434 2.92512C4.3586 2.81799 4.38132 2.70319 4.38119 2.58728V0.995281C4.38119 0.879455 4.35837 0.764764 4.31405 0.657754C4.26973 0.550745 4.20476 0.453514 4.12286 0.371613C4.04095 0.289712 3.94372 0.224744 3.83671 0.180419C3.72971 0.136095 3.61501 0.113281 3.49919 0.113281C3.38336 0.113281 3.26867 0.136095 3.16166 0.180419C3.05465 0.224744 2.95742 0.289712 2.87552 0.371613C2.79362 0.453514 2.72865 0.550745 2.68433 0.657754C2.64 0.764764 2.61719 0.879455 2.61719 0.995281V2.58728C2.61706 2.70319 2.63977 2.81799 2.68404 2.92512C2.7283 3.03224 2.79325 3.12959 2.87517 3.2116C2.95708 3.2936 3.05436 3.35866 3.16143 3.40305C3.2685 3.44743 3.38328 3.47028 3.49919 3.47028Z" fill="#9CA3AF"/>
<path fill-rule="evenodd" clip-rule="evenodd" d="M10.4992 3.47028C10.6151 3.47028 10.7299 3.44743 10.8369 3.40305C10.944 3.35866 11.0413 3.2936 11.1232 3.2116C11.2051 3.12959 11.2701 3.03224 11.3143 2.92512C11.3586 2.81799 11.3813 2.70319 11.3812 2.58728V0.995281C11.3812 0.76136 11.2883 0.53702 11.1229 0.371613C10.9574 0.206206 10.7331 0.113281 10.4992 0.113281C10.2653 0.113281 10.0409 0.206206 9.87552 0.371613C9.71011 0.53702 9.61719 0.76136 9.61719 0.995281V2.58728C9.61706 2.70319 9.63977 2.81799 9.68404 2.92512C9.7283 3.03224 9.79325 3.12959 9.87517 3.2116C9.95708 3.2936 10.0544 3.35866 10.1614 3.40305C10.2685 3.44743 10.3833 3.47028 10.4992 3.47028Z" fill="#9CA3AF"/>
<path fill-rule="evenodd" clip-rule="evenodd" d="M12.668 1.29216V2.74716C12.6799 3.29954 12.4884 3.83704 12.13 4.25755C11.7716 4.67806 11.2713 4.95229 10.724 5.02816C10.4221 5.05938 10.1169 5.02685 9.82834 4.93266C9.53976 4.83848 9.27418 4.68474 9.04879 4.48141C8.82339 4.27807 8.64322 4.02967 8.51991 3.75229C8.39661 3.4749 8.33293 3.17471 8.333 2.87116V1.64416C8.33274 1.54885 8.29469 1.45754 8.22721 1.39024C8.15972 1.32295 8.06831 1.28516 7.973 1.28516H6.027C5.93179 1.28516 5.84047 1.32298 5.77315 1.3903C5.70582 1.45763 5.668 1.54894 5.668 1.64416V2.74416C5.6806 3.29705 5.48948 3.83528 5.13103 4.25643C4.77258 4.67757 4.2718 4.95224 3.724 5.02816C3.42205 5.05938 3.11691 5.02685 2.82834 4.93266C2.53976 4.83848 2.27418 4.68474 2.04879 4.48141C1.8234 4.27807 1.64322 4.02967 1.51991 3.75229C1.39661 3.4749 1.33293 3.17471 1.333 2.87116V1.29216C0.974638 1.30932 0.636543 1.46341 0.388496 1.72263C0.140449 1.98184 0.00138291 2.32639 0 2.68516L0 12.4852C0 12.8565 0.1475 13.2126 0.410051 13.4751C0.672601 13.7377 1.0287 13.8852 1.4 13.8852H12.6C12.9713 13.8852 13.3274 13.7377 13.5899 13.4751C13.8525 13.2126 14 12.8565 14 12.4852V2.68516C13.9986 2.32655 13.8597 1.98214 13.6119 1.72296C13.364 1.46377 13.0262 1.30957 12.668 1.29216ZM11.5 10.7752C11.4992 11.0009 11.4092 11.2171 11.2496 11.3767C11.09 11.5363 10.8737 11.6264 10.648 11.6272H3.148C2.92228 11.6264 2.70603 11.5363 2.54642 11.3767C2.38681 11.2171 2.29679 11.0009 2.296 10.7752V7.45516C2.296 7.2284 2.38608 7.01092 2.54642 6.85058C2.70677 6.69024 2.92424 6.60016 3.151 6.60016H10.651C10.8767 6.60095 11.093 6.69097 11.2526 6.85057C11.4122 7.01018 11.5022 7.22644 11.503 7.45216L11.5 10.7752Z" fill="#9CA3AF"/>
</g>
<defs>
<clipPath id="clip0_3092_81291">
<rect width="14" height="14" fill="white"/>
</clipPath>
</defs>
</svg>
