<svg width="16" height="16" viewBox="0 0 16 16" fill="none" xmlns="http://www.w3.org/2000/svg">
<g clip-path="url(#clip0_949_17791)">
<path d="M14.2857 6.286H9.82856C9.76926 6.28199 9.71342 6.25662 9.6714 6.21459C9.62937 6.17257 9.604 6.11673 9.59999 6.05743V1.71457C9.61675 1.49482 9.58774 1.27398 9.51478 1.06601C9.44183 0.858045 9.32652 0.667478 9.17614 0.506359C9.02576 0.34524 8.84359 0.217075 8.64114 0.129966C8.43869 0.0428577 8.22038 -0.00129897 7.99999 0.000288158C7.77371 -0.0038989 7.54892 0.0375817 7.33904 0.12225C7.12916 0.206919 6.93851 0.333037 6.77848 0.493065C6.61845 0.653093 6.49233 0.843745 6.40767 1.05362C6.323 1.2635 6.28152 1.4883 6.2857 1.71457V6.17172C6.28169 6.23102 6.25632 6.28685 6.2143 6.32888C6.17227 6.37091 6.11643 6.39628 6.05713 6.40029H1.71428C1.49254 6.37371 1.26767 6.39588 1.05539 6.46525C0.843113 6.53461 0.648543 6.6495 0.48528 6.80187C0.322017 6.95425 0.194001 7.14045 0.110179 7.34744C0.0263573 7.55444 -0.0112484 7.77725 -9.6187e-06 8.00029C0.0110069 8.45148 0.195155 8.88114 0.514289 9.20028C0.833423 9.51941 1.26309 9.70356 1.71428 9.71457H6.17142C6.23072 9.71859 6.28655 9.74395 6.32858 9.78598C6.37061 9.82801 6.39598 9.88385 6.39999 9.94314V14.4003C6.39449 14.6119 6.43212 14.8224 6.51058 15.019C6.58904 15.2156 6.70669 15.3942 6.85638 15.5439C7.00606 15.6936 7.18464 15.8112 7.38125 15.8897C7.57786 15.9682 7.78838 16.0058 7.99999 16.0003C8.45118 15.9893 8.88084 15.8051 9.19998 15.486C9.51911 15.1669 9.70326 14.7372 9.71428 14.286V9.82886C9.71829 9.76956 9.74366 9.71372 9.78568 9.6717C9.82771 9.62967 9.88355 9.6043 9.94285 9.60029H14.4C14.8216 9.59153 15.2235 9.42015 15.5217 9.12197C15.8199 8.82379 15.9912 8.42189 16 8.00029C16.0186 7.77044 15.9871 7.53928 15.9075 7.32283C15.828 7.10638 15.7023 6.90981 15.5392 6.74674C15.3762 6.58368 15.1796 6.45802 14.9632 6.37846C14.7467 6.2989 14.5156 6.26736 14.2857 6.286Z" fill="#9A74FF"/>
</g>
<defs>
<clipPath id="clip0_949_17791">
<rect width="16" height="16" fill="white"/>
</clipPath>
</defs>
</svg>
