<svg width="12" height="13" viewBox="0 0 12 13" fill="none" xmlns="http://www.w3.org/2000/svg">
<path fill-rule="evenodd" clip-rule="evenodd" d="M8.08289 2.19349L5.91432 4.42806L3.74575 2.19172C3.6315 2.06902 3.49464 1.97107 3.34321 1.90361C3.19178 1.83616 3.02881 1.80055 2.86386 1.79889C2.69891 1.79723 2.5353 1.82953 2.38261 1.89392C2.22992 1.95831 2.09124 2.05348 1.97468 2.17386C1.85813 2.29423 1.76604 2.43739 1.70383 2.59494C1.64162 2.75249 1.61053 2.92127 1.61238 3.09137C1.61424 3.26147 1.649 3.42948 1.71464 3.58555C1.78027 3.74161 1.87545 3.8826 1.99461 4.00024L4.16232 6.23658L1.99632 8.47027C1.76987 8.71155 1.64443 9.03494 1.64705 9.37071C1.64967 9.70648 1.78013 10.0277 2.01032 10.2652C2.2405 10.5027 2.55197 10.6374 2.87757 10.6403C3.20316 10.6432 3.51681 10.514 3.75089 10.2806L5.91432 8.04245L8.08118 10.2779C8.19552 10.4004 8.33239 10.4981 8.48378 10.5654C8.63517 10.6327 8.79805 10.6681 8.9629 10.6698C9.12775 10.6714 9.29125 10.6391 9.44385 10.5748C9.59645 10.5104 9.73509 10.4154 9.85166 10.2952C9.96823 10.175 10.0604 10.032 10.1228 9.87464C10.1851 9.71727 10.2164 9.54866 10.2149 9.37866C10.2133 9.20866 10.1789 9.04069 10.1137 8.88457C10.0484 8.72844 9.95365 8.5873 9.83489 8.46938L7.67146 6.23746L9.83746 4.00378C10.0639 3.7625 10.1894 3.43911 10.1867 3.10334C10.1841 2.76756 10.0537 2.4463 9.82347 2.2088C9.59328 1.97131 9.28182 1.83661 8.95622 1.83375C8.63062 1.83088 8.31697 1.96008 8.08289 2.19349Z" fill="#676767"/>
</svg>
