<svg width="12" height="12" viewBox="0 0 12 12" fill="none" xmlns="http://www.w3.org/2000/svg">
<g clip-path="url(#clip0_1490_27831)">
<path fill-rule="evenodd" clip-rule="evenodd" d="M7.18735 9.03319L11.6445 4.74748C11.8235 4.54971 11.9412 4.30425 11.9835 4.04088C12.0257 3.77751 11.9906 3.50754 11.8825 3.26372C11.7743 3.01989 11.5977 2.8127 11.3741 2.66725C11.1505 2.52181 10.8895 2.44437 10.6228 2.44434H1.38106C1.11515 2.44512 0.855133 2.52281 0.632375 2.66804C0.409618 2.81327 0.233629 3.01984 0.125629 3.26284C0.0176291 3.50584 -0.0177699 3.77489 0.0237002 4.03756C0.0651704 4.30023 0.181739 4.54529 0.35935 4.74319L4.81649 9.03319C4.96671 9.19825 5.14975 9.33013 5.35388 9.42036C5.55801 9.51059 5.77874 9.5572 6.00192 9.5572C6.22511 9.5572 6.44583 9.51059 6.64996 9.42036C6.85409 9.33013 7.03713 9.19825 7.18735 9.03319Z" fill="#D4DAE2"/>
</g>
<defs>
<clipPath id="clip0_1490_27831">
<rect width="12" height="12" fill="white"/>
</clipPath>
</defs>
</svg>
