<svg width="12" height="12" viewBox="0 0 12 12" fill="none" xmlns="http://www.w3.org/2000/svg">
<g clip-path="url(#clip0_1496_28438)">
<path d="M3.40541 10.0918L0.42855 7.11411C0.291994 6.97767 0.183665 6.81566 0.109755 6.63733C0.0358449 6.45901 -0.00219727 6.26786 -0.00219727 6.07483C-0.00219727 5.88179 0.0358449 5.69065 0.109755 5.51232C0.183665 5.33399 0.291994 5.17198 0.42855 5.03554C0.704326 4.76017 1.07812 4.6055 1.46784 4.6055C1.85756 4.6055 2.23134 4.76017 2.50712 5.03554L4.37141 6.89811C4.40899 6.93548 4.45983 6.95646 4.51284 6.95646C4.56584 6.95646 4.61668 6.93548 4.65426 6.89811L9.48855 2.06383C9.76433 1.78846 10.1381 1.63379 10.5278 1.63379C10.9176 1.63379 11.2913 1.78846 11.5671 2.06383C11.7037 2.20027 11.812 2.36228 11.8859 2.5406C11.9598 2.71893 11.9979 2.91008 11.9979 3.10311C11.9979 3.29615 11.9598 3.48729 11.8859 3.66562C11.812 3.84395 11.7037 4.00596 11.5671 4.1424L5.61855 10.0918C5.32504 10.3853 4.92701 10.5501 4.51198 10.5501C4.09695 10.5501 3.69892 10.3853 3.40541 10.0918Z" fill="#FAFAFB"/>
</g>
<defs>
<clipPath id="clip0_1496_28438">
<rect width="12" height="12" fill="white"/>
</clipPath>
</defs>
</svg>
