<svg width="22" height="22" viewBox="0 0 22 22" fill="none" xmlns="http://www.w3.org/2000/svg">
<path d="M11 18.5625C11 18.5625 2.40625 13.75 2.40625 7.90626C2.40642 6.8734 2.76431 5.87249 3.41906 5.07368C4.07381 4.27488 4.98501 3.7275 5.99774 3.5246C7.01047 3.3217 8.06221 3.47581 8.97416 3.96072C9.8861 4.44564 10.602 5.23143 11 6.1845L11 6.18451C11.398 5.23144 12.1139 4.44564 13.0258 3.96073C13.9378 3.47581 14.9895 3.3217 16.0023 3.5246C17.015 3.7275 17.9262 4.27488 18.5809 5.07368C19.2357 5.87249 19.5936 6.8734 19.5938 7.90626C19.5938 13.75 11 18.5625 11 18.5625Z" stroke="#374151" stroke-width="1.8" stroke-linecap="round" stroke-linejoin="round"/>
</svg>
