<svg width="11" height="14" viewBox="0 0 11 14" fill="none" xmlns="http://www.w3.org/2000/svg">
<path d="M3 13.5H8" stroke="black" stroke-linecap="round" stroke-linejoin="round"/>
<path d="M2.41898 9.43824C1.82445 8.97389 1.3429 8.38082 1.01054 7.70359C0.678182 7.02637 0.503654 6.28262 0.500077 5.52825C0.485101 2.8181 2.67 0.565221 5.37944 0.50145C6.42935 0.476169 7.46058 0.782116 8.32683 1.37589C9.19308 1.96967 9.85038 2.82113 10.2055 3.80949C10.5606 4.79786 10.5955 5.87294 10.3052 6.88225C10.0149 7.89156 9.41422 8.78384 8.58829 9.43254C8.40637 9.57348 8.25888 9.75394 8.15696 9.96027C8.05505 10.1666 8.00138 10.3934 8.00001 10.6235L8.00001 11C8.00001 11.1326 7.94733 11.2598 7.85356 11.3536C7.75979 11.4474 7.63262 11.5 7.50001 11.5H3.49999C3.36738 11.5 3.24021 11.4474 3.14644 11.3536C3.05267 11.2598 2.99999 11.1326 2.99999 11L2.99998 10.6231C2.99942 10.3945 2.94681 10.1689 2.84614 9.96366C2.74548 9.75837 2.5994 9.57869 2.41898 9.43824V9.43824Z" stroke="black" stroke-linecap="round" stroke-linejoin="round"/>
<path d="M6.00781 2.54883C6.61938 2.65278 7.18359 2.94406 7.62251 3.38244C8.06142 3.82082 8.3534 4.38466 8.45811 4.9961" stroke="black" stroke-linecap="round" stroke-linejoin="round"/>
</svg>
