<svg width="142" height="57" viewBox="0 0 142 57" fill="none" xmlns="http://www.w3.org/2000/svg">
<path d="M61.6591 5.97458C61.3144 5.66357 61.0403 5.28234 60.8551 4.85654C60.67 4.43075 60.5782 3.97025 60.5859 3.50601C60.5749 3.03606 60.6651 2.56925 60.8503 2.13718C61.0355 1.70511 61.3113 1.31787 61.6591 1.00166C62.4161 0.320481 63.4094 -0.0378404 64.4269 0.00316903C65.4332 -0.0343185 66.414 0.324156 67.159 1.00166C67.5068 1.31787 67.7826 1.70511 67.9678 2.13718C68.153 2.56925 68.2432 3.03606 68.2323 3.50601C68.2399 3.97025 68.1481 4.43075 67.963 4.85654C67.7779 5.28234 67.5037 5.66357 67.159 5.97458C66.414 6.65209 65.4332 7.01056 64.4269 6.97307C63.4094 7.01408 62.4161 6.65576 61.6591 5.97458ZM67.6306 9.15869V30.179H61.1875V9.15869H67.6306Z" fill="#111827"/>
<path d="M72.2457 13.9429C72.9814 12.3994 74.1367 11.0942 75.5794 10.1766C76.9903 9.29413 78.625 8.83578 80.2889 8.85612C81.6015 8.84132 82.8989 9.1378 84.0747 9.72126C85.161 10.2525 86.0894 11.0587 86.7677 12.0597V2.30252H93.2107V30.1789H86.7677V27.1672C86.1446 28.1913 85.2525 29.0249 84.1886 29.5772C82.9837 30.2002 81.6418 30.511 80.2857 30.4814C78.6196 30.5007 76.9837 30.0364 75.5762 29.1446C74.132 28.2117 72.9773 26.8937 72.2425 25.3393C71.3955 23.5579 70.9757 21.6034 71.0163 19.6313C70.9753 17.6651 71.3964 15.7167 72.2457 13.9429ZM85.431 15.865C85.0104 15.4275 84.5061 15.079 83.948 14.8403C83.39 14.6017 82.7896 14.4777 82.1827 14.4759C81.5758 14.4741 80.9747 14.5944 80.4152 14.8297C79.8558 15.065 79.3493 15.4105 78.9262 15.8455C78.035 16.7627 77.5894 18.0246 77.5894 19.6313C77.5894 21.238 78.035 22.513 78.9262 23.4562C79.3452 23.8974 79.8496 24.2488 80.4087 24.489C80.9679 24.7291 81.57 24.8529 82.1786 24.8529C82.7871 24.8529 83.3892 24.7291 83.9484 24.489C84.5075 24.2488 85.012 23.8974 85.431 23.4562C86.3221 22.5303 86.7677 21.263 86.7677 19.6541C86.7677 18.0452 86.3221 16.7822 85.431 15.865Z" fill="#111827"/>
<path d="M117.584 21.2121H103.004C103.103 22.5131 103.524 23.5116 104.266 24.2076C105.005 24.899 105.986 25.2717 106.998 25.2451C108.604 25.2451 109.722 24.5664 110.351 23.2091H117.207C116.861 24.5798 116.211 25.855 115.304 26.9396C114.37 28.0598 113.19 28.9501 111.857 29.5415C110.399 30.1876 108.819 30.5094 107.225 30.4847C105.308 30.5202 103.414 30.0657 101.722 29.1642C100.129 28.2996 98.8206 26.9913 97.9559 25.398C97.0191 23.637 96.551 21.6646 96.5964 19.6705C96.5502 17.679 97.0101 15.7083 97.9332 13.943C98.788 12.3479 100.092 11.0384 101.683 10.1767C103.381 9.31518 105.257 8.86294 107.16 8.85616C109.064 8.84939 110.943 9.28826 112.647 10.1377C114.209 10.9742 115.497 12.2421 116.358 13.7901C117.276 15.4859 117.737 17.3914 117.695 19.3192C117.694 19.9518 117.657 20.5838 117.584 21.2121ZM111.105 17.6345C111.127 17.1381 111.036 16.6432 110.84 16.1866C110.644 15.73 110.348 15.3233 109.974 14.9968C109.185 14.3322 108.178 13.9844 107.147 14.021C106.153 13.9916 105.182 14.3271 104.418 14.9642C103.644 15.6539 103.154 16.6067 103.043 17.6377L111.105 17.6345Z" fill="#111827"/>
<path d="M121.032 13.9431C121.767 12.3996 122.923 11.0944 124.365 10.1768C125.776 9.29433 127.411 8.83598 129.075 8.85632C130.431 8.82664 131.773 9.13751 132.978 9.76048C134.034 10.3074 134.925 11.1272 135.557 12.1347V9.15879H142V30.1791H135.554V27.2031C134.905 28.205 134.009 29.0228 132.952 29.5774C131.747 30.2006 130.405 30.5115 129.049 30.4816C127.396 30.4973 125.773 30.0329 124.378 29.1448C122.934 28.2119 121.78 26.8939 121.045 25.3395C120.198 23.5581 119.778 21.6037 119.819 19.6315C119.772 17.6666 120.188 15.7182 121.032 13.9431ZM134.217 15.8653C133.796 15.4277 133.292 15.0792 132.734 14.8405C132.176 14.6019 131.576 14.4779 130.969 14.4761C130.362 14.4743 129.761 14.5946 129.201 14.8299C128.642 15.0652 128.135 15.4107 127.712 15.8457C126.821 16.7629 126.375 18.0248 126.375 19.6315C126.375 21.2382 126.821 22.5132 127.712 23.4564C128.131 23.8976 128.636 24.249 129.195 24.4892C129.754 24.7293 130.356 24.8531 130.965 24.8531C131.573 24.8531 132.175 24.7293 132.734 24.4892C133.294 24.249 133.798 23.8976 134.217 23.4564C135.108 22.5305 135.554 21.2632 135.554 19.6543C135.554 18.0454 135.108 16.7824 134.217 15.8653Z" fill="#111827"/>
<path d="M70.2292 35.396C71.4257 34.7712 72.7597 34.4559 74.1093 34.4788C75.7711 34.4547 77.4051 34.9061 78.8188 35.7798C80.2601 36.7005 81.4149 38.0063 82.1525 39.5493C83.0011 41.3233 83.4211 43.2718 83.3787 45.2378C83.4197 47.2089 82.9998 49.1623 82.1525 50.9425C81.4166 52.4962 80.2622 53.814 78.8188 54.7478C77.4121 55.6416 75.7758 56.1072 74.1093 56.0878C72.7622 56.1194 71.4285 55.8142 70.2292 55.1999C69.1709 54.656 68.2738 53.8441 67.6273 52.8452V55.7723H61.1875V33.0218H67.6305V37.7703C68.2652 36.7577 69.1635 35.9369 70.2292 35.396ZM75.4851 41.478C75.0627 41.0347 74.553 40.6839 73.9882 40.4476C73.4233 40.2114 72.8156 40.0949 72.2034 40.1055C71.594 40.0969 70.9896 40.2163 70.4294 40.4561C69.8691 40.6959 69.3654 41.0507 68.951 41.4975C68.0598 42.4277 67.6143 43.6962 67.6143 45.3029C67.6143 46.9095 68.0598 48.1812 68.951 49.1082C69.3732 49.5508 69.8811 49.9027 70.4438 50.1426C71.0065 50.3825 71.6122 50.5053 72.2239 50.5035C72.8355 50.5017 73.4405 50.3753 74.0017 50.132C74.5629 49.8888 75.0688 49.5338 75.4883 49.0887C76.3925 48.1498 76.8446 46.8759 76.8446 45.2671C76.8218 43.6571 76.3762 42.3985 75.4851 41.478Z" fill="#111827"/>
<path d="M90.781 54.7965C89.1541 53.9367 87.8068 52.63 86.8976 51.0302C85.9274 49.28 85.4402 47.3033 85.4861 45.3027C85.445 43.3064 85.9392 41.3355 86.9171 39.5947C87.8375 37.9862 89.1969 36.6731 90.8363 35.8089C92.5669 34.9426 94.4756 34.4915 96.4109 34.4915C98.3462 34.4915 100.255 34.9426 101.986 35.8089C103.626 36.6719 104.985 37.9853 105.905 39.5947C106.884 41.335 107.378 43.3062 107.336 45.3027C107.378 47.3016 106.877 49.2745 105.885 51.0107C104.954 52.6234 103.582 53.9368 101.93 54.7965C100.203 55.6909 98.2811 56.1445 96.3361 56.1169C94.4031 56.148 92.4932 55.694 90.781 54.7965ZM99.4812 49.1828C100.348 48.2786 100.782 46.9853 100.782 45.3027C100.782 43.6201 100.363 42.3267 99.5234 41.4226C99.1243 40.9963 98.6423 40.6562 98.1069 40.4231C97.5715 40.19 96.9941 40.0688 96.4102 40.067C95.8263 40.0651 95.2482 40.1827 94.7114 40.4125C94.1745 40.6422 93.6904 40.9793 93.2886 41.4031C92.4603 42.2942 92.0451 43.5952 92.0429 45.3059C92.0407 47.0167 92.4495 48.3101 93.2691 49.1861C93.6505 49.6229 94.1231 49.9708 94.6536 50.2051C95.1841 50.4395 95.7595 50.5546 96.3393 50.5423C96.9292 50.5493 97.5138 50.4318 98.0552 50.1976C98.5966 49.9633 99.0825 49.6176 99.4812 49.1828Z" fill="#111827"/>
<path d="M123.198 55.8145L119.165 49.9764L115.786 55.8145H108.806L115.737 45.0816L108.63 34.8039H115.851L119.884 40.6062L123.266 34.8039H130.236L123.191 45.3905L130.421 55.8145H123.198Z" fill="#111827"/>
<path d="M48.5421 0.214546H7.35694C5.40655 0.217128 3.53678 0.993061 2.15765 2.3722C0.778515 3.75133 0.00258159 5.6211 0 7.57149L0 48.7567C0.00172099 50.7076 0.777274 52.5783 2.1565 53.9581C3.53573 55.3379 5.40599 56.1143 7.35694 56.1169H48.5421C50.4937 56.1152 52.3648 55.3392 53.7447 53.9592C55.1246 52.5793 55.9006 50.7082 55.9023 48.7567V7.57149C55.8998 5.62053 55.1234 3.75028 53.7435 2.37105C52.3637 0.99182 50.4931 0.216267 48.5421 0.214546ZM48.5421 5.18422C49.1756 5.18422 49.7831 5.43563 50.2313 5.88324C50.6796 6.33084 50.9318 6.93805 50.9327 7.57149V45.5075L50.9001 45.4848C47.4428 49.508 41.3023 51.8465 36.1245 50.2008C34.0267 49.534 31.9842 48.0737 29.6847 48.3859C28.2894 48.5746 27.0828 49.4202 25.8534 50.1064C24.0548 51.1114 21.3163 51.7619 20.0348 49.6381C19.603 48.8368 19.4143 47.9269 19.4917 47.0199C19.5957 44.5351 20.7373 42.2031 22.1294 40.1411C25.1476 35.669 29.0895 31.7694 31.4963 26.9005C31.7142 26.4582 31.9419 25.6841 31.2719 25.5996C30.8393 25.5345 30.2669 25.8533 29.9026 26.0549C28.7252 26.7054 27.6259 27.6486 26.5266 28.4259C23.9962 30.2017 21.4854 32.0036 18.8802 33.6623C16.4246 35.2299 13.826 36.7065 10.9769 37.4058C9.84503 37.6855 8.41722 37.8351 7.43825 37.061C6.78777 36.5537 6.49505 35.7211 6.38447 34.908C6.28446 34.2377 6.31204 33.5547 6.46578 32.8947C6.88534 31.1709 8.2481 29.8049 8.74246 28.0974C9.42872 25.6679 7.90985 24.0482 6.98617 21.9861C6.00442 19.7421 5.43694 17.3388 5.31118 14.8927C5.12254 11.6695 5.63642 8.50493 6.43326 5.39238C6.72927 5.26564 7.04795 5.20036 7.36995 5.20048L48.5421 5.18422ZM5.90637 5.67859C6.0622 5.55786 6.23268 5.45732 6.41374 5.37937L5.90637 5.67859Z" fill="#7C4BFF"/>
<path d="M50.8188 6.88847C50.8913 7.109 50.9297 7.33934 50.9326 7.57148V45.5075L50.9001 45.4848C47.4428 49.508 41.3022 51.8465 36.1244 50.2007C34.0266 49.534 31.9841 48.0737 29.6846 48.3859C28.2893 48.5745 27.0827 49.4202 25.8533 50.1064C24.0547 51.1114 21.3162 51.7619 20.0347 49.6381C19.6029 48.8367 19.4142 47.9269 19.4916 47.0199C19.5957 44.5351 20.7373 42.2031 22.1293 40.1411C25.1475 35.669 29.0894 31.7726 31.4962 26.9005C31.6686 26.5493 31.841 25.9931 31.571 25.7264L2.45224 54.224C3.79587 55.4412 5.54384 56.1158 7.35686 56.1169H48.5421C50.4936 56.1151 52.3647 55.3391 53.7446 53.9592C55.1245 52.5793 55.9005 50.7082 55.9023 48.7567V7.57148C55.9005 6.03025 55.4122 4.52892 54.507 3.28155L50.8188 6.88847Z" fill="#5C43D6"/>
<path d="M38.5671 30.4976C41.8 25.3848 43.4457 19.524 43.8717 13.8388C43.897 13.7096 43.8881 13.5761 43.8458 13.4515C43.8035 13.3269 43.7294 13.2155 43.6308 13.1284C43.5321 13.0412 43.4125 12.9814 43.2836 12.9548C43.1547 12.9283 43.0211 12.9359 42.896 12.9769C37.2954 14.0274 31.6492 16.3041 26.9202 20.0769C24.7541 21.8072 27.8406 22.1097 29.0473 22.3536C30.7158 22.7081 32.4818 23.0041 33.7438 24.1424C34.9992 25.2743 35.5001 26.998 36.0204 28.6145C36.4433 29.8049 37.0775 32.8524 38.5671 30.4976Z" fill="#FF5C1B"/>
<path d="M33.2591 23.5605C33.4324 23.657 33.5987 23.7657 33.7567 23.8858C35.0121 25.0143 35.513 26.7381 36.0496 28.3546C36.4367 29.5254 37.0741 32.5632 38.5572 30.2214C41.7901 25.1054 43.4358 19.2446 43.8619 13.5626C43.8733 13.4366 43.86 13.3096 43.8229 13.1886L33.2591 23.5605Z" fill="#E05828"/>
</svg>
