<svg width="20" height="20" viewBox="0 0 20 20" fill="none" xmlns="http://www.w3.org/2000/svg">
<g clip-path="url(#clip0_1329_19347)">
<path d="M12 14.6867V18.2082C12 18.4734 12.1054 18.7277 12.2929 18.9153C12.4804 19.1028 12.7348 19.2082 13 19.2082H19C19.2652 19.2082 19.5196 19.1028 19.7071 18.9153C19.8946 18.7277 20 18.4734 20 18.2082V9.36817C20 9.15805 19.9586 8.94999 19.8782 8.75586C19.7978 8.56173 19.68 8.38533 19.5314 8.23675L11.13 1.26532C10.9817 1.11681 10.8055 0.999005 10.6116 0.918626C10.4177 0.838247 10.2099 0.796875 10 0.796875C9.79011 0.796875 9.58227 0.838247 9.38838 0.918626C9.19448 0.999005 9.01833 1.11681 8.87 1.26532L0.468571 8.23675C0.320001 8.38533 0.202153 8.56173 0.121755 8.75586C0.0413573 8.94999 -1.51563e-05 9.15805 4.16502e-09 9.36817L4.16502e-09 18.2082C4.16502e-09 18.4734 0.105357 18.7277 0.292893 18.9153C0.48043 19.1028 0.734784 19.2082 1 19.2082H7C7.26522 19.2082 7.51957 19.1028 7.70711 18.9153C7.89464 18.7277 8 18.4734 8 18.2082V14.6867C8 14.1563 8.21071 13.6476 8.58579 13.2725C8.96086 12.8975 9.46957 12.6867 10 12.6867C10.5304 12.6867 11.0391 12.8975 11.4142 13.2725C11.7893 13.6476 12 14.1563 12 14.6867Z" fill="#6B7280"/>
</g>
<defs>
<clipPath id="clip0_1329_19347">
<rect width="20" height="20" fill="white"/>
</clipPath>
</defs>
</svg>
