<svg width="12" height="12" viewBox="0 0 12 12" fill="none" xmlns="http://www.w3.org/2000/svg">
<g clip-path="url(#clip0_1453_43749)">
<path d="M10.7143 4.7145H7.37142C7.32695 4.71149 7.28507 4.69247 7.25355 4.66095C7.22203 4.62943 7.203 4.58755 7.19999 4.54307V1.28593C7.21256 1.12112 7.19081 0.955484 7.13609 0.799509C7.08137 0.643534 6.99489 0.500609 6.8821 0.379769C6.76932 0.25893 6.63269 0.162806 6.48086 0.0974747C6.32902 0.0321433 6.16528 -0.000974228 5.99999 0.000216118C5.83029 -0.00292417 5.66169 0.0281863 5.50428 0.0916877C5.34687 0.155189 5.20388 0.249778 5.08386 0.369799C4.96384 0.48982 4.86925 0.632809 4.80575 0.790218C4.74225 0.947627 4.71114 1.11622 4.71428 1.28593V4.62879C4.71127 4.67326 4.69224 4.71514 4.66072 4.74666C4.6292 4.77818 4.58732 4.79721 4.54285 4.80022H1.28571C1.1194 4.78028 0.950754 4.79691 0.791544 4.84893C0.632335 4.90096 0.486407 4.98712 0.36396 5.10141C0.241513 5.21569 0.145501 5.35534 0.0826345 5.51058C0.019768 5.66583 -0.00843633 5.83293 -7.21402e-06 6.00022C0.00825521 6.33861 0.146366 6.66086 0.385717 6.90021C0.625067 7.13956 0.947315 7.27767 1.28571 7.28593H4.62856C4.67304 7.28894 4.71492 7.30797 4.74644 7.33949C4.77796 7.37101 4.79698 7.41288 4.79999 7.45736V10.8002C4.79587 10.9589 4.82409 11.1168 4.88293 11.2643C4.94178 11.4117 5.03002 11.5457 5.14228 11.6579C5.25455 11.7702 5.38848 11.8584 5.53594 11.9173C5.68339 11.9761 5.84128 12.0043 5.99999 12.0002C6.33838 11.992 6.66063 11.8538 6.89998 11.6145C7.13933 11.3751 7.27744 11.0529 7.28571 10.7145V7.37164C7.28871 7.32717 7.30774 7.28529 7.33926 7.25377C7.37078 7.22225 7.41266 7.20322 7.45713 7.20022H10.8C11.1162 7.19365 11.4176 7.06511 11.6413 6.84148C11.8649 6.61784 11.9934 6.31642 12 6.00022C12.014 5.82783 11.9903 5.65446 11.9306 5.49212C11.871 5.32978 11.7767 5.18236 11.6544 5.06006C11.5321 4.93776 11.3847 4.84351 11.2224 4.78384C11.06 4.72418 10.8867 4.70052 10.7143 4.7145Z" fill="#9CA3AF"/>
</g>
<defs>
<clipPath id="clip0_1453_43749">
<rect width="12" height="12" fill="white"/>
</clipPath>
</defs>
</svg>
