<svg width="24" height="24" viewBox="0 0 24 24" fill="none" xmlns="http://www.w3.org/2000/svg">
<g clip-path="url(#clip0_1329_18956)">
<path fill-rule="evenodd" clip-rule="evenodd" d="M6.00004 5.94724C6.19874 5.94724 6.3955 5.90807 6.57905 5.83198C6.76261 5.75589 6.92937 5.64436 7.06979 5.50378C7.21021 5.3632 7.32155 5.19631 7.39744 5.01267C7.47332 4.82903 7.51226 4.63223 7.51204 4.43353V1.70438C7.51204 1.50582 7.47293 1.30921 7.39694 1.12577C7.32096 0.942321 7.20959 0.77564 7.06918 0.635237C6.92878 0.494835 6.7621 0.383462 6.57866 0.307477C6.39521 0.231492 6.1986 0.192383 6.00004 0.192383C5.80148 0.192383 5.60487 0.231492 5.42142 0.307477C5.23798 0.383462 5.07129 0.494835 4.93089 0.635237C4.79049 0.77564 4.67912 0.942321 4.60313 1.12577C4.52715 1.30921 4.48804 1.50582 4.48804 1.70438V4.43353C4.48781 4.63223 4.52676 4.82903 4.60264 5.01267C4.67852 5.19631 4.78986 5.3632 4.93029 5.50378C5.07071 5.64436 5.23747 5.75589 5.42102 5.83198C5.60458 5.90807 5.80134 5.94724 6.00004 5.94724Z" fill="#1F2937"/>
<path fill-rule="evenodd" clip-rule="evenodd" d="M18 5.94724C18.1987 5.94724 18.3955 5.90807 18.5791 5.83198C18.7626 5.75589 18.9294 5.64436 19.0698 5.50378C19.2102 5.3632 19.3216 5.19631 19.3974 5.01267C19.4733 4.82903 19.5123 4.63223 19.512 4.43353V1.70438C19.512 1.30338 19.3527 0.918792 19.0692 0.635237C18.7856 0.351682 18.401 0.192383 18 0.192383C17.599 0.192383 17.2144 0.351682 16.9309 0.635237C16.6473 0.918792 16.488 1.30338 16.488 1.70438V4.43353C16.4878 4.63223 16.5268 4.82903 16.6026 5.01267C16.6785 5.19631 16.7899 5.3632 16.9303 5.50378C17.0707 5.64436 17.2375 5.75589 17.421 5.83198C17.6046 5.90807 17.8013 5.94724 18 5.94724Z" fill="#1F2937"/>
<path fill-rule="evenodd" clip-rule="evenodd" d="M21.7166 2.21513V4.70941C21.7369 5.65636 21.4087 6.57778 20.7943 7.29866C20.1799 8.01954 19.3222 8.48965 18.384 8.6197C17.8664 8.67322 17.3433 8.61745 16.8486 8.45599C16.3539 8.29454 15.8986 8.03099 15.5122 7.68242C15.1258 7.33384 14.8169 6.90801 14.6056 6.43249C14.3942 5.95697 14.285 5.44237 14.2851 4.92198V2.81855C14.2847 2.65517 14.2195 2.49864 14.1038 2.38328C13.9881 2.26791 13.8314 2.20312 13.668 2.20313H10.332C10.1688 2.20313 10.0122 2.26796 9.89683 2.38338C9.78141 2.4988 9.71657 2.65533 9.71657 2.81855V4.70427C9.73817 5.65209 9.41055 6.57477 8.79605 7.29673C8.18156 8.0187 7.32309 8.48955 6.384 8.6197C5.86638 8.67322 5.34328 8.61745 4.84858 8.45599C4.35388 8.29454 3.8986 8.03099 3.51221 7.68242C3.12582 7.33384 2.81694 6.90801 2.60556 6.43249C2.39419 5.95697 2.28502 5.44237 2.28514 4.92198V2.21513C1.67081 2.24455 1.09122 2.50871 0.665993 2.95307C0.24077 3.39744 0.0023707 3.98809 0 4.60313L0 21.4031C0 22.0396 0.252856 22.6501 0.702944 23.1002C1.15303 23.5503 1.76348 23.8031 2.4 23.8031H21.6C22.2365 23.8031 22.847 23.5503 23.2971 23.1002C23.7471 22.6501 24 22.0396 24 21.4031V4.60313C23.9977 3.98837 23.7595 3.39796 23.3346 2.95364C22.9098 2.50932 22.3306 2.24498 21.7166 2.21513ZM19.7143 18.4717C19.7129 18.8586 19.5586 19.2294 19.285 19.503C19.0114 19.7766 18.6407 19.9309 18.2537 19.9323H5.39657C5.00962 19.9309 4.63891 19.7766 4.36529 19.503C4.09167 19.2294 3.93736 18.8586 3.936 18.4717V12.7803C3.936 12.3915 4.09042 12.0187 4.3653 11.7439C4.64017 11.469 5.01298 11.3146 5.40171 11.3146H18.2589C18.6458 11.3159 19.0165 11.4702 19.2901 11.7438C19.5638 12.0175 19.7181 12.3882 19.7194 12.7751L19.7143 18.4717Z" fill="#1F2937"/>
</g>
<defs>
<clipPath id="clip0_1329_18956">
<rect width="24" height="24" fill="white"/>
</clipPath>
</defs>
</svg>
