<svg width="18" height="11" viewBox="0 0 18 11" fill="none" xmlns="http://www.w3.org/2000/svg">
<path fill-rule="evenodd" clip-rule="evenodd" d="M16.9414 0H15.8827C15.298 0 14.8241 0.455833 14.8241 1.01813V9.84194C14.8241 10.4042 15.298 10.8601 15.8827 10.8601H16.9414C17.5261 10.8601 18 10.4042 18 9.84194V1.01813C18 0.455833 17.5261 0 16.9414 0ZM10.9412 2.37581H11.9999C12.5846 2.37581 13.0586 2.83164 13.0586 3.39394V9.8421C13.0586 10.4044 12.5846 10.8602 11.9999 10.8602H10.9412C10.3565 10.8602 9.88254 10.4044 9.88254 9.8421V3.39394C9.88254 2.83164 10.3565 2.37581 10.9412 2.37581ZM7.05865 4.75112H5.99996C5.41526 4.75112 4.94127 5.20695 4.94127 5.76925V9.84177C4.94127 10.4041 5.41526 10.8599 5.99996 10.8599H7.05865C7.64335 10.8599 8.11734 10.4041 8.11734 9.84177V5.76925C8.11734 5.20695 7.64335 4.75112 7.05865 4.75112ZM2.1174 6.78738H1.0587C0.473996 6.78738 0 7.24321 0 7.80551V9.84177C0 10.4041 0.473996 10.8599 1.0587 10.8599H2.1174C2.7021 10.8599 3.1761 10.4041 3.1761 9.84177V7.80551C3.1761 7.24321 2.7021 6.78738 2.1174 6.78738Z" fill="black"/>
</svg>
