<svg width="32" height="32" viewBox="0 0 32 32" fill="none" xmlns="http://www.w3.org/2000/svg">
<path fill-rule="evenodd" clip-rule="evenodd" d="M15.9997 29.8334C23.6222 29.8334 29.833 23.6365 29.833 16C29.833 8.37723 23.6225 2.1667 15.9997 2.1667C8.36321 2.1667 2.16634 8.37755 2.16634 16C2.16634 23.5069 8.15524 29.6229 15.6129 29.8281L15.6129 29.8281L15.6198 29.8282L15.9928 29.8333L15.9928 29.8334L15.9997 29.8334ZM28.833 16C28.833 23.0824 23.0724 28.8315 16.0031 28.8334L15.637 28.8283C8.72074 28.6362 3.16634 22.9626 3.16634 16C3.16634 8.92919 8.91614 3.1667 15.9997 3.1667C23.0702 3.1667 28.833 8.92951 28.833 16ZM13.3597 10.6665C12.9731 11.0665 12.9731 11.6932 13.3731 12.0798L17.3064 15.9998L13.3731 19.9198C12.9731 20.3065 12.9731 20.9465 13.3597 21.3332C13.7597 21.7332 14.3864 21.7332 14.7731 21.3332L19.4264 16.7065C19.6131 16.5198 19.7197 16.2665 19.7197 15.9998C19.7197 15.7332 19.6131 15.4798 19.4264 15.2932L14.7731 10.6665C14.5864 10.4665 14.3331 10.3732 14.0797 10.3732C13.8131 10.3732 13.5597 10.4665 13.3597 10.6665Z" fill="#7C4BFF"/>
</svg>
