<svg width="56" height="56" viewBox="0 0 56 56" fill="none" xmlns="http://www.w3.org/2000/svg">
<path d="M24.2426 27.3L12.3062 2.09998H20.5592L32.5894 27.3H24.2426Z" fill="#7C4BFF"/>
<path d="M20.1168 2.80002L31.4806 26.6H24.6864L13.4122 2.80002H20.1168ZM21.0002 1.40002H11.2002L23.8002 28H33.6996L21.0002 1.40002Z" fill="#5920F4"/>
<path d="M23.4106 27.3L35.4408 2.09998H43.6938L31.7574 27.3H23.4106Z" fill="#7C4BFF"/>
<path d="M42.5882 2.80002L31.314 26.6H24.5198L35.8836 2.80002H42.5882ZM44.8002 1.40002H35.0002L22.3008 28H32.2002L44.8002 1.40002Z" fill="#5920F4"/>
<path d="M27.9998 53.9C19.8938 53.9 13.2998 47.306 13.2998 39.2C13.2998 31.094 19.8938 24.5 27.9998 24.5C36.1058 24.5 42.6998 31.094 42.6998 39.2C42.6998 47.306 36.1058 53.9 27.9998 53.9Z" fill="#CBD8E1"/>
<path d="M28.0001 25.2C35.7197 25.2 42.0001 31.4804 42.0001 39.2001C42.0001 46.9197 35.7197 53.2001 28.0001 53.2001C20.2805 53.2001 14.0001 46.9197 14.0001 39.2001C14.0001 31.4804 20.2805 25.2 28.0001 25.2ZM28.0001 23.8C19.4951 23.8 12.6001 30.695 12.6001 39.2001C12.6001 47.705 19.4951 54.6001 28.0001 54.6001C36.5051 54.6001 43.4001 47.705 43.4001 39.2001C43.4001 30.695 36.5051 23.8 28.0001 23.8Z" fill="#A3B7CC"/>
<path d="M27.9998 48.9999C22.5958 48.9999 18.1998 44.6039 18.1998 39.2H16.7998C16.7998 45.3851 21.8146 50.3999 27.9998 50.3999C34.185 50.3999 39.1998 45.3851 39.1998 39.2H37.7998C37.7998 44.6039 33.4038 48.9999 27.9998 48.9999Z" fill="white"/>
<path d="M32.1974 44.8H23.7974V43.6912C23.7974 43.2572 23.859 42.8498 23.9794 42.4704C24.0998 42.091 24.2636 41.734 24.468 41.398C24.6724 41.0634 24.9118 40.747 25.1862 40.4502C25.4606 40.1534 25.7546 39.8664 26.0668 39.5892C26.379 39.312 26.6982 39.0432 27.0244 38.7856C27.3506 38.528 27.6698 38.2676 27.982 38.0058C28.2746 37.7566 28.542 37.513 28.7856 37.2736C29.0292 37.0342 29.235 36.7864 29.4072 36.5316C29.5794 36.2768 29.7138 36.0066 29.809 35.7224C29.9042 35.4382 29.9532 35.1302 29.9532 34.7984C29.9532 34.4344 29.8972 34.118 29.7866 33.8464C29.6746 33.5748 29.5192 33.3494 29.3162 33.1674C29.116 32.9854 28.878 32.8482 28.6036 32.7558C28.3292 32.6634 28.0296 32.6172 27.7034 32.6172C27.142 32.6172 26.5694 32.7474 25.9898 33.0092C25.4102 33.271 24.8516 33.663 24.3154 34.1866V32.053C24.5954 31.843 24.8796 31.6596 25.1666 31.5028C25.4536 31.346 25.7504 31.2158 26.057 31.1108C26.3636 31.0058 26.6842 30.9274 27.023 30.877C27.3618 30.8266 27.7216 30.8 28.1038 30.8C28.7226 30.8 29.284 30.8812 29.788 31.0436C30.292 31.206 30.7218 31.4454 31.0802 31.7618C31.4386 32.0782 31.713 32.4716 31.909 32.9434C32.1036 33.4166 32.2002 33.9584 32.2002 34.5702C32.2002 35.1246 32.1316 35.6244 31.9944 36.0682C31.8572 36.512 31.664 36.925 31.412 37.3072C31.1586 37.6894 30.8548 38.0534 30.4978 38.3978C30.1408 38.7422 29.7418 39.0964 29.3022 39.4604C28.9326 39.76 28.5644 40.0526 28.1976 40.3354C27.8294 40.6196 27.5004 40.8968 27.2064 41.1684C26.9124 41.44 26.6744 41.7102 26.4938 41.9818C26.3104 42.2534 26.2208 42.5264 26.2208 42.7994V42.847H32.2002V44.8H32.1974Z" fill="white"/>
</svg>
