<svg width="12" height="12" viewBox="0 0 12 12" fill="none" xmlns="http://www.w3.org/2000/svg">
<path fill-rule="evenodd" clip-rule="evenodd" d="M12 2.52054C12 2.22501 11.8826 1.94159 11.6736 1.73262C11.4647 1.52365 11.1812 1.40625 10.8857 1.40625H1.11429C0.818759 1.40625 0.535336 1.52365 0.326367 1.73262C0.117398 1.94159 0 2.22501 0 2.52054L0 9.47882C0 9.77435 0.117398 10.0578 0.326367 10.2667C0.535336 10.4757 0.818759 10.5931 1.11429 10.5931H10.8857C11.1812 10.5931 11.4647 10.4757 11.6736 10.2667C11.8826 10.0578 12 9.77435 12 9.47882V2.52054ZM5.688 6.92882L2.31429 3.71711C2.25799 3.6616 2.22006 3.59017 2.20562 3.51245C2.19118 3.43472 2.20091 3.35443 2.23351 3.28241C2.26611 3.21039 2.32001 3.15009 2.38795 3.10965C2.45588 3.06921 2.53457 3.05058 2.61343 3.05625H9.38914C9.46822 3.05026 9.54722 3.0688 9.61538 3.10932C9.68354 3.14985 9.73756 3.2104 9.77007 3.28273C9.80258 3.35506 9.81201 3.43566 9.79707 3.51354C9.78213 3.59142 9.74354 3.6628 9.68657 3.71796L6.28457 6.92968C6.20314 7.00437 6.09662 7.04574 5.98612 7.04559C5.87562 7.04543 5.76921 7.00375 5.688 6.92882Z" fill="#7C4BFF"/>
</svg>
