<svg width="18" height="18" viewBox="0 0 18 18" fill="none" xmlns="http://www.w3.org/2000/svg">
<g clip-path="url(#clip0_3165_84935)">
<path d="M1.08594 15.363V14.0696C1.10992 13.5984 1.26227 13.1427 1.52649 12.7518C1.79072 12.3609 2.15677 12.0496 2.58508 11.8517C6.70153 10.1982 11.2975 10.1982 15.4139 11.8517C15.8422 12.0496 16.2083 12.3609 16.4725 12.7518C16.7367 13.1427 16.8891 13.5984 16.9131 14.0696V15.363C16.9129 15.7097 16.8444 16.0529 16.7115 16.3731C16.5786 16.6933 16.3839 16.9842 16.1385 17.2291C15.8931 17.474 15.6019 17.6681 15.2815 17.8004C14.961 17.9327 14.6176 18.0005 14.2709 18H3.72808C3.3814 18.0005 3.03802 17.9327 2.71756 17.8004C2.39711 17.6681 2.10587 17.474 1.86049 17.2291C1.61511 16.9842 1.42041 16.6933 1.2875 16.3731C1.1546 16.0529 1.08611 15.7097 1.08594 15.363ZM8.99951 1.88057e-07C8.12978 -0.000254118 7.27951 0.257418 6.55624 0.740427C5.83296 1.22344 5.26917 1.91009 4.93616 2.71354C4.60316 3.51699 4.51589 4.40115 4.68541 5.25419C4.85493 6.10724 5.27362 6.89086 5.88852 7.50594C6.50342 8.12102 7.28691 8.53993 8.13991 8.7097C8.99291 8.87947 9.87709 8.79247 10.6806 8.4597C11.4842 8.12692 12.171 7.56333 12.6542 6.8402C13.1374 6.11706 13.3954 5.26687 13.3954 4.39714C13.3955 3.81976 13.282 3.24801 13.0611 2.71453C12.8403 2.18105 12.5165 1.6963 12.1083 1.28797C11.7001 0.879642 11.2154 0.555731 10.682 0.334738C10.1486 0.113745 9.57689 1.6336e-07 8.99951 1.88057e-07Z" fill="#FF5C1B"/>
</g>
<defs>
<clipPath id="clip0_3165_84935">
<rect width="18" height="18" fill="white"/>
</clipPath>
</defs>
</svg>
