<svg width="16" height="11" viewBox="0 0 16 11" fill="none" xmlns="http://www.w3.org/2000/svg">
<path fill-rule="evenodd" clip-rule="evenodd" d="M7.96681 2.28443C10.2785 2.28452 12.5018 3.13861 14.1772 4.67017C14.3034 4.78841 14.505 4.78692 14.6293 4.66683L15.8353 3.49652C15.8982 3.43561 15.9333 3.35311 15.9327 3.26726C15.9322 3.18141 15.8961 3.0993 15.8325 3.0391C11.4351 -1.01303 4.49779 -1.01303 0.100435 3.0391C0.0367365 3.09926 0.000594647 3.18134 7.2722e-06 3.26719C-0.000580102 3.35304 0.0344355 3.43557 0.0973056 3.49652L1.30364 4.66683C1.42781 4.7871 1.62962 4.7886 1.75571 4.67017C3.43131 3.13851 5.65488 2.28442 7.96681 2.28443ZM7.96686 6.09192C9.237 6.09185 10.4618 6.54579 11.4033 7.36555C11.5307 7.48189 11.7313 7.47937 11.8554 7.35986L13.06 6.18956C13.1234 6.12817 13.1586 6.0449 13.1577 5.95836C13.1568 5.87183 13.1199 5.78926 13.0551 5.72913C10.1881 3.16478 5.74807 3.16478 2.88102 5.72913C2.81625 5.78926 2.7793 5.87187 2.77845 5.95843C2.7776 6.04499 2.81293 6.12826 2.8765 6.18956L4.08075 7.35986C4.20489 7.47937 4.40549 7.48189 4.53283 7.36555C5.4737 6.54633 6.69755 6.09243 7.96686 6.09192ZM10.3792 8.65385C10.381 8.74062 10.3455 8.82429 10.2811 8.88508L8.19774 10.907C8.13667 10.9665 8.0534 10.9999 7.96652 10.9999C7.87965 10.9999 7.79638 10.9665 7.73531 10.907L5.65158 8.88508C5.58721 8.82424 5.5518 8.74055 5.55371 8.65377C5.55562 8.567 5.59467 8.48482 5.66166 8.42666C6.99219 7.34441 8.94086 7.34441 10.2714 8.42666C10.3383 8.48487 10.3773 8.56707 10.3792 8.65385Z" fill="black"/>
</svg>
