<svg width="71" height="29" viewBox="0 0 71 29" fill="none" xmlns="http://www.w3.org/2000/svg">
<path d="M30.8295 3.02375C30.6571 2.86635 30.52 2.67341 30.4275 2.45791C30.3349 2.24241 30.289 2.00935 30.2928 1.7744C30.2874 1.53656 30.3325 1.3003 30.425 1.08163C30.5176 0.862961 30.6556 0.666976 30.8295 0.506941C31.208 0.162196 31.7046 -0.0191511 32.2134 0.00160386C32.7165 -0.0173687 33.2069 0.164056 33.5794 0.506941C33.7533 0.666976 33.8912 0.862961 33.9838 1.08163C34.0764 1.3003 34.1215 1.53656 34.116 1.7744C34.1199 2.00935 34.0739 2.24241 33.9814 2.45791C33.8888 2.67341 33.7517 2.86635 33.5794 3.02375C33.2069 3.36664 32.7165 3.54806 32.2134 3.52909C31.7046 3.54984 31.208 3.3685 30.8295 3.02375ZM33.8152 4.63524V15.2737H30.5937V4.63524H33.8152Z" fill="#111827"/>
<path d="M36.1229 7.05653C36.4907 6.27536 37.0684 5.61479 37.7897 5.1504C38.4951 4.70378 39.3125 4.47181 40.1445 4.4821C40.8008 4.47462 41.4494 4.62466 42.0374 4.91995C42.5805 5.18881 43.0447 5.59682 43.3839 6.10346V1.16531H46.6054V15.2736H43.3839V13.7494C43.0723 14.2677 42.6263 14.6896 42.0943 14.9691C41.4918 15.2844 40.8209 15.4417 40.1428 15.4267C39.3098 15.4365 38.4918 15.2015 37.7881 14.7502C37.066 14.278 36.4887 13.6109 36.1213 12.8243C35.6978 11.9227 35.4878 10.9336 35.5082 9.93547C35.4877 8.94035 35.6982 7.95425 36.1229 7.05653ZM42.7155 8.02934C42.5052 7.80787 42.2531 7.6315 41.974 7.51072C41.695 7.38994 41.3948 7.32722 41.0914 7.3263C40.7879 7.32537 40.4874 7.38627 40.2076 7.50535C39.9279 7.62444 39.6747 7.79928 39.4631 8.01946C39.0175 8.48365 38.7947 9.12232 38.7947 9.93547C38.7947 10.7486 39.0175 11.3939 39.4631 11.8712C39.6726 12.0946 39.9248 12.2724 40.2044 12.3939C40.484 12.5155 40.785 12.5781 41.0893 12.5781C41.3936 12.5781 41.6946 12.5155 41.9742 12.3939C42.2538 12.2724 42.506 12.0946 42.7155 11.8712C43.1611 11.4026 43.3839 10.7612 43.3839 9.94699C43.3839 9.13274 43.1611 8.49353 42.7155 8.02934Z" fill="#111827"/>
<path d="M58.792 10.7355H51.5017C51.5516 11.3939 51.7619 11.8993 52.1327 12.2515C52.5022 12.6014 52.9929 12.7901 53.4987 12.7766C54.302 12.7766 54.8609 12.4331 55.1753 11.7462H58.6033C58.4305 12.4399 58.1053 13.0853 57.652 13.6342C57.1848 14.2012 56.595 14.6517 55.9282 14.951C55.1996 15.278 54.4095 15.4409 53.6125 15.4284C52.6541 15.4464 51.707 15.2163 50.861 14.7601C50.0643 14.3225 49.4102 13.6604 48.9778 12.854C48.5094 11.9627 48.2754 10.9645 48.2981 9.95528C48.275 8.94736 48.5049 7.95 48.9665 7.05658C49.3939 6.24928 50.0458 5.58656 50.8415 5.15045C51.6903 4.71444 52.6282 4.48556 53.5801 4.48213C54.532 4.4787 55.4715 4.70081 56.3234 5.1307C57.1042 5.55409 57.7482 6.19574 58.1789 6.97922C58.6378 7.83747 58.8681 8.80184 58.8473 9.7775C58.847 10.0976 58.8285 10.4175 58.792 10.7355ZM55.5526 8.92485C55.5632 8.67361 55.5179 8.42317 55.42 8.19208C55.322 7.96098 55.1739 7.75517 54.9867 7.5899C54.5924 7.25356 54.0887 7.07756 53.5735 7.09609C53.0764 7.08119 52.591 7.25099 52.2091 7.57344C51.8219 7.92246 51.5767 8.40472 51.5212 8.92649L55.5526 8.92485Z" fill="#111827"/>
<path d="M60.5158 7.05663C60.8836 6.27546 61.4613 5.61489 62.1827 5.1505C62.8881 4.70389 63.7054 4.47191 64.5374 4.4822C65.2155 4.46718 65.8864 4.62452 66.4888 4.93981C67.017 5.21661 67.4623 5.63152 67.7784 6.14142V4.63529H70.9999V15.2737H67.7768V13.7676C67.4524 14.2746 67.0043 14.6885 66.4758 14.9692C65.8734 15.2846 65.2025 15.442 64.5244 15.4268C63.6977 15.4347 62.8865 15.1997 62.1892 14.7503C61.4671 14.2781 60.8898 13.611 60.5223 12.8244C60.0988 11.9228 59.8889 10.9337 59.9092 9.93557C59.8862 8.94111 60.0939 7.95504 60.5158 7.05663ZM67.1084 8.02944C66.8981 7.80798 66.646 7.6316 66.367 7.51082C66.0879 7.39004 65.7878 7.32732 65.4843 7.3264C65.1808 7.32548 64.8803 7.38637 64.6006 7.50545C64.3208 7.62454 64.0676 7.79938 63.856 8.01957C63.4105 8.48375 63.1877 9.12242 63.1877 9.93557C63.1877 10.7487 63.4105 11.394 63.856 11.8713C64.0655 12.0947 64.3178 12.2725 64.5973 12.394C64.8769 12.5156 65.178 12.5782 65.4822 12.5782C65.7865 12.5782 66.0876 12.5156 66.3671 12.394C66.6467 12.2725 66.8989 12.0947 67.1084 11.8713C67.554 11.4027 67.7768 10.7613 67.7768 9.94709C67.7768 9.13285 67.554 8.49363 67.1084 8.02944Z" fill="#111827"/>
<path d="M35.1146 17.914C35.7128 17.5978 36.3798 17.4382 37.0546 17.4498C37.8855 17.4376 38.7025 17.666 39.4094 18.1083C40.13 18.5742 40.7074 19.2351 41.0762 20.016C41.5005 20.9138 41.7105 21.9 41.6893 22.895C41.7098 23.8925 41.4999 24.8812 41.0762 25.7821C40.7083 26.5685 40.1311 27.2354 39.4094 27.708C38.706 28.1604 37.8879 28.396 37.0546 28.3862C36.3811 28.4022 35.7142 28.2477 35.1146 27.9368C34.5854 27.6615 34.1369 27.2506 33.8136 26.7451V28.2265H30.5937V16.7124H33.8152V19.1156C34.1326 18.6031 34.5817 18.1877 35.1146 17.914ZM37.7425 20.9921C37.5313 20.7678 37.2765 20.5902 36.9941 20.4706C36.7116 20.3511 36.4078 20.2921 36.1017 20.2975C35.797 20.2931 35.4948 20.3536 35.2147 20.4749C34.9345 20.5963 34.6827 20.7759 34.4755 21.002C34.0299 21.4728 33.8071 22.1147 33.8071 22.9279C33.8071 23.741 34.0299 24.3846 34.4755 24.8538C34.6866 25.0778 34.9405 25.2559 35.2219 25.3773C35.5032 25.4987 35.8061 25.5609 36.1119 25.5599C36.4177 25.559 36.7202 25.495 37.0008 25.3719C37.2814 25.2488 37.5344 25.0692 37.7441 24.8439C38.1962 24.3687 38.4223 23.724 38.4223 22.9098C38.4109 22.095 38.1881 21.458 37.7425 20.9921Z" fill="#111827"/>
<path d="M45.3905 27.7326C44.5771 27.2975 43.9034 26.6362 43.4488 25.8265C42.9637 24.9407 42.7201 23.9403 42.7431 22.9278C42.7226 21.9175 42.9696 20.92 43.4586 20.039C43.9188 19.2249 44.5985 18.5603 45.4182 18.123C46.2835 17.6845 47.2378 17.4563 48.2055 17.4563C49.1731 17.4563 50.1275 17.6845 50.9928 18.123C51.8129 18.5597 52.4928 19.2245 52.9524 20.039C53.4421 20.9197 53.6892 21.9174 53.6679 22.9278C53.6891 23.9395 53.4384 24.938 52.9426 25.8166C52.4771 26.6328 51.7911 27.2975 50.9651 27.7326C50.1014 28.1853 49.1406 28.4149 48.1681 28.4009C47.2016 28.4166 46.2466 28.1869 45.3905 27.7326ZM49.7406 24.8915C50.1743 24.4339 50.3911 23.7794 50.3911 22.9278C50.3911 22.0763 50.1813 21.4217 49.7618 20.9641C49.5622 20.7484 49.3212 20.5762 49.0535 20.4582C48.7858 20.3403 48.4971 20.2789 48.2051 20.278C47.9132 20.2771 47.6241 20.3366 47.3557 20.4529C47.0873 20.5691 46.8452 20.7397 46.6443 20.9542C46.2302 21.4052 46.0226 22.0636 46.0215 22.9295C46.0204 23.7953 46.2248 24.4499 46.6346 24.8932C46.8253 25.1143 47.0616 25.2903 47.3268 25.4089C47.5921 25.5275 47.8798 25.5858 48.1697 25.5796C48.4646 25.5831 48.757 25.5237 49.0276 25.4051C49.2983 25.2866 49.5413 25.1116 49.7406 24.8915Z" fill="#111827"/>
<path d="M61.5987 28.2479L59.5822 25.2932L57.8926 28.2479H54.4028L57.8682 22.8159L54.315 17.6144H57.9251L59.9416 20.5509L61.6329 17.6144H65.1178L61.5954 22.9723L65.2105 28.2479H61.5987Z" fill="#111827"/>
<path d="M24.271 0.108582H3.67846C2.70327 0.109889 1.76839 0.50259 1.07882 1.20057C0.389257 1.89856 0.00129079 2.84485 0 3.83195L0 24.6759C0.000860492 25.6633 0.388636 26.61 1.07825 27.3083C1.76786 28.0067 2.70299 28.3996 3.67846 28.4009H24.271C25.2468 28.4 26.1823 28.0073 26.8723 27.3089C27.5623 26.6105 27.9503 25.6635 27.9511 24.6759V3.83195C27.9498 2.84457 27.5616 1.89802 26.8717 1.19999C26.1818 0.501963 25.2465 0.109453 24.271 0.108582ZM24.271 2.62375C24.5878 2.62375 24.8915 2.75099 25.1156 2.97752C25.3397 3.20406 25.4659 3.51136 25.4663 3.83195V23.0315L25.45 23.02C23.7214 25.0561 20.6511 26.2396 18.0622 25.4067C17.0133 25.0693 15.992 24.3302 14.8423 24.4882C14.1447 24.5837 13.5414 25.0117 12.9267 25.359C12.0274 25.8676 10.6581 26.1968 10.0174 25.122C9.80149 24.7164 9.70711 24.2559 9.74582 23.7969C9.79785 22.5393 10.3687 21.3591 11.0647 20.3155C12.5738 18.0522 14.5447 16.0786 15.7481 13.6144C15.8571 13.3906 15.9709 12.9988 15.6359 12.956C15.4196 12.9231 15.1334 13.0844 14.9513 13.1865C14.3626 13.5157 13.8129 13.993 13.2633 14.3864C11.9981 15.2852 10.7427 16.1971 9.44009 17.0366C8.21231 17.83 6.91298 18.5773 5.48842 18.9312C4.92251 19.0727 4.20861 19.1484 3.71912 18.7567C3.39388 18.4999 3.24752 18.0785 3.19223 17.667C3.14222 17.3278 3.15602 16.9821 3.23289 16.6481C3.44267 15.7757 4.12404 15.0843 4.37123 14.2202C4.71435 12.9906 3.95492 12.1708 3.49308 11.1272C3.0022 9.99151 2.71847 8.77523 2.65558 7.53721C2.56126 5.90597 2.8182 4.30436 3.21662 2.72909C3.36463 2.66495 3.52397 2.63191 3.68497 2.63198L24.271 2.62375ZM2.95318 2.87395C3.0311 2.81285 3.11634 2.76196 3.20687 2.72251L2.95318 2.87395Z" fill="#7C4BFF"/>
<path d="M25.4095 3.48627C25.4457 3.59788 25.4649 3.71446 25.4664 3.83194V23.0315L25.4501 23.02C23.7215 25.0561 20.6512 26.2396 18.0623 25.4067C17.0134 25.0693 15.9921 24.3302 14.8424 24.4882C14.1448 24.5837 13.5414 25.0117 12.9267 25.359C12.0274 25.8676 10.6582 26.1968 10.0175 25.122C9.80156 24.7164 9.70718 24.2559 9.74589 23.7969C9.79793 22.5393 10.3687 21.3591 11.0647 20.3155C12.5739 18.0522 14.5448 16.0802 15.7482 13.6144C15.8344 13.4366 15.9206 13.1552 15.7856 13.0202L1.22623 27.4429C1.89804 28.0589 2.77203 28.4004 3.67854 28.4009H24.2711C25.2469 28.4 26.1824 28.0073 26.8724 27.3089C27.5623 26.6105 27.9503 25.6635 27.9512 24.6759V3.83194C27.9503 3.05192 27.7062 2.2921 27.2536 1.6608L25.4095 3.48627Z" fill="#5C43D6"/>
<path d="M19.2834 15.4349C20.8998 12.8473 21.7227 9.88115 21.9357 7.00385C21.9484 6.93849 21.9439 6.87092 21.9227 6.80784C21.9016 6.74477 21.8645 6.68839 21.8152 6.64429C21.7659 6.6002 21.7061 6.56993 21.6416 6.55648C21.5772 6.54304 21.5104 6.54689 21.4479 6.56765C18.6475 7.09932 15.8245 8.25156 13.46 10.161C12.3769 11.0367 13.9202 11.1898 14.5235 11.3132C15.3577 11.4926 16.2408 11.6424 16.8717 12.2185C17.4994 12.7914 17.7499 13.6638 18.0101 14.4819C18.2215 15.0843 18.5386 16.6267 19.2834 15.4349Z" fill="#FF5C1B"/>
<path d="M16.6296 11.924C16.7163 11.9729 16.7994 12.0279 16.8784 12.0886C17.5061 12.6598 17.7565 13.5322 18.0248 14.3503C18.2184 14.9429 18.5371 16.4803 19.2787 15.2951C20.8951 12.7059 21.7179 9.73973 21.931 6.86408C21.9367 6.8003 21.93 6.736 21.9115 6.67478L16.6296 11.924Z" fill="#E05828"/>
</svg>
