<svg width="25" height="25" viewBox="0 0 25 25" fill="none" xmlns="http://www.w3.org/2000/svg">
<path d="M5.48856 10.1562C5.48727 9.22964 5.66938 8.31199 6.02439 7.45614C6.3794 6.6003 6.90029 5.82318 7.55704 5.16958C8.21378 4.51599 8.9934 3.99884 9.85094 3.64796C10.7085 3.29707 11.627 3.11938 12.5535 3.12514C16.4197 3.15388 19.5122 6.36745 19.5122 10.2445V10.9374C19.5122 14.4351 20.2439 16.4647 20.8885 17.574C20.9579 17.6925 20.9948 17.8273 20.9956 17.9646C20.9963 18.102 20.9608 18.2371 20.8926 18.3564C20.8245 18.4756 20.7261 18.5748 20.6074 18.6439C20.4886 18.713 20.3538 18.7496 20.2164 18.7499H4.78354C4.64616 18.7496 4.5113 18.713 4.39257 18.6439C4.27384 18.5748 4.17543 18.4756 4.10728 18.3563C4.03913 18.237 4.00365 18.1018 4.00441 17.9645C4.00517 17.8271 4.04214 17.6923 4.11161 17.5738C4.75646 16.4645 5.48856 14.4349 5.48856 10.9374L5.48856 10.1562Z" stroke="#111827" stroke-width="2" stroke-linecap="round" stroke-linejoin="round"/>
<path d="M9.375 18.75V19.5312C9.375 20.3601 9.70424 21.1549 10.2903 21.741C10.8763 22.327 11.6712 22.6562 12.5 22.6562C13.3288 22.6562 14.1237 22.327 14.7097 21.741C15.2958 21.1549 15.625 20.3601 15.625 19.5312V18.75" stroke="#111827" stroke-width="2" stroke-linecap="round" stroke-linejoin="round"/>
</svg>
