<svg width="12" height="12" viewBox="0 0 12 12" fill="none" xmlns="http://www.w3.org/2000/svg">
<g clip-path="url(#clip0_1451_29172)">
<path fill-rule="evenodd" clip-rule="evenodd" d="M7.11439 0.353218L0.920678 6.61807L0.0635355 10.5609C0.0210068 10.7555 0.0280743 10.9576 0.084088 11.1487C0.140102 11.3399 0.243264 11.5138 0.38409 11.6547C0.524916 11.7955 0.698886 11.8987 0.890005 11.9547C1.08112 12.0107 1.28326 12.0177 1.47782 11.9752L5.42068 11.1181L11.623 4.84293C11.8439 4.61961 11.9675 4.31791 11.9667 4.00376C11.9659 3.68961 11.8408 3.38855 11.6187 3.16636L8.80125 0.348075C8.69036 0.237283 8.55866 0.149499 8.41374 0.0897652C8.26881 0.0300319 8.11351 -0.000472378 7.95675 5.52969e-06C7.8 0.000483437 7.64488 0.0319341 7.50032 0.09255C7.35576 0.153166 7.22461 0.241752 7.11439 0.353218ZM2.40868 10.6844L1.35096 9.6275L1.89096 7.14779L4.89096 10.1478L2.40868 10.6844Z" fill="#9CA3AF"/>
</g>
<defs>
<clipPath id="clip0_1451_29172">
<rect width="12" height="12" fill="white"/>
</clipPath>
</defs>
</svg>
