<svg width="20" height="20" viewBox="0 0 20 20" fill="none" xmlns="http://www.w3.org/2000/svg">
<path d="M10 12.5C11.7259 12.5 13.125 11.1009 13.125 9.375C13.125 7.64911 11.7259 6.25 10 6.25C8.27411 6.25 6.875 7.64911 6.875 9.375C6.875 11.1009 8.27411 12.5 10 12.5Z" stroke="white" stroke-width="2" stroke-miterlimit="10"/>
<path d="M4.98425 15.5761C5.45504 14.6505 6.17278 13.8732 7.05803 13.3303C7.94327 12.7874 8.96148 12.5 9.99994 12.5C11.0384 12.5 12.0566 12.7874 12.9419 13.3303C13.8271 13.8732 14.5448 14.6505 15.0156 15.5761" stroke="white" stroke-width="2" stroke-linecap="round" stroke-linejoin="round"/>
<path d="M13.75 4.375H17.5" stroke="white" stroke-width="2" stroke-linecap="round" stroke-linejoin="round"/>
<path d="M15.625 2.5V6.25" stroke="white" stroke-width="2" stroke-linecap="round" stroke-linejoin="round"/>
<path d="M17.4072 8.81703C17.6555 10.38 17.4025 11.9814 16.6845 13.3917C15.9665 14.8019 14.8204 15.9487 13.4105 16.6674C12.0007 17.3862 10.3994 17.6401 8.83631 17.3927C7.27324 17.1453 5.82863 16.4094 4.70962 15.2904C3.5906 14.1713 2.85464 12.7267 2.60726 11.1637C2.35987 9.60058 2.61377 7.99931 3.33254 6.58943C4.05131 5.17955 5.19805 4.03346 6.60833 3.31548C8.01862 2.5975 9.62003 2.34451 11.183 2.59278" stroke="white" stroke-width="2" stroke-linecap="round" stroke-linejoin="round"/>
</svg>
