<svg width="20" height="20" viewBox="0 0 20 20" fill="none" xmlns="http://www.w3.org/2000/svg">
<g clip-path="url(#clip0_0_222)">
<path fill-rule="evenodd" clip-rule="evenodd" d="M17.5114 3.75L11.7543 3.73714L9.84714 1.82857C9.46174 1.4675 8.95657 1.26146 8.42857 1.25H2.48857C1.82763 1.2534 1.19489 1.51824 0.728604 1.98668C0.262312 2.45511 0.00036874 3.08905 0 3.75L0 16.25C0.00339561 16.9137 0.269249 17.5492 0.739516 18.0175C1.20978 18.4859 1.84627 18.7493 2.51 18.75H17.49C17.8194 18.7521 18.1459 18.6889 18.4507 18.5641C18.7555 18.4393 19.0326 18.2554 19.2659 18.023C19.4993 17.7906 19.6843 17.5142 19.8103 17.2099C19.9363 16.9056 20.0008 16.5794 20 16.25V6.25C20.0004 5.58882 19.7387 4.95444 19.2722 4.48585C18.8058 4.01725 18.1726 3.75265 17.5114 3.75ZM6.21571 10.2557L9.60857 6.85714C9.72256 6.74408 9.8766 6.68064 10.0371 6.68064C10.1977 6.68064 10.3517 6.74408 10.4657 6.85714L13.8571 10.2557C13.9422 10.3405 14.0003 10.4487 14.0238 10.5665C14.0474 10.6844 14.0355 10.8065 13.9896 10.9176C13.9437 11.0286 13.8659 11.1236 13.7661 11.1904C13.6662 11.2572 13.5487 11.2928 13.4286 11.2929H11.2529V14.1743C11.2377 14.4861 11.1032 14.7802 10.8771 14.9956C10.6511 15.211 10.3508 15.3311 10.0386 15.3311C9.72634 15.3311 9.42609 15.211 9.20002 14.9956C8.97396 14.7802 8.83942 14.4861 8.82429 14.1743V11.2929H6.64429C6.52413 11.2928 6.40667 11.2572 6.3068 11.1904C6.20692 11.1236 6.12911 11.0286 6.08322 10.9176C6.03733 10.8065 6.02543 10.6844 6.04901 10.5665C6.0726 10.4487 6.13061 10.3405 6.21571 10.2557Z" fill="#4619BE"/>
</g>
<defs>
<clipPath id="clip0_0_222">
<rect width="20" height="20" fill="white"/>
</clipPath>
</defs>
</svg>
