<svg width="24" height="24" viewBox="0 0 24 24" fill="none" xmlns="http://www.w3.org/2000/svg">
<g clip-path="url(#clip0_0_542)">
<path d="M14.4 17.6241V21.8499C14.4 22.1681 14.5264 22.4733 14.7515 22.6984C14.9765 22.9234 15.2817 23.0499 15.6 23.0499H22.8C23.1183 23.0499 23.4235 22.9234 23.6485 22.6984C23.8736 22.4733 24 22.1681 24 21.8499V11.2419C24 10.9897 23.9504 10.74 23.8539 10.5071C23.7574 10.2741 23.616 10.0624 23.4377 9.88414L13.356 1.51843C13.178 1.34023 12.9666 1.19885 12.7339 1.1024C12.5013 1.00595 12.2519 0.956299 12 0.956299C11.7481 0.956299 11.4987 1.00595 11.2661 1.1024C11.0334 1.19885 10.822 1.34023 10.644 1.51843L0.562286 9.88414C0.384002 10.0624 0.242583 10.2741 0.146106 10.5071C0.0496287 10.74 -1.81875e-05 10.9897 4.99802e-09 11.2419L4.99802e-09 21.8499C4.99802e-09 22.1681 0.126428 22.4733 0.351472 22.6984C0.576515 22.9234 0.88174 23.0499 1.2 23.0499H8.4C8.71826 23.0499 9.02348 22.9234 9.24853 22.6984C9.47357 22.4733 9.6 22.1681 9.6 21.8499V17.6241C9.6 16.9876 9.85286 16.3772 10.3029 15.9271C10.753 15.477 11.3635 15.2241 12 15.2241C12.6365 15.2241 13.247 15.477 13.6971 15.9271C14.1471 16.3772 14.4 16.9876 14.4 17.6241Z" fill="#7C4BFF"/>
</g>
<defs>
<clipPath id="clip0_0_542">
<rect width="24" height="24" fill="white"/>
</clipPath>
</defs>
</svg>
