<svg width="24" height="24" viewBox="0 0 24 24" fill="none" xmlns="http://www.w3.org/2000/svg">
<g clip-path="url(#clip0_1329_18959)">
<path d="M13.5 1.5C13.5 0.671573 12.8284 0 12 0C11.1716 0 10.5 0.671573 10.5 1.5V3C10.5 3.82843 11.1716 4.5 12 4.5C12.8284 4.5 13.5 3.82843 13.5 3V1.5Z" fill="#1F2937"/>
<path d="M20.4852 5.63596C21.071 5.05017 21.071 4.10043 20.4852 3.51464C19.8994 2.92885 18.9497 2.92885 18.3639 3.51464L17.3032 4.5753C16.7175 5.16109 16.7175 6.11083 17.3032 6.69662C17.889 7.28241 18.8388 7.28241 19.4246 6.69662L20.4852 5.63596Z" fill="#1F2937"/>
<path d="M24 12C24 12.8284 23.3284 13.5 22.5 13.5H21C20.1716 13.5 19.5 12.8284 19.5 12C19.5 11.1716 20.1716 10.5 21 10.5H22.5C23.3284 10.5 24 11.1716 24 12Z" fill="#1F2937"/>
<path d="M4.57528 6.69665C5.16107 7.28243 6.11082 7.28243 6.6966 6.69665C7.28239 6.11086 7.28239 5.16111 6.6966 4.57533L5.63594 3.51467C5.05016 2.92888 4.10041 2.92888 3.51462 3.51467C2.92884 4.10045 2.92884 5.0502 3.51462 5.63599L4.57528 6.69665Z" fill="#1F2937"/>
<path d="M4.5 12C4.5 12.8284 3.82843 13.5 3 13.5H1.5C0.671573 13.5 -1.78814e-07 12.8284 0 12C0 11.1716 0.671573 10.5 1.5 10.5H3C3.82843 10.5 4.5 11.1716 4.5 12Z" fill="#1F2937"/>
<path d="M9 21V19.5H15V21C15 22.6569 13.6569 24 12 24C10.3431 24 9 22.6569 9 21Z" fill="#1F2937"/>
<path d="M15.0013 18C15.0232 17.4895 15.3114 17.0306 15.7152 16.7117C17.1068 15.6129 18 13.9108 18 12C18 8.68629 15.3137 6 12 6C8.68629 6 6 8.68629 6 12C6 13.9108 6.89317 15.6129 8.28478 16.7117C8.68861 17.0306 8.97677 17.4895 8.99866 18H15.0013Z" fill="#1F2937"/>
</g>
<defs>
<clipPath id="clip0_1329_18959">
<rect width="24" height="24" fill="white"/>
</clipPath>
</defs>
</svg>
