<svg width="14" height="14" viewBox="0 0 14 14" fill="none" xmlns="http://www.w3.org/2000/svg">
<g clip-path="url(#clip0_2753_70728)">
<path fill-rule="evenodd" clip-rule="evenodd" d="M1.46931 3.00014C1.85384 2.99688 2.22524 3.13986 2.50831 3.40014L7.00831 7.64714L11.5003 3.40514C11.783 3.14463 12.1534 3 12.5378 3C12.9222 3 13.2926 3.14463 13.5753 3.40514C13.711 3.5299 13.8193 3.68146 13.8934 3.85024C13.9675 4.01901 14.0057 4.20132 14.0057 4.38564C14.0057 4.56996 13.9675 4.75228 13.8934 4.92105C13.8193 5.08982 13.711 5.24138 13.5753 5.36614L8.04031 10.5931C7.75859 10.8548 7.38831 11.0003 7.00381 11.0003C6.6193 11.0003 6.24903 10.8548 5.96731 10.5931L0.434309 5.36614C0.298359 5.24155 0.189805 5.09004 0.115542 4.92124C0.041279 4.75245 0.00292969 4.57005 0.00292969 4.38564C0.00292969 4.20123 0.041279 4.01884 0.115542 3.85004C0.189805 3.68125 0.298359 3.52974 0.434309 3.40514C0.715273 3.14347 1.08537 2.99865 1.46931 3.00014Z" fill="#6B7280"/>
</g>
<defs>
<clipPath id="clip0_2753_70728">
<rect width="14" height="14" fill="white"/>
</clipPath>
</defs>
</svg>
