<svg width="14" height="14" viewBox="0 0 14 14" fill="none" xmlns="http://www.w3.org/2000/svg">
<g clip-path="url(#clip0_866_27626)">
<path d="M13.0601 0.832H9.48508V0.66C9.48508 0.1 9.02308 0 8.45908 0H5.52208C4.95808 0 4.50008 0.1 4.50008 0.66V0.832H0.939079C0.859067 0.831868 0.779816 0.847531 0.705869 0.878089C0.631922 0.908648 0.564734 0.953501 0.508157 1.01008C0.45158 1.06666 0.406727 1.13384 0.376168 1.20779C0.34561 1.28174 0.329947 1.36099 0.330079 1.441V2.617C0.330079 2.77852 0.394241 2.93342 0.508451 3.04763C0.622661 3.16184 0.777562 3.226 0.939079 3.226H13.0601C13.2216 3.226 13.3765 3.16184 13.4907 3.04763C13.6049 2.93342 13.6691 2.77852 13.6691 2.617V1.441C13.6691 1.27948 13.6049 1.12458 13.4907 1.01037C13.3765 0.896162 13.2216 0.832 13.0601 0.832Z" fill="#EE4443"/>
<path d="M11.7819 4.84375H2.21694C2.13095 4.84451 2.0461 4.86343 1.96794 4.89929C1.88979 4.93514 1.8201 4.98712 1.76344 5.0518C1.70678 5.11648 1.66444 5.19241 1.63919 5.27461C1.61395 5.35681 1.60636 5.44342 1.61694 5.52875L2.59794 12.9508C2.63453 13.2393 2.77465 13.5047 2.99225 13.6976C3.20985 13.8906 3.49012 13.9979 3.78094 13.9998H10.2179C10.5096 13.9992 10.7911 13.8923 11.0097 13.6993C11.2284 13.5062 11.3692 13.2401 11.4059 12.9508L12.3859 5.52875C12.3967 5.44305 12.3891 5.35605 12.3637 5.2735C12.3383 5.19095 12.2956 5.11476 12.2385 5.04998C12.1814 4.98519 12.1111 4.9333 12.0324 4.89775C11.9537 4.86219 11.8683 4.84378 11.7819 4.84375Z" fill="#EE4443"/>
</g>
<defs>
<clipPath id="clip0_866_27626">
<rect width="14" height="14" fill="white"/>
</clipPath>
</defs>
</svg>
