<svg width="15" height="15" viewBox="0 0 15 15" fill="none" xmlns="http://www.w3.org/2000/svg">
<g clip-path="url(#clip0_1490_28739)">
<path fill-rule="evenodd" clip-rule="evenodd" d="M7.5 0C6.01664 0 4.5666 0.439867 3.33323 1.26398C2.09986 2.08809 1.13856 3.25943 0.570907 4.62987C0.00324969 6.00032 -0.145275 7.50832 0.144114 8.96318C0.433503 10.418 1.14781 11.7544 2.1967 12.8033C3.2456 13.8522 4.58197 14.5665 6.03683 14.8559C7.49168 15.1453 8.99968 14.9968 10.3701 14.4291C11.7406 13.8614 12.9119 12.9001 13.736 11.6668C14.5601 10.4334 15 8.98336 15 7.5C15 5.51088 14.2098 3.60322 12.8033 2.1967C11.3968 0.790176 9.48913 0 7.5 0ZM10.875 9H7.50643C7.25993 8.99324 7.02537 8.8923 6.851 8.71793C6.67663 8.54356 6.57569 8.30901 6.56893 8.0625V3.75964C6.56893 3.511 6.6677 3.27255 6.84352 3.09673C7.01933 2.92092 7.25779 2.82214 7.50643 2.82214C7.75507 2.82214 7.99353 2.92092 8.16934 3.09673C8.34516 3.27255 8.44393 3.511 8.44393 3.75964V7.12071H10.875C11.1236 7.12071 11.3621 7.21949 11.5379 7.3953C11.7137 7.57112 11.8125 7.80957 11.8125 8.05822C11.8125 8.30686 11.7137 8.54531 11.5379 8.72113C11.3621 8.89694 11.1236 8.99572 10.875 8.99572V9Z" fill="#FAFAFB"/>
</g>
<defs>
<clipPath id="clip0_1490_28739">
<rect width="15" height="15" fill="white"/>
</clipPath>
</defs>
</svg>
