<svg width="12" height="12" viewBox="0 0 12 12" fill="none" xmlns="http://www.w3.org/2000/svg">
<path fill-rule="evenodd" clip-rule="evenodd" d="M8.08289 2.12782L5.91432 4.29468L3.74575 2.12611C3.6315 2.00712 3.49464 1.91214 3.34321 1.84673C3.19178 1.78131 3.02881 1.74679 2.86386 1.74518C2.69891 1.74356 2.5353 1.77489 2.38261 1.83733C2.22992 1.89977 2.09124 1.99205 1.97468 2.10878C1.85813 2.22551 1.76604 2.36433 1.70383 2.51711C1.64162 2.66988 1.61053 2.83354 1.61238 2.99849C1.61424 3.16344 1.649 3.32635 1.71464 3.47769C1.78027 3.62903 1.87545 3.76574 1.99461 3.87982L4.16232 6.04839L1.99632 8.21439C1.76987 8.44836 1.64443 8.76195 1.64705 9.08755C1.64967 9.41315 1.78013 9.72468 2.01032 9.95497C2.2405 10.1853 2.55197 10.3159 2.87757 10.3187C3.20316 10.3214 3.51681 10.1962 3.75089 9.96982L5.91432 7.79954L8.08118 9.96725C8.19552 10.086 8.33239 10.1808 8.48378 10.246C8.63517 10.3113 8.79805 10.3457 8.9629 10.3472C9.12775 10.3488 9.29125 10.3175 9.44385 10.2551C9.59645 10.1927 9.73509 10.1006 9.85166 9.98402C9.96823 9.86745 10.0604 9.72881 10.1228 9.57621C10.1851 9.42361 10.2164 9.2601 10.2149 9.09526C10.2133 8.93041 10.1789 8.76753 10.1137 8.61614C10.0484 8.46474 9.95365 8.32788 9.83489 8.21353L7.67146 6.04925L9.83746 3.88325C10.0639 3.64928 10.1894 3.33569 10.1867 3.01009C10.1841 2.68449 10.0537 2.37296 9.82347 2.14267C9.59328 1.91237 9.28182 1.78175 8.95622 1.77898C8.63062 1.7762 8.31697 1.90148 8.08289 2.12782Z" fill="#FAFAFB"/>
</svg>
