<svg width="18" height="18" viewBox="0 0 18 18" fill="none" xmlns="http://www.w3.org/2000/svg">
<g clip-path="url(#clip0_3165_84924)">
<path d="M10.125 1.125C10.125 0.50368 9.62132 0 9 0C8.37868 0 7.875 0.50368 7.875 1.125V2.25C7.875 2.87132 8.37868 3.375 9 3.375C9.62132 3.375 10.125 2.87132 10.125 2.25V1.125Z" fill="#7C4BFF"/>
<path d="M15.3639 4.22697C15.8033 3.78763 15.8033 3.07532 15.3639 2.63598C14.9246 2.19664 14.2123 2.19664 13.7729 2.63598L12.9774 3.43147C12.5381 3.87081 12.5381 4.58313 12.9774 5.02247C13.4168 5.4618 14.1291 5.4618 14.5684 5.02247L15.3639 4.22697Z" fill="#7C4BFF"/>
<path d="M18 9C18 9.62132 17.4963 10.125 16.875 10.125H15.75C15.1287 10.125 14.625 9.62132 14.625 9C14.625 8.37868 15.1287 7.875 15.75 7.875H16.875C17.4963 7.875 18 8.37868 18 9Z" fill="#7C4BFF"/>
<path d="M3.43146 5.02248C3.8708 5.46182 4.58311 5.46182 5.02245 5.02248C5.46179 4.58315 5.46179 3.87083 5.02245 3.43149L4.22696 2.636C3.78762 2.19666 3.07531 2.19666 2.63597 2.636C2.19663 3.07534 2.19663 3.78765 2.63597 4.22699L3.43146 5.02248Z" fill="#7C4BFF"/>
<path d="M3.375 9C3.375 9.62132 2.87132 10.125 2.25 10.125H1.125C0.50368 10.125 -1.3411e-07 9.62132 0 9C0 8.37868 0.50368 7.875 1.125 7.875H2.25C2.87132 7.875 3.375 8.37868 3.375 9Z" fill="#7C4BFF"/>
<path d="M6.75 15.75V14.625H11.25V15.75C11.25 16.9926 10.2426 18 9 18C7.75736 18 6.75 16.9926 6.75 15.75Z" fill="#7C4BFF"/>
<path d="M11.251 13.5C11.2674 13.1171 11.4835 12.7729 11.7864 12.5338C12.8301 11.7097 13.5 10.4331 13.5 9C13.5 6.51472 11.4853 4.5 9 4.5C6.51472 4.5 4.5 6.51472 4.5 9C4.5 10.4331 5.16988 11.7097 6.21359 12.5338C6.51646 12.7729 6.73258 13.1171 6.749 13.5H11.251Z" fill="#7C4BFF"/>
</g>
<defs>
<clipPath id="clip0_3165_84924">
<rect width="18" height="18" fill="white"/>
</clipPath>
</defs>
</svg>
