<svg width="14" height="14" viewBox="0 0 14 14" fill="none" xmlns="http://www.w3.org/2000/svg">
<path fill-rule="evenodd" clip-rule="evenodd" d="M9.14384 2.48285L6.69051 5.01085L4.23717 2.48085C4.10792 2.34203 3.95309 2.23122 3.78177 2.15491C3.61046 2.07859 3.42609 2.03832 3.23948 2.03643C3.05287 2.03455 2.86777 2.0711 2.69504 2.14394C2.5223 2.21679 2.3654 2.32445 2.23354 2.46064C2.10168 2.59682 1.9975 2.75878 1.92712 2.93702C1.85674 3.11526 1.82157 3.30619 1.82367 3.49863C1.82577 3.69107 1.8651 3.88114 1.93935 4.0577C2.0136 4.23426 2.12128 4.39376 2.25608 4.52685L4.70845 7.05685L2.25802 9.58385C2.00183 9.85681 1.85993 10.2227 1.86289 10.6025C1.86585 10.9824 2.01345 11.3458 2.27386 11.6145C2.53427 11.8832 2.88663 12.0356 3.25499 12.0388C3.62334 12.0421 3.97817 11.8959 4.24299 11.6318L6.69051 9.09985L9.1419 11.6288C9.27125 11.7674 9.42609 11.878 9.59737 11.9541C9.76864 12.0302 9.95291 12.0703 10.1394 12.0722C10.3259 12.074 10.5109 12.0374 10.6835 11.9647C10.8561 11.8919 11.013 11.7844 11.1449 11.6484C11.2767 11.5124 11.381 11.3507 11.4516 11.1726C11.5221 10.9946 11.5575 10.8038 11.5558 10.6115C11.554 10.4192 11.5151 10.2292 11.4413 10.0526C11.3675 9.87593 11.2602 9.71625 11.1259 9.58285L8.67838 7.05785L11.1288 4.53085C11.385 4.25789 11.5269 3.89203 11.5239 3.51217C11.521 3.1323 11.3734 2.76885 11.113 2.50017C10.8526 2.23149 10.5002 2.07911 10.1318 2.07587C9.76349 2.07263 9.40866 2.21879 9.14384 2.48285Z" fill="#6B7280"/>
</svg>
