<svg width="14" height="14" viewBox="0 0 14 14" fill="none" xmlns="http://www.w3.org/2000/svg">
<g clip-path="url(#clip0_1496_28640)">
<path fill-rule="evenodd" clip-rule="evenodd" d="M8.38508 3.46139L13.5851 8.46139C13.7939 8.69212 13.9313 8.97849 13.9806 9.28575C14.0298 9.59302 13.9889 9.90799 13.8627 10.1924C13.7365 10.4769 13.5305 10.7186 13.2696 10.8883C13.0088 11.058 12.7043 11.1483 12.3931 11.1484H1.61108C1.30084 11.1475 0.997492 11.0568 0.737609 10.8874C0.477725 10.718 0.272404 10.477 0.146404 10.1935C0.0204046 9.90997 -0.0208944 9.59607 0.0274875 9.28963C0.0758693 8.98319 0.211866 8.69728 0.419079 8.46639L5.61908 3.46639C5.79399 3.2735 6.00725 3.11927 6.24521 3.01356C6.48318 2.90786 6.74059 2.85301 7.00097 2.85254C7.26136 2.85207 7.51897 2.90598 7.75731 3.01083C7.99565 3.11567 8.20947 3.26913 8.38508 3.46139Z" fill="#D4DAE2"/>
</g>
<defs>
<clipPath id="clip0_1496_28640">
<rect width="14" height="14" fill="white"/>
</clipPath>
</defs>
</svg>
