<svg width="20" height="20" viewBox="0 0 20 20" fill="none" xmlns="http://www.w3.org/2000/svg">
<g clip-path="url(#clip0_0_1176)">
<path d="M0 2.13048V17.8691C0.00184001 18.329 0.1844 18.7698 0.508304 19.0964C0.832208 19.423 1.2715 19.6091 1.73143 19.6148H2.42857C2.89107 19.614 3.33436 19.4298 3.66113 19.1024C3.9879 18.7751 4.17143 18.3315 4.17143 17.8691V2.13048C4.17143 1.66798 3.9879 1.22439 3.66113 0.897083C3.33436 0.56978 2.89107 0.385523 2.42857 0.384766H1.73C1.27032 0.390757 0.831392 0.577096 0.507795 0.903633C0.184198 1.23017 0.00183431 1.67076 0 2.13048H0Z" fill="#7C4BFF"/>
<path d="M7.91211 11.3089V17.8689C7.91395 18.3288 8.09651 18.7697 8.42041 19.0962C8.74432 19.4228 9.18361 19.609 9.64354 19.6146H10.3464C10.8089 19.6138 11.2522 19.4296 11.579 19.1023C11.9057 18.775 12.0893 18.3314 12.0893 17.8689V11.3089C12.0874 10.8476 11.903 10.4059 11.5764 10.0801C11.2499 9.75434 10.8077 9.57106 10.3464 9.57031H9.64211C9.18366 9.57628 8.74579 9.76163 8.42239 10.0866C8.09899 10.4116 7.91581 10.8504 7.91211 11.3089Z" fill="#7C4BFF"/>
<path d="M15.8223 6.32436V17.8686C15.8241 18.3286 16.0067 18.7694 16.3306 19.096C16.6545 19.4226 17.0938 19.6087 17.5537 19.6144H18.2566C18.719 19.6136 19.1623 19.4294 19.4891 19.102C19.8159 18.7747 19.9994 18.3311 19.9994 17.8686V6.32436C19.999 5.86211 19.8153 5.41888 19.4886 5.09189C19.1619 4.7649 18.7188 4.58083 18.2566 4.58008H17.5523C17.0927 4.5857 16.6538 4.77172 16.3302 5.09803C16.0065 5.42434 15.8241 5.86478 15.8223 6.32436Z" fill="#7C4BFF"/>
</g>
<defs>
<clipPath id="clip0_0_1176">
<rect width="20" height="20" fill="white"/>
</clipPath>
</defs>
</svg>
