<svg width="24" height="24" viewBox="0 0 24 24" fill="none" xmlns="http://www.w3.org/2000/svg">
<g clip-path="url(#clip0_1329_18953)">
<path d="M14.4 17.6249V21.8506C14.4 22.1689 14.5264 22.4741 14.7515 22.6991C14.9765 22.9242 15.2817 23.0506 15.6 23.0506H22.8C23.1183 23.0506 23.4235 22.9242 23.6485 22.6991C23.8736 22.4741 24 22.1689 24 21.8506V11.2426C24 10.9904 23.9504 10.7408 23.8539 10.5078C23.7574 10.2749 23.616 10.0632 23.4377 9.88488L13.356 1.51916C13.178 1.34096 12.9666 1.19959 12.7339 1.10313C12.5013 1.00668 12.2519 0.957031 12 0.957031C11.7481 0.957031 11.4987 1.00668 11.2661 1.10313C11.0334 1.19959 10.822 1.34096 10.644 1.51916L0.562286 9.88488C0.384002 10.0632 0.242583 10.2749 0.146106 10.5078C0.0496287 10.7408 -1.81875e-05 10.9904 4.99802e-09 11.2426L4.99802e-09 21.8506C4.99802e-09 22.1689 0.126428 22.4741 0.351472 22.6991C0.576515 22.9242 0.88174 23.0506 1.2 23.0506H8.4C8.71826 23.0506 9.02348 22.9242 9.24853 22.6991C9.47357 22.4741 9.6 22.1689 9.6 21.8506V17.6249C9.6 16.9884 9.85286 16.3779 10.3029 15.9278C10.753 15.4777 11.3635 15.2249 12 15.2249C12.6365 15.2249 13.247 15.4777 13.6971 15.9278C14.1471 16.3779 14.4 16.9884 14.4 17.6249Z" fill="#1F2937"/>
</g>
<defs>
<clipPath id="clip0_1329_18953">
<rect width="24" height="24" fill="white"/>
</clipPath>
</defs>
</svg>
