<svg width="23" height="20" viewBox="0 0 23 20" fill="none" xmlns="http://www.w3.org/2000/svg">
<g clip-path="url(#clip0_1496_28560)">
<path d="M11.5 1.724C9.93183 1.724 8.70669 2.19994 7.82458 3.15181C6.94248 4.10368 6.50143 5.32045 6.50143 6.80213C6.49054 8.64301 7.20929 10.1022 8.65768 11.1798C8.84281 11.3235 8.90816 11.5076 8.85371 11.7321L8.47799 12.3786C8.3582 12.5942 8.18124 12.7625 7.9471 12.8838C7.71296 13.005 7.22018 13.1779 6.46876 13.4024C6.43609 13.4113 5.74729 13.5954 4.40235 13.9546C3.05741 14.3138 2.34139 14.5114 2.25426 14.5473C1.33949 14.8616 0.740531 15.1894 0.457387 15.5306C0.152462 16.0963 0 17.5286 0 19.8275H23C23 17.5286 22.8476 16.0963 22.5426 15.5306C22.2595 15.1894 21.6605 14.8616 20.7458 14.5473C20.6586 14.5114 19.9426 14.3138 18.5977 13.9546C17.2527 13.5954 16.5639 13.4113 16.5313 13.4024C15.7799 13.1779 15.2871 13.005 15.0529 12.8838C14.8188 12.7625 14.6418 12.5942 14.522 12.3786L14.1463 11.7321C14.0919 11.5076 14.1572 11.3235 14.3424 11.1798C15.7907 10.1022 16.5095 8.64301 16.4986 6.80213C16.4986 5.32045 16.0576 4.10368 15.1754 3.15181C14.2933 2.19994 13.0682 1.724 11.5 1.724Z" fill="white"/>
</g>
<defs>
<clipPath id="clip0_1496_28560">
<rect width="22.272" height="19.2" fill="white" transform="scale(1.03269)"/>
</clipPath>
</defs>
</svg>
