<svg width="20" height="20" viewBox="0 0 20 20" fill="none" xmlns="http://www.w3.org/2000/svg">
<g clip-path="url(#clip0_0_534)">
<path d="M1.20703 17.07V15.6329C1.23368 15.1093 1.40295 14.603 1.69654 14.1686C1.99012 13.7343 2.39685 13.3885 2.87275 13.1686C7.44658 11.3314 12.5532 11.3314 17.127 13.1686C17.6029 13.3885 18.0097 13.7343 18.3032 14.1686C18.5968 14.603 18.7661 15.1093 18.7927 15.6329V17.07C18.7926 17.4552 18.7165 17.8366 18.5688 18.1924C18.4211 18.5481 18.2048 18.8713 17.9321 19.1434C17.6595 19.4155 17.3359 19.6312 16.9798 19.7782C16.6238 19.9252 16.2422 20.0006 15.857 20H4.14275C3.75754 20.0006 3.37601 19.9252 3.01995 19.7782C2.66389 19.6312 2.34029 19.4155 2.06765 19.1434C1.795 18.8713 1.57866 18.5481 1.43099 18.1924C1.28332 17.8366 1.20722 17.4552 1.20703 17.07ZM9.99989 2.08952e-07C9.03352 -0.000282354 8.08878 0.28602 7.28514 0.822697C6.4815 1.35937 5.85507 2.12232 5.48506 3.01504C5.11505 3.90777 5.01809 4.89016 5.20645 5.83799C5.3948 6.78582 5.86001 7.65651 6.54323 8.33993C7.22646 9.02335 8.097 9.48881 9.04478 9.67745C9.99255 9.86608 10.975 9.76941 11.8678 9.39966C12.7606 9.02992 13.5238 8.4037 14.0607 7.60022C14.5976 6.79674 14.8842 5.85208 14.8842 4.88571C14.8844 4.24418 14.7582 3.60889 14.5128 3.01614C14.2674 2.42339 13.9077 1.88478 13.4541 1.43108C13.0005 0.97738 12.462 0.617479 11.8694 0.371931C11.2767 0.126383 10.6414 1.81512e-07 9.99989 2.08952e-07Z" fill="#7C4BFF"/>
</g>
<defs>
<clipPath id="clip0_0_534">
<rect width="20" height="20" fill="white"/>
</clipPath>
</defs>
</svg>
