<svg width="10" height="10" viewBox="0 0 10 10" fill="none" xmlns="http://www.w3.org/2000/svg">
<path d="M2.5 6.25C3.19036 6.25 3.75 5.69036 3.75 5C3.75 4.30964 3.19036 3.75 2.5 3.75C1.80964 3.75 1.25 4.30964 1.25 5C1.25 5.69036 1.80964 6.25 2.5 6.25Z" stroke="#9CA3AF" stroke-linecap="round" stroke-linejoin="round"/>
<path d="M6.875 9.0625C7.56536 9.0625 8.125 8.50286 8.125 7.8125C8.125 7.12214 7.56536 6.5625 6.875 6.5625C6.18464 6.5625 5.625 7.12214 5.625 7.8125C5.625 8.50286 6.18464 9.0625 6.875 9.0625Z" stroke="#9CA3AF" stroke-linecap="round" stroke-linejoin="round"/>
<path d="M6.875 3.4375C7.56536 3.4375 8.125 2.87786 8.125 2.1875C8.125 1.49714 7.56536 0.9375 6.875 0.9375C6.18464 0.9375 5.625 1.49714 5.625 2.1875C5.625 2.87786 6.18464 3.4375 6.875 3.4375Z" stroke="#9CA3AF" stroke-linecap="round" stroke-linejoin="round"/>
<path d="M5.82358 2.86328L3.55127 4.32405" stroke="#9CA3AF" stroke-linecap="round" stroke-linejoin="round"/>
<path d="M3.55127 5.67578L5.82358 7.13655" stroke="#9CA3AF" stroke-linecap="round" stroke-linejoin="round"/>
</svg>
