<svg width="14" height="14" viewBox="0 0 14 14" fill="none" xmlns="http://www.w3.org/2000/svg">
<g clip-path="url(#clip0_1453_44424)">
<path d="M13.584 12.4936C13.584 12.4936 10.396 17.0436 3.68398 10.3266C-3.06702 3.56159 1.52398 0.416588 1.52398 0.416588C1.66776 0.272241 1.84095 0.160551 2.03176 0.0891121C2.22256 0.0176733 2.42652 -0.0118387 2.62975 0.00258288C2.83298 0.0170045 3.03072 0.0750215 3.20953 0.172689C3.38833 0.270356 3.54401 0.405383 3.66598 0.568588L4.95798 2.29959C5.16332 2.57367 5.263 2.91258 5.23876 3.2542C5.21451 3.59581 5.06797 3.91725 4.82598 4.15959L3.68798 5.29959C3.68798 5.29959 3.68798 6.30559 5.69798 8.31859C7.70798 10.3316 8.71298 10.3316 8.71298 10.3316L9.85098 9.19159C10.0928 8.94937 10.4139 8.80263 10.7553 8.77838C11.0967 8.75412 11.4354 8.85399 11.709 9.05959L13.431 10.3536C13.5931 10.4761 13.7271 10.6318 13.8241 10.8104C13.9211 10.989 13.9787 11.1862 13.9932 11.3889C14.0077 11.5915 13.9787 11.795 13.9081 11.9855C13.8375 12.176 13.727 12.3493 13.584 12.4936Z" fill="#7C4BFF"/>
</g>
<defs>
<clipPath id="clip0_1453_44424">
<rect width="14" height="14" fill="white"/>
</clipPath>
</defs>
</svg>
