<svg width="71" height="29" viewBox="0 0 71 29" fill="none" xmlns="http://www.w3.org/2000/svg">
<path d="M30.8298 3.02376C30.6575 2.86636 30.5204 2.67342 30.4278 2.45792C30.3352 2.24242 30.2893 2.00936 30.2932 1.77441C30.2877 1.53656 30.3328 1.30031 30.4254 1.08164C30.518 0.862964 30.6559 0.666978 30.8298 0.506943C31.2083 0.162197 31.705 -0.0191512 32.2137 0.00160386C32.7168 -0.0173687 33.2073 0.164057 33.5797 0.506943C33.7537 0.666978 33.8916 0.862964 33.9842 1.08164C34.0767 1.30031 34.1218 1.53656 34.1164 1.77441C34.1202 2.00936 34.0743 2.24242 33.9817 2.45792C33.8892 2.67342 33.7521 2.86636 33.5797 3.02376C33.2073 3.36665 32.7168 3.54807 32.2137 3.5291C31.705 3.54986 31.2083 3.36851 30.8298 3.02376ZM33.8155 4.63525V15.2737H30.594V4.63525H33.8155Z" fill="#111827"/>
<path d="M36.1228 7.05655C36.4906 6.27538 37.0682 5.6148 37.7896 5.15042C38.495 4.7038 39.3124 4.47182 40.1444 4.48212C40.8006 4.47463 41.4493 4.62468 42.0373 4.91997C42.5804 5.18882 43.0446 5.59684 43.3838 6.10348V1.16531H46.6053V15.2737H43.3838V13.7494C43.0722 14.2677 42.6262 14.6896 42.0942 14.9691C41.4917 15.2844 40.8208 15.4418 40.1427 15.4267C39.3097 15.4365 38.4917 15.2015 37.788 14.7502C37.0659 14.278 36.4886 13.611 36.1211 12.8243C35.6976 11.9227 35.4877 10.9336 35.5081 9.9355C35.4875 8.94038 35.6981 7.95428 36.1228 7.05655ZM42.7154 8.02937C42.5051 7.8079 42.253 7.63153 41.9739 7.51074C41.6949 7.38996 41.3947 7.32724 41.0913 7.32632C40.7878 7.3254 40.4872 7.38629 40.2075 7.50538C39.9278 7.62446 39.6746 7.79931 39.463 8.01949C39.0174 8.48368 38.7946 9.12235 38.7946 9.9355C38.7946 10.7487 39.0174 11.3939 39.463 11.8713C39.6725 12.0946 39.9247 12.2724 40.2043 12.394C40.4839 12.5155 40.7849 12.5782 41.0892 12.5782C41.3935 12.5782 41.6945 12.5155 41.9741 12.394C42.2537 12.2724 42.5059 12.0946 42.7154 11.8713C43.161 11.4027 43.3838 10.7613 43.3838 9.94702C43.3838 9.13278 43.161 8.49356 42.7154 8.02937Z" fill="#111827"/>
<path d="M58.7924 10.7355H51.5021C51.552 11.394 51.7623 11.8993 52.1331 12.2516C52.5026 12.6015 52.9933 12.7901 53.4991 12.7767C54.3025 12.7767 54.8613 12.4332 55.1757 11.7462H58.6038C58.431 12.44 58.1058 13.0853 57.6524 13.6342C57.1852 14.2012 56.5954 14.6518 55.9287 14.9511C55.2 15.2781 54.4099 15.441 53.6129 15.4284C52.6545 15.4464 51.7074 15.2164 50.8614 14.7601C50.0647 14.3225 49.4106 13.6604 48.9783 12.854C48.5099 11.9628 48.2758 10.9646 48.2985 9.95531C48.2754 8.94739 48.5053 7.95002 48.9669 7.05661C49.3943 6.2493 50.0462 5.58658 50.8419 5.15047C51.6908 4.71445 52.6287 4.48557 53.5806 4.48214C54.5324 4.47871 55.4719 4.70083 56.3238 5.13072C57.1046 5.55411 57.7487 6.19577 58.1793 6.97924C58.6383 7.83749 58.8686 8.80187 58.8477 9.77754C58.8474 10.0977 58.829 10.4175 58.7924 10.7355ZM55.553 8.92488C55.5637 8.67364 55.5184 8.4232 55.4204 8.1921C55.3224 7.96101 55.1743 7.7552 54.9871 7.58993C54.5929 7.25359 54.0892 7.07759 53.5739 7.09611C53.0768 7.08121 52.5915 7.25101 52.2095 7.57347C51.8223 7.92249 51.5772 8.40475 51.5216 8.92653L55.553 8.92488Z" fill="#111827"/>
<path d="M60.5158 7.05665C60.8836 6.27548 61.4613 5.61491 62.1826 5.15052C62.888 4.7039 63.7054 4.47193 64.5374 4.48222C65.2154 4.4672 65.8864 4.62453 66.4888 4.93982C67.017 5.21663 67.4623 5.63154 67.7784 6.14144V4.6353H70.9999V15.2738H67.7768V13.7676C67.4524 14.2747 67.0043 14.6885 66.4758 14.9692C65.8734 15.2847 65.2024 15.442 64.5244 15.4268C63.6977 15.4348 62.8865 15.1998 62.1891 14.7503C61.4671 14.2782 60.8897 13.6111 60.5223 12.8244C60.0988 11.9228 59.8889 10.9337 59.9092 9.9356C59.8861 8.94114 60.0939 7.95507 60.5158 7.05665ZM67.1084 8.02947C66.8981 7.808 66.646 7.63163 66.3669 7.51085C66.0879 7.39006 65.7877 7.32734 65.4843 7.32642C65.1808 7.3255 64.8803 7.3864 64.6005 7.50548C64.3208 7.62457 64.0676 7.79941 63.856 8.01959C63.4104 8.48378 63.1876 9.12245 63.1876 9.9356C63.1876 10.7488 63.4104 11.394 63.856 11.8714C64.0655 12.0947 64.3177 12.2725 64.5973 12.3941C64.8769 12.5156 65.178 12.5783 65.4822 12.5783C65.7865 12.5783 66.0876 12.5156 66.3671 12.3941C66.6467 12.2725 66.8989 12.0947 67.1084 11.8714C67.554 11.4028 67.7768 10.7614 67.7768 9.94713C67.7768 9.13288 67.554 8.49366 67.1084 8.02947Z" fill="#111827"/>
<path d="M35.1147 17.9141C35.713 17.5979 36.3799 17.4383 37.0548 17.4499C37.8856 17.4377 38.7026 17.6661 39.4095 18.1083C40.1301 18.5743 40.7075 19.2352 41.0764 20.0161C41.5007 20.9139 41.7107 21.9 41.6894 22.895C41.7099 23.8926 41.5 24.8813 41.0764 25.7822C40.7084 26.5686 40.1312 27.2355 39.4095 27.7081C38.7061 28.1605 37.888 28.3961 37.0548 28.3863C36.3812 28.4023 35.7144 28.2478 35.1147 27.9369C34.5855 27.6616 34.137 27.2507 33.8137 26.7452V28.2266H30.5938V16.7125H33.8154V19.1157C34.1327 18.6032 34.5819 18.1878 35.1147 17.9141ZM37.7426 20.9922C37.5315 20.7679 37.2766 20.5903 36.9942 20.4707C36.7118 20.3512 36.4079 20.2922 36.1018 20.2976C35.7971 20.2932 35.4949 20.3536 35.2148 20.475C34.9346 20.5964 34.6828 20.7759 34.4756 21.0021C34.03 21.4729 33.8072 22.1148 33.8072 22.928C33.8072 23.7411 34.03 24.3847 34.4756 24.8539C34.6867 25.0779 34.9407 25.256 35.222 25.3774C35.5034 25.4988 35.8062 25.5609 36.112 25.56C36.4179 25.5591 36.7203 25.4951 37.0009 25.372C37.2816 25.2489 37.5345 25.0693 37.7443 24.844C38.1964 24.3688 38.4224 23.7241 38.4224 22.9099C38.411 22.0951 38.1882 21.458 37.7426 20.9922Z" fill="#111827"/>
<path d="M45.3907 27.7327C44.5773 27.2976 43.9036 26.6363 43.449 25.8266C42.9639 24.9408 42.7203 23.9404 42.7432 22.9279C42.7227 21.9176 42.9698 20.9201 43.4588 20.0391C43.9189 19.225 44.5986 18.5604 45.4183 18.123C46.2836 17.6846 47.238 17.4563 48.2056 17.4563C49.1733 17.4563 50.1277 17.6846 50.993 18.123C51.8131 18.5598 52.4929 19.2245 52.9525 20.0391C53.4423 20.9198 53.6894 21.9175 53.6681 22.9279C53.6893 23.9396 53.4386 24.9381 52.9428 25.8167C52.4773 26.6329 51.7912 27.2976 50.9653 27.7327C50.1016 28.1854 49.1408 28.415 48.1682 28.401C47.2018 28.4167 46.2468 28.187 45.3907 27.7327ZM49.7408 24.8916C50.1744 24.434 50.3913 23.7794 50.3913 22.9279C50.3913 22.0763 50.1815 21.4217 49.7619 20.9641C49.5624 20.7484 49.3213 20.5763 49.0537 20.4583C48.786 20.3403 48.4973 20.279 48.2053 20.2781C47.9134 20.2771 47.6243 20.3366 47.3559 20.4529C47.0875 20.5692 46.8454 20.7398 46.6445 20.9543C46.2303 21.4053 46.0227 22.0637 46.0217 22.9295C46.0206 23.7954 46.2249 24.4499 46.6347 24.8933C46.8254 25.1144 47.0618 25.2904 47.327 25.409C47.5922 25.5276 47.88 25.5859 48.1699 25.5797C48.4648 25.5832 48.7571 25.5238 49.0278 25.4052C49.2985 25.2867 49.5414 25.1117 49.7408 24.8916Z" fill="#111827"/>
<path d="M61.5989 28.248L59.5824 25.2933L57.8928 28.248H54.403L57.8684 22.816L54.3152 17.6144H57.9253L59.9418 20.551L61.6331 17.6144H65.118L61.5957 22.9723L65.2107 28.248H61.5989Z" fill="#111827"/>
<path d="M24.2711 0.108583H3.67848C2.70328 0.109889 1.7684 0.502592 1.07883 1.20058C0.389258 1.89856 0.0012908 2.84486 0 3.83196L0 24.676C0.000860495 25.6634 0.388638 26.6101 1.07825 27.3084C1.76787 28.0068 2.703 28.3997 3.67848 28.401H24.2711C25.2469 28.4001 26.1824 28.0074 26.8724 27.309C27.5624 26.6106 27.9504 25.6636 27.9512 24.676V3.83196C27.9499 2.84458 27.5617 1.89803 26.8718 1.2C26.1819 0.501964 25.2466 0.109454 24.2711 0.108583ZM24.2711 2.62376C24.5878 2.62376 24.8916 2.751 25.1157 2.97753C25.3398 3.20407 25.4659 3.51137 25.4664 3.83196V23.0316L25.4501 23.02C23.7215 25.0562 20.6512 26.2397 18.0623 25.4068C17.0134 25.0694 15.9921 24.3303 14.8424 24.4883C14.1447 24.5838 13.5414 25.0118 12.9267 25.3591C12.0274 25.8677 10.6582 26.1969 10.0174 25.122C9.80152 24.7165 9.70714 24.256 9.74585 23.797C9.79789 22.5394 10.3687 21.3592 11.0647 20.3156C12.5738 18.0522 14.5448 16.0786 15.7482 13.6145C15.8571 13.3906 15.971 12.9988 15.636 12.956C15.4197 12.9231 15.1335 13.0844 14.9513 13.1865C14.3626 13.5157 13.813 13.9931 13.2633 14.3865C11.9981 15.2852 10.7427 16.1971 9.44012 17.0366C8.21234 17.83 6.913 18.5773 5.48844 18.9312C4.92252 19.0728 4.20862 19.1485 3.71913 18.7568C3.39389 18.5 3.24753 18.0786 3.19224 17.6671C3.14223 17.3279 3.15603 16.9822 3.2329 16.6482C3.44268 15.7757 4.12406 15.0844 4.37124 14.2202C4.71437 12.9906 3.95493 12.1709 3.49309 11.1273C3.00221 9.99155 2.71848 8.77526 2.65559 7.53723C2.56127 5.90599 2.81821 4.30438 3.21663 2.7291C3.36464 2.66496 3.52398 2.63192 3.68498 2.63199L24.2711 2.62376ZM2.95319 2.87396C3.03111 2.81286 3.11635 2.76197 3.20688 2.72252L2.95319 2.87396Z" fill="#7C4BFF"/>
<path d="M25.4095 3.48628C25.4458 3.5979 25.465 3.71447 25.4665 3.83196V23.0316L25.4502 23.02C23.7215 25.0562 20.6513 26.2397 18.0623 25.4068C17.0134 25.0694 15.9922 24.3303 14.8425 24.4883C14.1448 24.5838 13.5415 25.0118 12.9268 25.3591C12.0275 25.8677 10.6582 26.1969 10.0175 25.122C9.80159 24.7165 9.70722 24.256 9.74592 23.797C9.79796 22.5394 10.3688 21.3592 11.0648 20.3156C12.5739 18.0522 14.5449 16.0803 15.7482 13.6145C15.8344 13.4367 15.9206 13.1552 15.7857 13.0202L1.22623 27.443C1.89805 28.059 2.77204 28.4005 3.67855 28.401H24.2712C25.247 28.4001 26.1825 28.0074 26.8725 27.309C27.5624 26.6106 27.9504 25.6636 27.9513 24.676V3.83196C27.9504 3.05194 27.7063 2.29211 27.2537 1.66081L25.4095 3.48628Z" fill="#5C43D6"/>
<path d="M19.2835 15.435C20.8999 12.8474 21.7228 9.88118 21.9358 7.00388C21.9484 6.93851 21.944 6.87094 21.9228 6.80787C21.9017 6.74479 21.8646 6.68841 21.8153 6.64431C21.766 6.60022 21.7061 6.56995 21.6417 6.5565C21.5773 6.54306 21.5105 6.54691 21.4479 6.56767C18.6476 7.09935 15.8245 8.25159 13.46 10.161C12.377 11.0367 13.9202 11.1898 14.5235 11.3133C15.3578 11.4927 16.2408 11.6425 16.8718 12.2186C17.4995 12.7914 17.7499 13.6638 18.0101 14.4819C18.2215 15.0844 18.5386 16.6267 19.2835 15.435Z" fill="#FF5C1B"/>
<path d="M16.6294 11.9241C16.7161 11.9729 16.7992 12.0279 16.8782 12.0887C17.5059 12.6599 17.7563 13.5323 18.0247 14.3504C18.2182 14.9429 18.5369 16.4804 19.2785 15.2952C20.8949 12.706 21.7178 9.73976 21.9308 6.8641C21.9365 6.80032 21.9299 6.73603 21.9113 6.67481L16.6294 11.9241Z" fill="#E05828"/>
</svg>
