<svg width="20" height="20" viewBox="0 0 20 20" fill="none" xmlns="http://www.w3.org/2000/svg">
<g clip-path="url(#clip0_0_546)">
<path fill-rule="evenodd" clip-rule="evenodd" d="M5.00024 4.95587C5.16582 4.95587 5.32978 4.92323 5.48275 4.85982C5.63571 4.79641 5.77467 4.70347 5.8917 4.58632C6.00872 4.46917 6.1015 4.3301 6.16473 4.17706C6.22797 4.02403 6.26042 3.86003 6.26024 3.69444V1.42016C6.26024 1.25469 6.22764 1.09085 6.16432 0.937975C6.101 0.785105 6.00819 0.646204 5.89119 0.529202C5.77419 0.4122 5.63529 0.319389 5.48242 0.256068C5.32955 0.192747 5.1657 0.160156 5.00024 0.160156C4.83477 0.160156 4.67092 0.192747 4.51805 0.256068C4.36518 0.319389 4.22628 0.4122 4.10928 0.529202C3.99228 0.646204 3.89947 0.785105 3.83615 0.937975C3.77283 1.09085 3.74024 1.25469 3.74024 1.42016V3.69444C3.74005 3.86003 3.7725 4.02403 3.83574 4.17706C3.89897 4.3301 3.99175 4.46917 4.10878 4.58632C4.2258 4.70347 4.36476 4.79641 4.51772 4.85982C4.67069 4.92323 4.83465 4.95587 5.00024 4.95587Z" fill="#6B7280"/>
<path fill-rule="evenodd" clip-rule="evenodd" d="M15.0002 4.95587C15.1658 4.95587 15.3298 4.92323 15.4827 4.85982C15.6357 4.79641 15.7747 4.70347 15.8917 4.58632C16.0087 4.46917 16.1015 4.3301 16.1647 4.17706C16.228 4.02403 16.2604 3.86003 16.2602 3.69444V1.42016C16.2602 1.08598 16.1275 0.765498 15.8912 0.529202C15.6549 0.292906 15.3344 0.160156 15.0002 0.160156C14.6661 0.160156 14.3456 0.292906 14.1093 0.529202C13.873 0.765498 13.7402 1.08598 13.7402 1.42016V3.69444C13.74 3.86003 13.7725 4.02403 13.8357 4.17706C13.899 4.3301 13.9918 4.46917 14.1088 4.58632C14.2258 4.70347 14.3648 4.79641 14.5177 4.85982C14.6707 4.92323 14.8346 4.95587 15.0002 4.95587Z" fill="#6B7280"/>
<path fill-rule="evenodd" clip-rule="evenodd" d="M18.0971 1.84594V3.92451C18.1141 4.71363 17.8406 5.48148 17.3286 6.08222C16.8166 6.68295 16.1018 7.07471 15.32 7.18308C14.8886 7.22769 14.4527 7.18121 14.0405 7.04666C13.6282 6.91211 13.2488 6.69249 12.9268 6.40201C12.6049 6.11154 12.3475 5.75668 12.1713 5.36041C11.9952 4.96415 11.9042 4.53531 11.9043 4.10165V2.34879C11.9039 2.21265 11.8496 2.0822 11.7532 1.98606C11.6567 1.88992 11.5262 1.83594 11.39 1.83594H8.61C8.47398 1.83594 8.34353 1.88997 8.24736 1.98615C8.15118 2.08233 8.09714 2.21278 8.09714 2.34879V3.92022C8.11514 4.71007 7.84212 5.47898 7.33005 6.08061C6.81797 6.68225 6.10258 7.07463 5.32 7.18308C4.88865 7.22769 4.45274 7.18121 4.04048 7.04666C3.62823 6.91211 3.24883 6.69249 2.92684 6.40201C2.60485 6.11154 2.34745 5.75668 2.1713 5.36041C1.99515 4.96415 1.90419 4.53531 1.90429 4.10165V1.84594C1.39234 1.87046 0.909347 2.09059 0.554994 2.4609C0.200642 2.8312 0.00197558 3.32341 0 3.83594L0 17.8359C0 18.3664 0.210714 18.8751 0.585786 19.2502C0.960859 19.6252 1.46957 19.8359 2 19.8359H18C18.5304 19.8359 19.0391 19.6252 19.4142 19.2502C19.7893 18.8751 20 18.3664 20 17.8359V3.83594C19.998 3.32364 19.7996 2.83163 19.4455 2.46137C19.0915 2.0911 18.6088 1.87082 18.0971 1.84594ZM16.4286 15.3931C16.4274 15.7155 16.2988 16.0245 16.0708 16.2525C15.8428 16.4805 15.5339 16.6091 15.2114 16.6102H4.49714C4.17468 16.6091 3.86575 16.4805 3.63774 16.2525C3.40973 16.0245 3.28113 15.7155 3.28 15.3931V10.6502C3.28 10.3263 3.40869 10.0156 3.63775 9.78654C3.86681 9.55748 4.17749 9.4288 4.50143 9.4288H15.2157C15.5382 9.42992 15.8471 9.55852 16.0751 9.78654C16.3031 10.0146 16.4317 10.3235 16.4329 10.6459L16.4286 15.3931Z" fill="#6B7280"/>
</g>
<defs>
<clipPath id="clip0_0_546">
<rect width="20" height="20" fill="white"/>
</clipPath>
</defs>
</svg>
