<svg width="56" height="56" viewBox="0 0 56 56" fill="none" xmlns="http://www.w3.org/2000/svg">
<path d="M24.2426 27.3L12.3062 2.09998H20.5592L32.5894 27.3H24.2426Z" fill="#7C4BFF"/>
<path d="M20.1168 2.80002L31.4806 26.6H24.6864L13.4122 2.80002H20.1168ZM21.0002 1.40002H11.2002L23.8002 28H33.6996L21.0002 1.40002Z" fill="#5920F4"/>
<path d="M23.4106 27.3L35.4408 2.09998H43.6938L31.7574 27.3H23.4106Z" fill="#7C4BFF"/>
<path d="M42.5882 2.80002L31.314 26.6H24.5198L35.8836 2.80002H42.5882ZM44.8002 1.40002H35.0002L22.3008 28H32.2002L44.8002 1.40002Z" fill="#5920F4"/>
<path d="M27.9998 53.9C19.8938 53.9 13.2998 47.306 13.2998 39.2C13.2998 31.094 19.8938 24.5 27.9998 24.5C36.1058 24.5 42.6998 31.094 42.6998 39.2C42.6998 47.306 36.1058 53.9 27.9998 53.9Z" fill="#D9986B"/>
<path d="M28.0001 25.2C35.7197 25.2 42.0001 31.4804 42.0001 39.2001C42.0001 46.9197 35.7197 53.2001 28.0001 53.2001C20.2805 53.2001 14.0001 46.9197 14.0001 39.2001C14.0001 31.4804 20.2805 25.2 28.0001 25.2ZM28.0001 23.8C19.4951 23.8 12.6001 30.695 12.6001 39.2001C12.6001 47.705 19.4951 54.6001 28.0001 54.6001C36.5051 54.6001 43.4001 47.705 43.4001 39.2001C43.4001 30.695 36.5051 23.8 28.0001 23.8Z" fill="#B46726"/>
<path d="M27.9998 48.9999C22.5958 48.9999 18.1998 44.6039 18.1998 39.2H16.7998C16.7998 45.3851 21.8146 50.3999 27.9998 50.3999C34.185 50.3999 39.1998 45.3851 39.1998 39.2H37.7998C37.7998 44.6039 33.4038 48.9999 27.9998 48.9999Z" fill="white"/>
<path d="M24 44.072V42.0126C24.882 42.7112 25.876 43.0612 26.9848 43.0612C27.8864 43.0612 28.6046 42.8568 29.1436 42.4466C29.6812 42.0364 29.95 41.4834 29.95 40.7834C29.95 39.2476 28.7754 38.479 26.4262 38.479H25.3776V36.722H26.3786C28.4618 36.722 29.5048 35.9982 29.5048 34.5492C29.5048 33.2136 28.6928 32.5472 27.0674 32.5472C26.1602 32.5472 25.3062 32.872 24.5068 33.5202V31.5742C25.4308 31.059 26.5158 30.8 27.7702 30.8C28.9728 30.8 29.936 31.1024 30.6612 31.7072C31.3864 32.312 31.7476 33.0862 31.7476 34.0312C31.7476 35.8134 30.8404 36.96 29.0274 37.4696V37.5074C30.0046 37.6012 30.7746 37.9428 31.3416 38.5322C31.9086 39.1216 32.1914 39.8566 32.1914 40.7386C32.1914 41.9538 31.7336 42.9352 30.8222 43.6814C29.9094 44.4276 28.7068 44.8014 27.213 44.8014C25.8704 44.8 24.7994 44.5578 24 44.072Z" fill="white"/>
</svg>
