<svg width="56" height="56" viewBox="0 0 56 56" fill="none" xmlns="http://www.w3.org/2000/svg">
<path d="M24.2426 27.3L12.3062 2.09998H20.5592L32.5894 27.3H24.2426Z" fill="#7C4BFF"/>
<path d="M20.1168 2.80002L31.4806 26.6H24.6864L13.4122 2.80002H20.1168ZM21.0002 1.40002H11.2002L23.8002 28H33.6996L21.0002 1.40002Z" fill="#5920F4"/>
<path d="M23.4106 27.3L35.4408 2.09998H43.6938L31.7574 27.3H23.4106Z" fill="#7C4BFF"/>
<path d="M42.5882 2.80002L31.314 26.6H24.5198L35.8836 2.80002H42.5882ZM44.8002 1.40002H35.0002L22.3008 28H32.2002L44.8002 1.40002Z" fill="#5920F4"/>
<path d="M27.9998 53.9C19.8938 53.9 13.2998 47.306 13.2998 39.2C13.2998 31.094 19.8938 24.5 27.9998 24.5C36.1058 24.5 42.6998 31.094 42.6998 39.2C42.6998 47.306 36.1058 53.9 27.9998 53.9Z" fill="#FFE01D"/>
<path d="M28.0001 25.2C35.7197 25.2 42.0001 31.4804 42.0001 39.2001C42.0001 46.9197 35.7197 53.2001 28.0001 53.2001C20.2805 53.2001 14.0001 46.9197 14.0001 39.2001C14.0001 31.4804 20.2805 25.2 28.0001 25.2ZM28.0001 23.8C19.4951 23.8 12.6001 30.695 12.6001 39.2001C12.6001 47.705 19.4951 54.6001 28.0001 54.6001C36.5051 54.6001 43.4001 47.705 43.4001 39.2001C43.4001 30.695 36.5051 23.8 28.0001 23.8Z" fill="#F2AF0C"/>
<path d="M27.9998 48.9999C22.5958 48.9999 18.1998 44.6039 18.1998 39.2H16.7998C16.7998 45.3851 21.8146 50.3999 27.9998 50.3999C34.185 50.3999 39.1998 45.3851 39.1998 39.2H37.7998C37.7998 44.6039 33.4038 48.9999 27.9998 48.9999Z" fill="white"/>
<path d="M28.8202 30.7706V44.8H26.5998V33.488C26.198 33.775 25.7654 34.0186 25.3034 34.2202C24.8414 34.4218 24.3934 34.5982 23.7998 34.7508V32.8552C24.1694 32.7348 24.4466 32.606 24.791 32.473C25.1354 32.34 25.4756 32.1888 25.8102 32.0236C26.1448 31.8584 26.4836 31.6736 26.8252 31.4692C27.1668 31.2648 27.5196 31.0324 27.8822 30.7706H28.8202Z" fill="white"/>
</svg>
