<svg width="20" height="25" viewBox="0 0 20 25" fill="none" xmlns="http://www.w3.org/2000/svg">
<g opacity="0.8">
<path d="M16.25 19.6383H3.75C3.41848 19.6383 3.10054 19.4792 2.86612 19.1959C2.6317 18.9126 2.5 18.5283 2.5 18.1277V7.55303C2.5 7.15237 2.6317 6.76813 2.86612 6.48483C3.10054 6.20152 3.41848 6.04236 3.75 6.04236H6.24954L7.49954 3.77637H12.4995L13.7495 6.04236H16.25C16.5815 6.04236 16.8995 6.20152 17.1339 6.48483C17.3683 6.76813 17.5 7.15237 17.5 7.55303V18.1277C17.5 18.5283 17.3683 18.9126 17.1339 19.1959C16.8995 19.4792 16.5815 19.6383 16.25 19.6383Z" stroke="white" stroke-width="2" stroke-linecap="round" stroke-linejoin="round"/>
<path d="M10 15.8624C11.5533 15.8624 12.8125 14.3407 12.8125 12.4634C12.8125 10.5862 11.5533 9.06445 10 9.06445C8.4467 9.06445 7.1875 10.5862 7.1875 12.4634C7.1875 14.3407 8.4467 15.8624 10 15.8624Z" stroke="white" stroke-width="2" stroke-linecap="round" stroke-linejoin="round"/>
</g>
</svg>
