<svg width="71" height="29" viewBox="0 0 71 29" fill="none" xmlns="http://www.w3.org/2000/svg">
<path d="M30.8296 3.02376C30.6572 2.86636 30.5201 2.67342 30.4276 2.45792C30.335 2.24242 30.2891 2.00936 30.2929 1.77441C30.2875 1.53656 30.3326 1.30031 30.4252 1.08164C30.5177 0.862964 30.6557 0.666978 30.8296 0.506943C31.2081 0.162197 31.7047 -0.0191512 32.2135 0.00160386C32.7166 -0.0173687 33.207 0.164057 33.5795 0.506943C33.7534 0.666978 33.8913 0.862964 33.9839 1.08164C34.0765 1.30031 34.1216 1.53656 34.1161 1.77441C34.12 2.00936 34.0741 2.24242 33.9815 2.45792C33.8889 2.67342 33.7519 2.86636 33.5795 3.02376C33.207 3.36665 32.7166 3.54807 32.2135 3.5291C31.7047 3.54986 31.2081 3.36851 30.8296 3.02376ZM33.8153 4.63525V15.2737H30.5938V4.63525H33.8153Z" fill="#111827"/>
<path d="M36.1229 7.05655C36.4907 6.27538 37.0684 5.6148 37.7897 5.15042C38.4952 4.7038 39.3125 4.47182 40.1445 4.48212C40.8008 4.47463 41.4495 4.62468 42.0374 4.91997C42.5805 5.18882 43.0447 5.59684 43.3839 6.10348V1.16531H46.6054V15.2737H43.3839V13.7494C43.0723 14.2677 42.6263 14.6896 42.0943 14.9691C41.4919 15.2844 40.8209 15.4418 40.1429 15.4267C39.3098 15.4365 38.4919 15.2015 37.7881 14.7502C37.066 14.278 36.4887 13.611 36.1213 12.8243C35.6978 11.9227 35.4878 10.9336 35.5082 9.9355C35.4877 8.94038 35.6982 7.95428 36.1229 7.05655ZM42.7155 8.02937C42.5052 7.8079 42.2531 7.63153 41.9741 7.51074C41.695 7.38996 41.3948 7.32724 41.0914 7.32632C40.7879 7.3254 40.4874 7.38629 40.2076 7.50538C39.9279 7.62446 39.6747 7.79931 39.4631 8.01949C39.0175 8.48368 38.7947 9.12235 38.7947 9.9355C38.7947 10.7487 39.0175 11.3939 39.4631 11.8713C39.6726 12.0946 39.9248 12.2724 40.2044 12.394C40.484 12.5155 40.7851 12.5782 41.0893 12.5782C41.3936 12.5782 41.6947 12.5155 41.9742 12.394C42.2538 12.2724 42.506 12.0946 42.7155 11.8713C43.1611 11.4027 43.3839 10.7613 43.3839 9.94702C43.3839 9.13278 43.1611 8.49356 42.7155 8.02937Z" fill="#111827"/>
<path d="M58.7922 10.7354H51.5019C51.5518 11.3938 51.7621 11.8992 52.1329 12.2514C52.5023 12.6013 52.9931 12.79 53.4989 12.7765C54.3022 12.7765 54.8611 12.433 55.1755 11.7461H58.6035C58.4307 12.4398 58.1055 13.0852 57.6522 13.6341C57.185 14.2011 56.5952 14.6517 55.9284 14.951C55.1998 15.278 54.4096 15.4408 53.6127 15.4283C52.6543 15.4463 51.7072 15.2163 50.8612 14.76C50.0645 14.3224 49.4103 13.6603 48.978 12.8539C48.5096 11.9626 48.2755 10.9644 48.2983 9.95519C48.2751 8.94727 48.5051 7.9499 48.9666 7.05648C49.394 6.24918 50.0459 5.58646 50.8416 5.15035C51.6905 4.71433 52.6284 4.48545 53.5803 4.48202C54.5322 4.47859 55.4717 4.7007 56.3236 5.1306C57.1044 5.55399 57.7484 6.19564 58.1791 6.97912C58.638 7.83737 58.8683 8.80174 58.8475 9.77741C58.8472 10.0976 58.8287 10.4174 58.7922 10.7354ZM55.5528 8.92476C55.5634 8.67352 55.5181 8.42307 55.4201 8.19198C55.3222 7.96089 55.1741 7.75508 54.9868 7.5898C54.5926 7.25346 54.0889 7.07746 53.5737 7.09599C53.0765 7.08109 52.5912 7.25089 52.2093 7.57334C51.8221 7.92237 51.5769 8.40462 51.5214 8.9264L55.5528 8.92476Z" fill="#111827"/>
<path d="M60.5159 7.0564C60.8837 6.27523 61.4614 5.61466 62.1828 5.15027C62.8882 4.70365 63.7055 4.47168 64.5375 4.48197C65.2156 4.46695 65.8865 4.62429 66.489 4.93958C67.0171 5.21638 67.4624 5.63129 67.7785 6.1412V4.63505H71.0001V15.2735H67.7769V13.7674C67.4525 14.2744 67.0044 14.6883 66.4759 14.969C65.8735 15.2844 65.2026 15.4418 64.5245 15.4266C63.6978 15.4346 62.8866 15.1995 62.1893 14.7501C61.4672 14.2779 60.8898 13.6108 60.5224 12.8242C60.0989 11.9226 59.889 10.9335 59.9093 9.93536C59.8863 8.94089 60.094 7.95482 60.5159 7.0564ZM67.1085 8.02922C66.8983 7.80776 66.6461 7.63138 66.3671 7.5106C66.0881 7.38982 65.7879 7.3271 65.4844 7.32618C65.1809 7.32525 64.8804 7.38615 64.6007 7.50523C64.3209 7.62432 64.0677 7.79916 63.8561 8.01935C63.4106 8.48353 63.1878 9.1222 63.1878 9.93536C63.1878 10.7485 63.4106 11.3938 63.8561 11.8711C64.0656 12.0945 64.3179 12.2723 64.5974 12.3938C64.877 12.5153 65.1781 12.578 65.4823 12.578C65.7866 12.578 66.0877 12.5153 66.3672 12.3938C66.6468 12.2723 66.899 12.0945 67.1085 11.8711C67.5541 11.4025 67.7769 10.7611 67.7769 9.94688C67.7769 9.13263 67.5541 8.49341 67.1085 8.02922Z" fill="#111827"/>
<path d="M35.1147 17.9142C35.713 17.598 36.3799 17.4384 37.0548 17.45C37.8856 17.4378 38.7026 17.6662 39.4095 18.1084C40.1301 18.5744 40.7075 19.2353 41.0764 20.0162C41.5007 20.914 41.7107 21.9002 41.6894 22.8952C41.7099 23.8928 41.5 24.8814 41.0764 25.7824C40.7084 26.5687 40.1312 27.2356 39.4095 27.7082C38.7061 28.1606 37.888 28.3962 37.0548 28.3864C36.3812 28.4024 35.7144 28.2479 35.1147 27.937C34.5855 27.6618 34.137 27.2509 33.8137 26.7453V28.2267H30.5938V16.7126H33.8154V19.1158C34.1327 18.6033 34.5819 18.1879 35.1147 17.9142ZM37.7426 20.9923C37.5315 20.768 37.2766 20.5904 36.9942 20.4708C36.7118 20.3513 36.4079 20.2923 36.1018 20.2977C35.7971 20.2933 35.4949 20.3538 35.2148 20.4751C34.9346 20.5965 34.6828 20.7761 34.4756 21.0022C34.03 21.473 33.8072 22.1149 33.8072 22.9281C33.8072 23.7412 34.03 24.3848 34.4756 24.854C34.6867 25.078 34.9407 25.2561 35.222 25.3775C35.5034 25.4989 35.8062 25.5611 36.112 25.5601C36.4179 25.5592 36.7203 25.4953 37.0009 25.3722C37.2816 25.249 37.5345 25.0694 37.7443 24.8441C38.1964 24.3689 38.4224 23.7242 38.4224 22.91C38.411 22.0952 38.1882 21.4582 37.7426 20.9923Z" fill="#111827"/>
<path d="M45.3907 27.7328C44.5773 27.2977 43.9036 26.6364 43.449 25.8267C42.9639 24.941 42.7203 23.9405 42.7432 22.928C42.7227 21.9177 42.9698 20.9202 43.4588 20.0392C43.9189 19.2251 44.5986 18.5605 45.4183 18.1232C46.2836 17.6847 47.238 17.4564 48.2056 17.4564C49.1733 17.4564 50.1277 17.6847 50.993 18.1232C51.8131 18.5599 52.4929 19.2247 52.9525 20.0392C53.4423 20.9199 53.6894 21.9176 53.6681 22.928C53.6893 23.9397 53.4386 24.9382 52.9428 25.8168C52.4773 26.633 51.7912 27.2978 50.9653 27.7328C50.1016 28.1855 49.1408 28.4151 48.1682 28.4011C47.2018 28.4169 46.2468 28.1871 45.3907 27.7328ZM49.7408 24.8918C50.1744 24.4342 50.3913 23.7796 50.3913 22.928C50.3913 22.0765 50.1815 21.4219 49.7619 20.9643C49.5624 20.7486 49.3213 20.5764 49.0537 20.4584C48.786 20.3404 48.4973 20.2791 48.2053 20.2782C47.9134 20.2773 47.6243 20.3368 47.3559 20.4531C47.0875 20.5693 46.8454 20.7399 46.6445 20.9544C46.2303 21.4054 46.0227 22.0638 46.0217 22.9297C46.0206 23.7955 46.2249 24.4501 46.6347 24.8934C46.8254 25.1145 47.0618 25.2906 47.327 25.4092C47.5922 25.5278 47.88 25.586 48.1699 25.5798C48.4648 25.5833 48.7571 25.5239 49.0278 25.4053C49.2985 25.2868 49.5414 25.1118 49.7408 24.8918Z" fill="#111827"/>
<path d="M61.599 28.248L59.5826 25.2933L57.8929 28.248H54.4031L57.8685 22.816L54.3153 17.6144H57.9254L59.9419 20.551L61.6332 17.6144H65.1181L61.5958 22.9723L65.2108 28.248H61.599Z" fill="#111827"/>
<path d="M24.2711 0.108459H3.67848C2.70328 0.109766 1.7684 0.502468 1.07883 1.20045C0.389258 1.89844 0.0012908 2.84474 0 3.83184L0 24.6758C0.000860495 25.6632 0.388638 26.61 1.07825 27.3083C1.76787 28.0066 2.703 28.3996 3.67848 28.4009H24.2711C25.2469 28.4 26.1824 28.0073 26.8724 27.3089C27.5624 26.6105 27.9504 25.6635 27.9512 24.6758V3.83184C27.9499 2.84445 27.5617 1.89791 26.8718 1.19987C26.1819 0.501841 25.2466 0.10933 24.2711 0.108459ZM24.2711 2.62363C24.5878 2.62363 24.8916 2.75087 25.1157 2.97741C25.3398 3.20394 25.4659 3.51125 25.4664 3.83184V23.0314L25.4501 23.0199C23.7215 25.0561 20.6512 26.2396 18.0623 25.4067C17.0134 25.0693 15.9921 24.3302 14.8424 24.4882C14.1447 24.5837 13.5414 25.0116 12.9267 25.359C12.0274 25.8676 10.6582 26.1968 10.0174 25.1219C9.80152 24.7164 9.70714 24.2559 9.74585 23.7969C9.79789 22.5393 10.3687 21.359 11.0647 20.3154C12.5738 18.0521 14.5448 16.0785 15.7482 13.6143C15.8571 13.3905 15.971 12.9987 15.636 12.9559C15.4197 12.923 15.1335 13.0843 14.9513 13.1864C14.3626 13.5156 13.813 13.9929 13.2633 14.3863C11.9981 15.2851 10.7427 16.197 9.44012 17.0365C8.21234 17.8299 6.913 18.5772 5.48844 18.9311C4.92252 19.0727 4.20862 19.1484 3.71913 18.7566C3.39389 18.4998 3.24753 18.0785 3.19224 17.6669C3.14223 17.3277 3.15603 16.982 3.2329 16.648C3.44268 15.7756 4.12406 15.0843 4.37124 14.2201C4.71437 12.9905 3.95493 12.1708 3.49309 11.1272C3.00221 9.99142 2.71848 8.77514 2.65559 7.53711C2.56127 5.90587 2.81821 4.30426 3.21663 2.72898C3.36464 2.66484 3.52398 2.6318 3.68498 2.63186L24.2711 2.62363ZM2.95319 2.87383C3.03111 2.81273 3.11635 2.76185 3.20688 2.7224L2.95319 2.87383Z" fill="#7C4BFF"/>
<path d="M25.4094 3.48653C25.4457 3.59814 25.4649 3.71472 25.4663 3.8322V23.0318L25.4501 23.0203C23.7214 25.0564 20.6511 26.24 18.0622 25.4071C17.0133 25.0696 15.9921 24.3305 14.8423 24.4886C14.1447 24.584 13.5414 25.012 12.9267 25.3593C12.0274 25.868 10.6581 26.1972 10.0174 25.1223C9.80147 24.7167 9.70709 24.2562 9.7458 23.7972C9.79784 22.5396 10.3686 21.3594 11.0647 20.3158C12.5738 18.0525 14.5447 16.0805 15.7481 13.6147C15.8343 13.4369 15.9205 13.1555 15.7855 13.0205L1.22611 27.4432C1.89793 28.0593 2.77191 28.4007 3.67842 28.4012H24.2711C25.2468 28.4004 26.1824 28.0076 26.8723 27.3092C27.5623 26.6108 27.9503 25.6639 27.9512 24.6762V3.8322C27.9503 3.05218 27.7062 2.29235 27.2535 1.66106L25.4094 3.48653Z" fill="#5C43D6"/>
<path d="M19.2836 15.435C20.9 12.8474 21.7229 9.88118 21.9359 7.00388C21.9486 6.93851 21.9441 6.87094 21.9229 6.80787C21.9018 6.74479 21.8647 6.68841 21.8154 6.64431C21.7661 6.60022 21.7063 6.56995 21.6418 6.5565C21.5774 6.54306 21.5106 6.54691 21.4481 6.56767C18.6477 7.09935 15.8246 8.25159 13.4601 10.161C12.3771 11.0367 13.9203 11.1898 14.5237 11.3133C15.3579 11.4927 16.2409 11.6425 16.8719 12.2186C17.4996 12.7914 17.7501 13.6638 18.0103 14.4819C18.2217 15.0844 18.5388 16.6267 19.2836 15.435Z" fill="#FF5C1B"/>
<path d="M16.6296 11.9242C16.7163 11.973 16.7995 12.028 16.8784 12.0888C17.5062 12.66 17.7566 13.5324 18.0249 14.3505C18.2184 14.9431 18.5372 16.4805 19.2787 15.2953C20.8952 12.7061 21.718 9.73989 21.9311 6.86423C21.9367 6.80044 21.9301 6.73615 21.9115 6.67493L16.6296 11.9242Z" fill="#E05828"/>
</svg>
